<?xml version="1.0" encoding="utf-8"?>
<svg xmlns="http://www.w3.org/2000/svg"
	xmlns:xlink="http://www.w3.org/1999/xlink"
	width="26px" height="32px" viewBox="0 0 26 32">
<g><g><path fillRule="evenodd" d="M 1-0C 1-0 16-0 16-0 16-0 26 10 26 10 26 10 26 31 26 31 26 31.55 25.55 32 25 32 25 32 1 32 1 32 0.45 32-0 31.55-0 31-0 31-0 1-0 1-0 0.45 0.45-0 1-0Z" fill="rgb(237,241,247)"/><path fillRule="evenodd" d="M 25 31C 25 31 25 31 25 31 25 31 25 10.41 25 10.41 25 10.41 15.59 1 15.59 1 15.59 1 1 1 1 1 1 1 1 31 1 31 1 31 25 31 25 31M 25 32C 25 32 1 32 1 32 0.45 32-0 31.55-0 31-0 31-0 1-0 1-0 0.45 0.45 0 1 0 1 0 16 0 16 0 16 0 26 10 26 10 26 10 26 31 26 31 26 31.55 25.55 32 25 32 25 32 25 32 25 32Z" fill="rgb(135,149,167)"/></g><g><path fillRule="evenodd" d="M 16-0C 16-0 26 10 26 10 26 10 16 10 16 10 16 10 16-0 16-0Z" fill="rgb(255,255,255)"/><path fillRule="evenodd" d="M 23.59 9C 23.59 9 17 2.41 17 2.41 17 2.41 17 9 17 9 17 9 23.59 9 23.59 9M 26 10C 26 10 16 10 16 10 16 10 16-0 16-0 16-0 26 10 26 10 26 10 26 10 26 10Z" fill="rgb(135,149,167)"/></g><g><path fillRule="evenodd" d="M 17 28C 17 28 17 17 17 17 17 17 21 17 21 17 21 17 21 28 21 28 21 28 17 28 17 28ZM 5 20C 5 20 9 20 9 20 9 20 9 28 9 28 9 28 5 28 5 28 5 28 5 20 5 20Z" fill="rgb(255,255,255)"/><path fillRule="evenodd" d="M 20 27C 20 27 20 18 20 18 20 18 18 18 18 18 18 18 18 27 18 27 18 27 20 27 20 27M 8 27C 8 27 8 21 8 21 8 21 6 21 6 21 6 21 6 27 6 27 6 27 8 27 8 27M 21 28C 21 28 17 28 17 28 17 28 17 17 17 17 17 17 21 17 21 17 21 17 21 28 21 28 21 28 21 28 21 28ZM 9 28C 9 28 5 28 5 28 5 28 5 20 5 20 5 20 9 20 9 20 9 20 9 28 9 28 9 28 9 28 9 28Z" fill="rgb(135,149,167)"/></g><g><rect x="11" y="12" width="4" height="16" fill="rgb(193,204,219)"/><path fillRule="evenodd" d="M 14 27C 14 27 14 13 14 13 14 13 12 13 12 13 12 13 12 27 12 27 12 27 14 27 14 27M 15 28C 15 28 11 28 11 28 11 28 11 12 11 12 11 12 15 12 15 12 15 12 15 28 15 28 15 28 15 28 15 28Z" fill="rgb(135,149,167)"/></g></g></svg>