<svg xmlns="http://www.w3.org/2000/svg" width="14" height="14" viewBox="0 0 14 14">
    <g fill="none" fill-rule="evenodd">
        <g fill="#168EFF" fill-rule="nonzero">
            <g>
                <g>
                    <path d="M6.594 17c1.26 0 2.4-.297 3.42-.891l-.396-.857c-.408.233-.858.423-1.35.568-.492.146-1.014.219-1.566.219-.768 0-1.48-.12-2.133-.359-.654-.238-1.221-.585-1.701-1.04-.48-.454-.855-1.013-1.125-1.677-.27-.665-.405-1.422-.405-2.273 0-1.025.177-1.951.53-2.779.355-.827.826-1.532 1.414-2.114.588-.583 1.26-1.035 2.016-1.355.756-.32 1.536-.48 2.34-.48.816 0 1.536.122 2.16.366.624.245 1.146.583 1.566 1.014.42.431.735.947.945 1.547.21.6.315 1.25.315 1.949 0 .57-.072 1.08-.216 1.529-.144.449-.333.827-.567 1.136-.234.309-.492.545-.774.708-.282.163-.567.245-.855.245-1.008 0-1.332-.682-.972-2.045l.702-3.496h-.99l-.198.7h-.036c-.168-.292-.372-.505-.612-.639s-.516-.2-.828-.2c-.528 0-1.005.122-1.431.366-.426.245-.79.563-1.09.953-.3.39-.53.827-.692 1.31-.162.484-.243.96-.243 1.425 0 .804.207 1.416.62 1.835.415.42.928.63 1.54.63.396 0 .786-.114 1.17-.341.384-.227.726-.51 1.026-.848h.036c.06.443.26.775.603.996.342.222.759.332 1.25.332.409 0 .826-.099 1.252-.297.426-.198.813-.492 1.16-.882.349-.39.634-.874.856-1.451.222-.577.333-1.25.333-2.019 0-.862-.138-1.649-.414-2.36-.276-.71-.67-1.319-1.18-1.826-.51-.507-1.127-.9-1.853-1.18C9.495 3.14 8.676 3 7.764 3c-1.008 0-1.965.184-2.871.55-.906.368-1.704.889-2.394 1.565-.69.676-1.236 1.491-1.638 2.447-.402.955-.603 2.016-.603 3.18 0 1.015.165 1.912.495 2.692.33.781.78 1.437 1.35 1.967.57.53 1.239.929 2.007 1.197S5.706 17 6.594 17zm-.324-4.684c-.36 0-.66-.122-.9-.367s-.36-.647-.36-1.206c0-.326.05-.664.153-1.014.102-.35.252-.67.45-.961.198-.292.438-.53.72-.717.282-.186.603-.28.963-.28.24 0 .45.056.63.167.18.11.354.3.522.568l-.522 2.779c-.312.36-.603.623-.873.786-.27.163-.531.245-.783.245z" transform="translate(-679 -428) translate(662 365) translate(16.742 60)"/>
                </g>
            </g>
        </g>
    </g>
</svg>
