<svg xmlns="http://www.w3.org/2000/svg" width="14" height="14" viewBox="0 0 14 14">
    <g fill="none" fill-rule="evenodd">
        <g stroke="#168EFF">
            <g>
                <path d="M3.758 2.5c.076 0 .145.032.196.082.05.05.082.12.082.196 0 .933.136 1.833.389 2.68h0L2.488 8.002c1.207 2.534 3.272 4.583 5.811 5.79h0l1.956-1.956c.044-.043.097-.072.154-.083 1.126.324 2.087.477 3.071.477.077 0 .146.032.196.082.05.05.082.12.082.196h0v2.714c0 .077-.032.146-.082.196-.05.05-.12.082-.196.082-3.513 0-6.694-1.424-8.996-3.726C2.182 9.472.758 6.291.758 2.778c0-.077.032-.146.082-.196h0z" transform="translate(-97 -427) translate(80 364) translate(16.742 61)"/>
            </g>
        </g>
    </g>
</svg>
