<svg xmlns="http://www.w3.org/2000/svg" width="14" height="14" viewBox="0 0 14 14">
    <g fill="none" fill-rule="evenodd">
        <g fill="#617083">
            <g>
                <g>
                    <path fill-rule="nonzero" d="M7 0c3.866 0 7 3.134 7 7s-3.134 7-7 7C3.47 14 .551 11.388.07 7.991l.99-.141C1.472 10.76 3.975 13 7 13c3.314 0 6-2.686 6-6s-2.686-6-6-6C4.387 1 2.165 2.67 1.341 5H.29C1.15 2.108 3.829 0 7 0z" transform="translate(-177 -478) translate(80 364) translate(97 114)"/>
                    <path d="M6.5 3c.276 0 .5.224.5.5v3.499L10.5 7c.276 0 .5.224.5.5s-.224.5-.5.5h-4c-.276 0-.5-.224-.5-.5v-4c0-.276.224-.5.5-.5zM.5 5C.224 5 0 4.776 0 4.5v-3c0-.276.224-.5.5-.5s.5.224.5.5L.999 4H3.5c.276 0 .5.224.5.5s-.224.5-.5.5h-3z" transform="translate(-177 -478) translate(80 364) translate(97 114)"/>
                </g>
            </g>
        </g>
    </g>
</svg>
