<?xml version="1.0" standalone="no"?>
<!DOCTYPE svg PUBLIC "-//W3C//DTD SVG 1.1//EN" "http://www.w3.org/Graphics/SVG/1.1/DTD/svg11.dtd">
<svg xmlns="http://www.w3.org/2000/svg">
<metadata>Copyright (C) 2020 by original authors @ fontello.com</metadata>
<defs>
<font id="fontello" horiz-adv-x="1000" >
<font-face font-family="fontello" font-weight="400" font-stretch="normal" units-per-em="1000" ascent="850" descent="-150" />
<missing-glyph horiz-adv-x="1000" />
<glyph glyph-name="side-securities-active" unicode="&#xe800;" d="M611-81c0 0 327 273 327 273 0 0 0 483 0 483 0 0-490 109-490 109 0 0-385-220-385-220 0 0 0-480 0-480 0 0 548-165 548-165m14-69c0 0-625 188-625 188 0 0 0 562 0 562 0 0 438 250 438 250 0 0 562-125 562-125 0 0 0-562 0-562 0 0-375-313-375-313 0 0 0 0 0 0z m0 62c0 0-62 0-62 0 0 0 0 563 0 563 0 0 62 0 62 0 0 0 0-563 0-563m-47 561c0 0-15-60-15-60 0 0-500 125-500 125 0 0 15 60 15 60 0 0 500-125 500-125m321 238c0 0 39-48 39-48 0 0-313-250-313-250 0 0-39 48-39 48 0 0 313 250 313 250m-134-113c0 0-15-60-15-60 0 0-500 125-500 125 0 0 15 60 15 60 0 0 500-125 500-125" horiz-adv-x="1000" />

<glyph glyph-name="trade-request-done" unicode="&#xe801;" d="M224 318c0 0 239-192 239-192 0 0 318 363 318 363 0 0-62 55-62 55 0 0-266-303-266-303 0 0-177 142-177 142 0 0-52-65-52-65 0 0 0 0 0 0z" horiz-adv-x="1000" />

<glyph glyph-name="ok" unicode="&#xe802;" d="M0 339q0-35 24-60l246-239q24-25 60-25 36 0 60 25l505 495q25 24 25 59t-25 58q-25 25-60 25t-60-25l-445-435-185 181q-25 24-60 24t-61-24q-24-24-24-59z" horiz-adv-x="920.4" />

<glyph glyph-name="ok-circle" unicode="&#xe803;" d="M465 797q184 0 315-131t131-316-131-315-315-132-316 132-131 315 131 316 316 131z m-70-653l348 348-79 79-269-268-126 126-79-78z" horiz-adv-x="928" />

<glyph glyph-name="attention-alt" unicode="&#xe804;" d="M286 154v-125q0-15-11-25t-25-11h-143q-14 0-25 11t-11 25v125q0 14 11 25t25 10h143q15 0 25-10t11-25z m16 589l-15-429q-1-14-12-25t-25-10h-143q-14 0-25 10t-12 25l-15 429q-1 14 9 25t25 11h179q14 0 25-11t9-25z" horiz-adv-x="357.1" />

<glyph glyph-name="th-large" unicode="&#xe805;" d="M1000 850v-440h-440v440h440z m-320-320h200v200h-200v-200z m-240 320v-440h-440v440h440z m-320-320h200v200h-200v-200z m880-240v-440h-440v440h440z m-320-320h200v200h-200v-200z m-240 320v-440h-440v440h440z m-320-320h200v200h-200v-200z" horiz-adv-x="1000" />

<glyph glyph-name="exchange" unicode="&#xe806;" d="M1000 189v-107q0-7-5-12t-13-6h-768v-107q0-7-5-12t-13-6q-6 0-13 6l-178 178q-5 5-5 13 0 8 5 13l179 178q5 5 12 5 8 0 13-5t5-13v-107h768q7 0 13-5t5-13z m0 304q0-8-5-13l-179-179q-5-5-12-5-8 0-13 6t-5 12v107h-768q-7 0-13 6t-5 12v107q0 8 5 13t13 5h768v107q0 8 5 13t13 5q6 0 13-5l178-178q5-5 5-13z" horiz-adv-x="1000" />

<glyph glyph-name="fire" unicode="&#xe807;" d="M7 238q10 41 50 131t44 146q39-72 45-145 148 184 154 428 10-6 25-17t58-45 74-74 61-96 34-118q15 36 19 79t-9 80q15-12 41-39t56-75 56-99 31-118-9-127-72-127-152-120q64 129 25 278t-154 229q10-43-11-141t-65-150q7 63 4 102t-12 59l-10 17q-12-70-60-140-26-38-39-69t-9-80 30-105q-135 76-181 154t-24 182z" horiz-adv-x="748" />

<glyph glyph-name="trash-empty" unicode="&#xe808;" d="M286 439v-321q0-8-5-13t-13-5h-36q-8 0-13 5t-5 13v321q0 8 5 13t13 5h36q8 0 13-5t5-13z m143 0v-321q0-8-5-13t-13-5h-36q-8 0-13 5t-5 13v321q0 8 5 13t13 5h36q8 0 13-5t5-13z m142 0v-321q0-8-5-13t-12-5h-36q-8 0-13 5t-5 13v321q0 8 5 13t13 5h36q7 0 12-5t5-13z m72-404v529h-500v-529q0-12 4-22t8-15 6-5h464q2 0 6 5t8 15 4 22z m-375 601h250l-27 65q-4 5-9 6h-177q-6-1-10-6z m518-18v-36q0-8-5-13t-13-5h-54v-529q0-46-26-80t-63-34h-464q-37 0-63 33t-27 79v531h-53q-8 0-13 5t-5 13v36q0 8 5 13t13 5h172l39 93q9 21 31 35t44 15h178q22 0 44-15t30-35l39-93h173q8 0 13-5t5-13z" horiz-adv-x="785.7" />

<glyph glyph-name="user" unicode="&#xe809;" d="M736 128q204-72 204-122l0-106-940 0 0 106q0 50 204 122 94 34 128 69t34 95q0 22-22 49t-32 73q-2 12-9 18t-14 8-14 17-9 43q0 16 5 26t9 12l4 4q-8 50-12 88-4 54 41 112t157 58 158-58 40-112l-12-88q18-8 18-42-2-28-9-43t-14-17-14-8-9-18q-8-48-31-74t-23-48q0-60 35-95t127-69z" horiz-adv-x="940" />

<glyph glyph-name="note" unicode="&#xe80a;" d="M0-25l0 750q0 39 27 66t67 28l656 0q25 0 45-18l187-187q18-20 18-45l0-594q0-39-27-66t-67-28l-812 0q-39 0-67 28t-27 66z m63 0q0-14 8-23t23-8l812 0q14 0 23 8t8 23l0 563-124 0q-40 0-67 27t-27 66l0 125-625 0q-14 0-23-9t-8-22l0-750z m62 78q0 16 16 16l718 0q16 0 16-16t-16-15l-718 0q-16 0-16 15z m0 94q0 16 16 16l718 0q16 0 16-16t-16-16l-718 0q-16 0-16 16z m0 94q0 15 16 15l718 0q16 0 16-15t-16-16l-718 0q-16 0-16 16z m0 93q0 16 16 16l718 0q16 0 16-16t-16-15l-718 0q-16 0-16 15z m0 110l0 187q0 14 9 23t22 8l219 0q14 0 22-8t9-23l0-187q0-14-9-23t-22-8l-219 0q-13 0-22 8t-9 23z m63 31l156 0 0 125-156 0 0-125z m281-47q0 16 15 16l375 0q16 0 16-16t-16-15l-375 0q-15 0-15 15z m0 94q0 16 15 16l157 0q15 0 15-16t-15-16l-157 0q-15 0-15 16z m0 94q0 15 15 15l157 0q15 0 15-15t-15-16l-157 0q-15 0-15 16z m281 15q0-25 19-44t43-18l125 0-187 187 0-125z" horiz-adv-x="1000" />

<glyph glyph-name="bell" unicode="&#xe80b;" d="M509-96q0 8-9 8-33 0-57 24t-23 57q0 9-9 9t-9-9q0-41 29-70t69-28q9 0 9 9z m-372 160h726q-149 168-149 465 0 28-13 58t-39 58-67 45-95 17-95-17-67-45-39-58-13-58q0-297-149-465z m827 0q0-29-21-50t-50-21h-250q0-59-42-101t-101-42-101 42-42 101h-250q-29 0-50 21t-21 50q28 24 51 49t47 67 42 89 27 114 11 146q0 84 66 157t171 89q-5 10-5 21 0 23 16 38t38 16 38-16 16-38q0-11-5-21 106-16 171-89t66-157q0-78 11-146t27-114 42-89 47-67 51-49z" horiz-adv-x="1000" />

<glyph glyph-name="plus-circled" unicode="&#xe80c;" d="M679 314v72q0 14-11 25t-25 10h-143v143q0 15-11 25t-25 11h-71q-15 0-25-11t-11-25v-143h-143q-14 0-25-10t-10-25v-72q0-14 10-25t25-10h143v-143q0-15 11-25t25-11h71q15 0 25 11t11 25v143h143q14 0 25 10t11 25z m178 36q0-117-57-215t-156-156-215-58-216 58-155 156-58 215 58 215 155 156 216 58 215-58 156-156 57-215z" horiz-adv-x="857.1" />

<glyph glyph-name="tasks" unicode="&#xe80d;" d="M571 64h358v72h-358v-72z m-214 286h572v71h-572v-71z m357 286h215v71h-215v-71z m286-465v-142q0-15-11-25t-25-11h-928q-15 0-25 11t-11 25v142q0 15 11 26t25 10h928q15 0 25-10t11-26z m0 286v-143q0-14-11-25t-25-10h-928q-15 0-25 10t-11 25v143q0 15 11 25t25 11h928q15 0 25-11t11-25z m0 286v-143q0-15-11-25t-25-11h-928q-15 0-25 11t-11 25v143q0 14 11 25t25 11h928q15 0 25-11t11-25z" horiz-adv-x="1000" />

<glyph glyph-name="play" unicode="&#xe80e;" d="M772 333l-741-412q-13-7-22-2t-9 20v822q0 14 9 20t22-2l741-412q13-7 13-17t-13-17z" horiz-adv-x="785.7" />

<glyph glyph-name="check" unicode="&#xe80f;" d="M786 331v-177q0-67-47-114t-114-47h-464q-67 0-114 47t-47 114v464q0 66 47 113t114 48h464q35 0 65-14 9-4 10-13 2-10-5-16l-27-28q-6-5-13-5-2 0-5 1-13 3-25 3h-464q-37 0-63-26t-27-63v-464q0-37 27-63t63-27h464q37 0 63 27t26 63v141q0 8 5 13l36 35q6 6 13 6 3 0 7-2 11-4 11-16z m129 273l-455-454q-13-14-31-14t-32 14l-240 240q-14 13-14 31t14 32l61 62q14 13 32 13t32-13l147-147 361 361q13 13 31 13t32-13l62-61q13-14 13-32t-13-32z" horiz-adv-x="928.6" />

<glyph glyph-name="check-empty" unicode="&#xe810;" d="M625 707h-464q-37 0-63-26t-27-63v-464q0-37 27-63t63-27h464q37 0 63 27t26 63v464q0 37-26 63t-63 26z m161-89v-464q0-67-47-114t-114-47h-464q-67 0-114 47t-47 114v464q0 66 47 113t114 48h464q66 0 114-48t47-113z" horiz-adv-x="785.7" />

<glyph glyph-name="ok-squared" unicode="&#xe811;" d="M382 125l343 343q10 10 10 25t-10 25l-57 57q-11 10-25 10t-25-10l-261-261-118 118q-10 11-25 11t-25-11l-57-57q-10-10-10-25t10-25l200-200q11-10 25-10t25 10z m475 493v-536q0-66-47-113t-114-48h-535q-67 0-114 48t-47 113v536q0 66 47 113t114 48h535q67 0 114-48t47-113z" horiz-adv-x="857.1" />

<glyph glyph-name="plus" unicode="&#xe812;" d="M786 439v-107q0-22-16-38t-38-15h-232v-233q0-22-16-37t-38-16h-107q-22 0-38 16t-15 37v233h-232q-23 0-38 15t-16 38v107q0 23 16 38t38 16h232v232q0 22 15 38t38 16h107q23 0 38-16t16-38v-232h232q22 0 38-16t16-38z" horiz-adv-x="785.7" />

<glyph glyph-name="upload" unicode="&#xe813;" d="M500 776l260-244-164 0 0-256-190 0 0 256-166 0z m468-578q18-10 27-32t3-40l-28-154q-4-20-22-33t-40-13l-816 0q-22 0-40 13t-22 33l-28 154q-10 48 32 72l158 108 98 0-170-130 178 0q8 0 12-8l40-110 300 0 40 110q8 8 12 8l178 0-170 130 98 0z" horiz-adv-x="1000" />

<glyph glyph-name="filter" unicode="&#xe814;" d="M783 685q9-23-8-39l-275-275v-414q0-23-22-33-7-3-14-3-15 0-25 11l-143 143q-10 11-10 25v271l-275 275q-18 16-8 39 9 22 33 22h714q23 0 33-22z" horiz-adv-x="785.7" />

<glyph glyph-name="up-open-mini" unicode="&#xe815;" d="M62 230q-26-22-50 0-24 24 0 50l196 190q26 26 48 0l196-190q24-26 0-50-24-22-50 0l-170 158z" horiz-adv-x="464" />

<glyph glyph-name="right-open-mini" unicode="&#xe816;" d="M13 180l158 170-158 172q-26 26 0 48 26 26 48 0l192-194q24-26 0-50l-192-194q-22-26-48 0-26 22 0 48z" horiz-adv-x="265" />

<glyph glyph-name="left-open-mini" unicode="&#xe817;" d="M252 180q26-26 0-48-26-26-48 0l-192 194q-24 24 0 50l192 194q22 26 48 0 26-22 0-48l-156-172z" horiz-adv-x="265" />

<glyph glyph-name="back-in-time" unicode="&#xe818;" d="M532 760q170 0 289-120t119-290-119-290-289-120q-138 0-252 88l70 76q82-60 182-60 126 0 216 90t90 216q0 128-90 218t-216 90q-124 0-213-86t-93-210l142 0-184-206-184 206 124 0q4 166 123 282t285 116z m-36-190l70 0 0-204 130-130-50-50-150 150 0 234z" horiz-adv-x="940" />

<glyph glyph-name="clock" unicode="&#xe819;" d="M460 810q190 0 325-135t135-325-135-325-325-135-325 135-135 325 135 325 325 135z m0-820q150 0 255 106t105 254q0 150-105 255t-255 105q-148 0-254-105t-106-255q0-148 106-254t254-106z m36 620l0-244 150-150-50-50-170 170 0 274 70 0z" horiz-adv-x="920" />

<glyph glyph-name="search" unicode="&#xe81a;" d="M643 386q0 103-74 176t-176 74-177-74-73-176 73-177 177-73 176 73 74 177z m286-465q0-29-22-50t-50-21q-30 0-50 21l-191 191q-100-69-223-69-80 0-153 31t-125 84-84 125-31 153 31 152 84 126 125 84 153 31 152-31 126-84 84-126 31-152q0-123-69-223l191-191q21-21 21-51z" horiz-adv-x="928.6" />

<glyph glyph-name="cancel" unicode="&#xe81b;" d="M724 112q0-22-15-38l-76-76q-16-15-38-15t-38 15l-164 165-164-165q-16-15-38-15t-38 15l-76 76q-16 16-16 38t16 38l164 164-164 164q-16 16-16 38t16 38l76 76q16 16 38 16t38-16l164-164 164 164q16 16 38 16t38-16l76-76q15-15 15-38t-15-38l-164-164 164-164q15-15 15-38z" horiz-adv-x="785.7" />

<glyph glyph-name="ok-1" unicode="&#xe81c;" d="M932 534q0-22-15-38l-404-404-76-76q-16-15-38-15t-38 15l-76 76-202 202q-15 16-15 38t15 38l76 76q16 16 38 16t38-16l164-165 366 367q16 16 38 16t38-16l76-76q15-16 15-38z" horiz-adv-x="1000" />

<glyph glyph-name="calendar" unicode="&#xe81d;" d="M71-79h161v161h-161v-161z m197 0h178v161h-178v-161z m-197 197h161v178h-161v-178z m197 0h178v178h-178v-178z m-197 214h161v161h-161v-161z m411-411h179v161h-179v-161z m-214 411h178v161h-178v-161z m428-411h161v161h-161v-161z m-214 197h179v178h-179v-178z m-196 482v161q0 7-6 12t-12 6h-36q-7 0-12-6t-6-12v-161q0-7 6-13t12-5h36q7 0 12 5t6 13z m410-482h161v178h-161v-178z m-214 214h179v161h-179v-161z m214 0h161v161h-161v-161z m18 268v161q0 7-5 12t-13 6h-35q-8 0-13-6t-5-12v-161q0-7 5-13t13-5h35q8 0 13 5t5 13z m215 36v-715q0-29-22-50t-50-21h-786q-29 0-50 21t-21 50v715q0 29 21 50t50 21h72v54q0 37 26 63t63 26h36q37 0 63-26t26-63v-54h214v54q0 37 27 63t63 26h35q37 0 63-26t27-63v-54h71q29 0 50-21t22-50z" horiz-adv-x="928.6" />

<glyph glyph-name="down-open" unicode="&#xe81e;" d="M564 422l-234-224q-18-18-40-18t-40 18l-234 224q-16 16-16 41t16 41q38 38 78 0l196-188 196 188q40 38 78 0 16-16 16-41t-16-41z" horiz-adv-x="580" />

<glyph glyph-name="left-open" unicode="&#xe81f;" d="M242 626q14 16 39 16t41-16q38-36 0-80l-186-196 186-194q38-44 0-80-16-16-40-16t-40 16l-226 236q-16 16-16 38 0 24 16 40 206 214 226 236z" horiz-adv-x="341" />

<glyph glyph-name="right-open" unicode="&#xe820;" d="M98 626l226-236q16-16 16-40 0-22-16-38l-226-236q-16-16-40-16t-40 16q-36 36 0 80l186 194-186 196q-36 44 0 80 16 16 41 16t39-16z" horiz-adv-x="340" />

<glyph glyph-name="up-open" unicode="&#xe821;" d="M564 280q16-16 16-41t-16-41q-38-38-78 0l-196 188-196-188q-40-38-78 0-16 16-16 41t16 41l234 224q16 16 40 16t40-16z" horiz-adv-x="580" />

<glyph glyph-name="down-open-mini" unicode="&#xe822;" d="M405 470q22 26 48 0 26-22 0-48l-196-192q-22-22-48 0l-196 192q-26 26 0 48 24 24 50 0l170-156z" horiz-adv-x="466" />

<glyph glyph-name="cog" unicode="&#xe823;" d="M571 350q0 59-41 101t-101 42-101-42-42-101 42-101 101-42 101 42 41 101z m286 61v-124q0-7-4-13t-11-7l-104-16q-10-30-21-51 19-27 59-77 6-6 6-13t-5-13q-15-21-55-61t-53-39q-7 0-14 5l-77 60q-25-13-51-21-9-76-16-104-4-16-20-16h-124q-8 0-14 5t-6 12l-16 103q-27 9-50 21l-79-60q-6-5-14-5-8 0-14 6-70 64-92 94-4 5-4 13 0 6 5 12 8 12 28 37t30 40q-15 28-23 55l-102 15q-7 1-11 7t-5 13v124q0 7 5 13t10 7l104 16q8 25 22 51-23 32-60 77-6 7-6 14 0 5 5 12 15 20 55 60t53 40q7 0 15-5l77-60q24 13 50 21 9 76 17 104 3 16 20 16h124q7 0 13-5t7-12l15-103q28-9 50-20l80 59q5 5 13 5 7 0 14-5 72-67 92-95 4-5 4-12 0-7-4-13-9-12-29-37t-30-40q14-28 23-54l102-16q7-1 12-7t4-13z" horiz-adv-x="857.1" />

<glyph glyph-name="bell-alt" unicode="&#xe824;" d="M509-96q0 8-9 8-33 0-57 24t-23 57q0 9-9 9t-9-9q0-41 29-70t69-28q9 0 9 9z m455 160q0-29-21-50t-50-21h-250q0-59-42-101t-101-42-101 42-42 101h-250q-29 0-50 21t-21 50q28 24 51 49t47 67 42 89 27 114 11 146q0 84 66 157t171 89q-5 10-5 21 0 23 16 38t38 16 38-16 16-38q0-11-5-21 106-16 171-89t66-157q0-78 11-146t27-114 42-89 47-67 51-49z" horiz-adv-x="1000" />

<glyph glyph-name="menu" unicode="&#xe825;" d="M857 100v-71q0-15-10-25t-26-11h-785q-15 0-25 11t-11 25v71q0 15 11 25t25 11h785q15 0 26-11t10-25z m0 286v-72q0-14-10-25t-26-10h-785q-15 0-25 10t-11 25v72q0 14 11 25t25 10h785q15 0 26-10t10-25z m0 285v-71q0-15-10-25t-26-11h-785q-15 0-25 11t-11 25v71q0 15 11 26t25 10h785q15 0 26-10t10-26z" horiz-adv-x="857.1" />

<glyph glyph-name="task-history" unicode="&#xe826;" d="M500-119c258 0 469 211 469 469 0 258-211 469-469 469-258 0-469-211-469-469 0-258 211-469 469-469m0-31c-276 0-500 224-500 500 0 276 224 500 500 500 276 0 500-224 500-500 0-276-224-500-500-500 0 0 0 0 0 0z m-156 500c0 0-31 0-31 0 0 121 97 219 218 219 121 0 219-98 219-219 0-121-98-219-219-219-55 0-105 21-144 54 0 0 21 24 21 24 34-30 78-46 123-46 104 0 188 84 188 187 0 103-84 188-188 188-103 0-187-85-187-188m38 51c0 0 24-20 24-20 0 0-78-93-78-93 0 0-24 20-24 20 0 0 78 93 78 93m-30-93c0 0-24-20-24-20 0 0-78 93-78 93 0 0 24 20 24 20 0 0 78-93 78-93m-24-20c0 0 24 20 24 20 0 0-24-20-24-20 0 0 0 0 0 0z m0 0c0 0-24 20-24 20 0 0 24-20 24-20 0 0 0 0 0 0z m172 156c0 0 31 0 31 0 0 0 0-125 0-125 0 0-31 0-31 0 0 0 0 125 0 125m125-94c0 0 0-31 0-31 0 0-125 0-125 0 0 0 0 31 0 31 0 0 125 0 125 0" horiz-adv-x="1000" />

<glyph glyph-name="task-run-active" unicode="&#xe827;" d="M500-119c258 0 469 211 469 469 0 258-211 469-469 469-258 0-469-211-469-469 0-258 211-469 469-469m0-31c-276 0-500 224-500 500 0 276 224 500 500 500 276 0 500-224 500-500 0-276-224-500-500-500 0 0 0 0 0 0z m-46 324c-5-4-15-12-21-12-16 0-27 12-27 30 0 0 0 316 0 316 0 18 11 30 27 30 6 0 16-9 21-12 0 0 223-158 223-158 15-11 14-24 0-35 0 0-223-159-223-159z m-16 27c0 0 210 149 210 149 0 0-210 149-210 149 0 0 0-298 0-298m-5-39c-16 0-27 12-27 30 0 0 0 316 0 316 0 18 11 30 27 30 6 0 16-9 21-12 0 0 223-158 223-158 15-11 14-24 0-35 0 0-223-159-223-159-5-4-15-12-21-12 0 0 0 0 0 0z" horiz-adv-x="1000" />

<glyph glyph-name="task-run" unicode="&#xe828;" d="M500-119c258 0 469 211 469 469 0 258-211 469-469 469-258 0-469-211-469-469 0-258 211-469 469-469m0-31c-276 0-500 224-500 500 0 276 224 500 500 500 276 0 500-224 500-500 0-276-224-500-500-500 0 0 0 0 0 0z m-62 351c0 0 210 149 210 149 0 0-210 149-210 149 0 0 0-298 0-298m-5-39c-16 0-27 12-27 30 0 0 0 316 0 316 0 18 11 30 27 30 6 0 16-9 21-12 0 0 223-158 223-158 15-11 14-24 0-35 0 0-223-159-223-159-5-4-15-12-21-12 0 0 0 0 0 0z" horiz-adv-x="1000" />

<glyph glyph-name="field-arrow-panel" unicode="&#xe829;" d="M1521 757c0 0-664-663-664-663 0 0-664 663-664 663 0 0-100-100-100-100 0 0 764-766 764-766 0 0 764 766 764 766 0 0-100 100-100 100 0 0 0 0 0 0z" horiz-adv-x="1714" />

<glyph glyph-name="edit-security" unicode="&#xe82a;" d="M580-109c0 0 382 240 382 240 0 0 0 563 0 563 0 0-523 115-523 115 0 0-400-231-400-231 0 0 0-563 0-563 0 0 541-124 541-124m7-41c0 0-587 135-587 135 0 0 0 615 0 615 0 0 433 250 433 250 0 0 567-125 567-125 0 0 0-615 0-615 0 0-413-260-413-260 0 0 0 0 0 0z m9 10c0 0-38 0-38 0 0 0 0 625 0 625 0 0 38 0 38 0 0 0 0-625 0-625m-1 624c0 0-8-38-8-38 0 0-587 125-587 125 0 0 8 38 8 38 0 0 587-125 587-125m376 236c0 0 19-33 19-33 0 0-394-231-394-231 0 0-19 33-19 33 0 0 394 231 394 231m-184-102c0 0-8-37-8-37 0 0-548 125-548 125 0 0 8 37 8 37 0 0 548-125 548-125m-365-384c0 0-8-38-8-38 0 0-241 58-241 58 0 0 9 37 9 37 0 0 240-57 240-57m155-365c74 0 135 61 135 135 0 74-61 135-135 135-74 0-135-61-135-135 0-74 61-135 135-135m0-19c-85 0-154 69-154 154 0 85 69 154 154 154 85 0 154-69 154-154 0-85-69-154-154-154 0 0 0 0 0 0z m-30 106c0 0 70 70 70 70 0 0-18 18-18 18 0 0-70-71-70-71 0 0 0-17 0-17 0 0 18 0 18 0m8-20c0 0-45 0-45 0 0 0 0 45 0 45 0 0 89 90 89 90 0 0 45-45 45-45 0 0-89-90-89-90 0 0 0 0 0 0z" horiz-adv-x="1000" />

<glyph glyph-name="task-time" unicode="&#xe82b;" d="M500-88c241 0 438 197 438 438 0 241-197 438-438 438-241 0-437-197-437-438 0-241 196-438 437-438m0-62c-276 0-500 224-500 500 0 276 224 500 500 500 276 0 500-224 500-500 0-276-224-500-500-500 0 0 0 0 0 0z m0 751c0 0-1-313-1-313 0 0-62 0-62 0 0 0 1 313 1 313 0 0 62 0 62 0 0 0 0 0 0 0z m-63-251c0 0 313 0 313 0 0 0 0-62 0-62 0 0-313 0-313 0 0 0 0 62 0 62 0 0 0 0 0 0z m62-62c0 0-62 0-62 0 0 0 0 0 0 0 0 0 62 0 62 0 0 0 0 0 0 0z m-62 0c0 0 0 62 0 62 0 0 0-62 0-62 0 0 0 0 0 0z" horiz-adv-x="1000" />

<glyph glyph-name="tasks-search" unicode="&#xe82c;" d="M546 254c0 0 358-358 358-358 0 0 50 50 50 50 0 0-358 358-358 358m-239-97c158 0 286 128 286 286 0 158-128 286-286 286-158 0-286-128-286-286 0-158 128-286 286-286m0-71c-197 0-357 160-357 357 0 197 160 357 357 357 197 0 357-160 357-357 0-197-160-357-357-357 0 0 0 0 0 0z" horiz-adv-x="1000" />

<glyph glyph-name="top-notifications" unicode="&#xe82d;" d="M947 153c-60 53-197 222-197 385 0 123-48 196-157 234-8 44-47 78-93 78-46 0-85-34-92-78-110-38-158-111-158-234 0-163-137-332-197-385-34-29-53-71-53-115 0-52 11-63 63-63 0 0 312 0 312 0 0-52 73-125 125-125 52 0 125 73 125 125 0 0 313 0 313 0 51 0 62 11 62 63 0 44-19 86-53 115z m-447-241c19 3 61 44 63 63 0 0 0 63 0 63 0 0 62 0 62 0 0 0 313 0 313 0 0 0 0 0 0 0 0 0 0 0 0 0 0 26-12 51-32 68-71 62-218 248-218 432 0 96-33 146-116 175 0 0-35 12-35 12 0 0-6 36-6 36-3 16-16 27-31 27-15 0-28-11-31-27 0 0-6-36-6-36 0 0-35-12-35-12-83-29-115-79-115-175 0-184-148-370-219-432-20-17-31-42-31-68 0 0 0 0 0 0 0 0 312 0 312 0 0 0 58-5 58-5 0 0 5-57 5-57 1-20 43-61 62-64m0-62c-52 0-125 73-125 125 0 0-312 0-312 0-52 0-63 11-63 63 0 44 19 86 53 115 60 53 197 222 197 385 0 123 48 196 158 234 7 44 46 78 92 78 46 0 85-34 93-78 109-38 157-111 157-234 0-163 137-332 197-385 34-29 53-71 53-115 0-52-11-63-62-63 0 0-313 0-313 0 0-52-73-125-125-125 0 0 0 0 0 0z" horiz-adv-x="1000" />

<glyph glyph-name="top-user" unicode="&#xe82e;" d="M114-179c0 158 135 286 300 286 0 0 200 0 200 0 166 0 300-128 300-286 0 0-800 0-800 0z m400 372c-110 0-200 89-200 200 0 110 90 200 200 200 111 0 200-90 200-200 0-111-89-200-200-200z m370-343c-15 128-130 229-270 229 0 0-200 0-200 0-139 0-254-101-269-229 0 0 739 0 739 0m-370 371c95 0 172 77 172 172 0 94-77 171-172 171-94 0-171-77-171-171 0-95 77-172 171-172m400-400c0 0-800 0-800 0 0 158 135 286 300 286 0 0 200 0 200 0 166 0 300-128 300-286 0 0 0 0 0 0z m-400 372c-110 0-200 89-200 200 0 110 90 200 200 200 111 0 200-90 200-200 0-111-89-200-200-200 0 0 0 0 0 0z" horiz-adv-x="1000" />

<glyph glyph-name="trades-approved" unicode="&#xe82f;" d="M375 225c0 0 0-219 0-219 0 0-281 375-281 375 0 0 687 0 687 0 0 0 0-156 0-156 0 0-406 0-406 0z m-31-125c0 0 0 125 0 125 0 0 0 31 0 31 0 0 31 0 31 0 0 0 375 0 375 0 0 0 0 94 0 94 0 0-594 0-594 0 0 0 188-250 188-250m31-94c0 0-281 375-281 375 0 0 687 0 687 0 0 0 0-156 0-156 0 0-406 0-406 0 0 0 0-219 0-219 0 0 0 0 0 0z m94 625c0 0 0 219 0 219 0 0 281-375 281-375 0 0-750 0-750 0 0 0 0 156 0 156 0 0 469 0 469 0z m219-125c0 0-188 250-188 250 0 0 0-125 0-125 0 0 0-31 0-31 0 0-31 0-31 0 0 0-438 0-438 0 0 0 0-94 0-94 0 0 657 0 657 0m62-31c0 0-750 0-750 0 0 0 0 156 0 156 0 0 469 0 469 0 0 0 0 219 0 219 0 0 281-375 281-375 0 0 0 0 0 0z m-16-594c130 0 235 105 235 235 0 129-105 234-235 234-129 0-234-105-234-234 0-130 105-235 234-235m0-31c-146 0-265 119-265 266 0 146 119 265 265 265 147 0 266-119 266-265 0-147-119-266-266-266 0 0 0 0 0 0z m-126 255c0 0 17 26 17 26 0 0 94-62 94-62 0 0 125 156 125 156 0 0 24-19 24-19 0 0-125-157-125-157 0 0-18-22-18-22 0 0-23 16-23 16 0 0-94 62-94 62" horiz-adv-x="1000" />

<glyph glyph-name="task-date" unicode="&#xe830;" d="M875-88c34 0 63 29 63 63 0 0 0 625 0 625 0 34-29 63-63 63 0 0-750 0-750 0-34 0-62-29-62-63 0 0 0-625 0-625 0-34 28-63 62-63 0 0 750 0 750 0m0-62c0 0-750 0-750 0-69 0-125 56-125 125 0 0 0 625 0 625 0 69 56 125 125 125 0 0 750 0 750 0 69 0 125-56 125-125 0 0 0-625 0-625 0-69-56-125-125-125 0 0 0 0 0 0z m-219 688c-17 0-31 13-31 31 0 0 0 250 0 250 0 17 14 31 31 31 18 0 32-14 32-31 0 0 0-250 0-250 0-18-14-31-32-31 0 0 0 0 0 0z m-312 0c-18 0-31 13-31 31 0 0 0 250 0 250 0 17 13 31 31 31 17 0 31-14 31-31 0 0 0-250 0-250 0-18-14-31-31-31 0 0 0 0 0 0z m406-313c0 0 0 125 0 125 0 0-125 0-125 0 0 0 0-125 0-125 0 0 125 0 125 0m-375 0c0 0 0 125 0 125 0 0-125 0-125 0 0 0 0-125 0-125 0 0 125 0 125 0m438-62c0 0-250 0-250 0 0 0 0 250 0 250 0 0 250 0 250 0 0 0 0-250 0-250 0 0 0 0 0 0z m-375 0c0 0-250 0-250 0 0 0 0 250 0 250 0 0 250 0 250 0 0 0 0-250 0-250 0 0 0 0 0 0z" horiz-adv-x="1000" />

<glyph glyph-name="section-done" unicode="&#xe831;" d="M35 325c0 0 521-419 521-419 0 0 694 793 694 793 0 0-136 120-136 120 0 0-579-662-579-662 0 0-388 309-388 309 0 0-112-141-112-141 0 0 0 0 0 0z" horiz-adv-x="1273" />

<glyph glyph-name="security-add-automatically" unicode="&#xe832;" d="M813 100c0 0-94 0-94 0 0 0 0 63 0 63 0 51-42 93-94 93 0 0-125 0-125 0 0 0 0 230 0 230 73 26 125 95 125 177 0 103-84 187-187 187-104 0-188-84-188-187 0-82 52-151 125-177 0 0 0-230 0-230 0 0-125 0-125 0-52 0-94-42-94-93 0 0 0-63 0-63 0 0-93 0-93 0-35 0-63-28-63-62 0 0 0-126 0-126 0-34 28-62 63-62 0 0 750 0 750 0 34 0 62 28 62 62 0 0 0 126 0 126 0 34-28 62-62 62z m-438 563c0 34 28 62 63 62 34 0 62-28 62-62 0-35-28-63-62-63-35 0-63 28-63 63z m438-782c17 0 31 14 31 31 0 0 0 126 0 126 0 17-14 31-31 31 0 0-94 0-94 0 0 0-31 0-31 0 0 0 0 31 0 31 0 0 0 63 0 63 0 34-28 62-63 62 0 0-125 0-125 0 0 0-31 0-31 0 0 0 0 31 0 31 0 0 0 230 0 230 0 0 0 22 0 22 0 0 21 8 21 8 62 22 104 81 104 147 0 86-70 156-156 156-87 0-157-70-157-156 0-66 42-125 105-147 0 0 20-8 20-8 0 0 0-22 0-22 0 0 0-230 0-230 0 0 0-31 0-31 0 0-31 0-31 0 0 0-125 0-125 0-34 0-62-28-62-62 0 0 0-63 0-63 0 0 0-31 0-31 0 0-32 0-32 0 0 0-93 0-93 0-18 0-32-14-32-31 0 0 0-126 0-126 0-17 14-31 32-31 0 0 750 0 750 0m-375 875c51 0 93-42 93-93 0-52-42-94-93-94-52 0-94 42-94 94 0 51 42 93 94 93m375-906c0 0-750 0-750 0-35 0-63 28-63 62 0 0 0 126 0 126 0 34 28 62 63 62 0 0 93 0 93 0 0 0 0 63 0 63 0 51 42 93 94 93 0 0 125 0 125 0 0 0 0 230 0 230-73 26-125 95-125 177 0 103 84 187 188 187 103 0 187-84 187-187 0-82-52-151-125-177 0 0 0-230 0-230 0 0 125 0 125 0 52 0 94-42 94-93 0 0 0-63 0-63 0 0 94 0 94 0 34 0 62-28 62-62 0 0 0-126 0-126 0-34-28-62-62-62 0 0 0 0 0 0z m-375 875c-35 0-63-28-63-62 0-35 28-63 63-63 34 0 62 28 62 63 0 34-28 62-62 62 0 0 0 0 0 0z m250-625c0 0 0-31 0-31 0 0-500 0-500 0 0 0 0 31 0 31 0 0 500 0 500 0" horiz-adv-x="875" />

<glyph glyph-name="side-crm" unicode="&#xe833;" d="M375 225c0 0 250 0 250 0 207 0 375-168 375-375 0 0-1000 0-1000 0 0 207 168 375 375 375z m556-313c-29 143-155 251-306 251 0 0-250 0-250 0-151 0-277-108-306-251 0 0 862 0 862 0m69-62c0 0-1000 0-1000 0 0 207 168 375 375 375 0 0 250 0 250 0 207 0 375-168 375-375 0 0 0 0 0 0z m-500 563c103 0 188 84 188 187 0 103-85 188-188 188-103 0-187-85-187-188 0-103 84-187 187-187m0-63c-138 0-250 112-250 250 0 138 112 250 250 250 138 0 250-112 250-250 0-138-112-250-250-250 0 0 0 0 0 0z" horiz-adv-x="1000" />

<glyph glyph-name="side-pl" unicode="&#xe834;" d="M1000-150c0 0-125 0-125 0-34 0-62 28-62 62 0 0 0 563 0 563 0 34 28 63 62 63 0 0 125 0 125 0 34 0 63-29 63-63 0 0 0-563 0-563 0-34-29-62-63-62z m-375 0c0 0-125 0-125 0-34 0-62 28-62 62 0 0 0 376 0 376 0 34 28 62 62 62 0 0 125 0 125 0 34 0 63-28 63-62 0 0 0-376 0-376 0-34-29-62-63-62z m-375 0c0 0-125 0-125 0-34 0-62 28-62 62 0 0 0 188 0 188 0 34 28 63 62 63 0 0 125 0 125 0 34 0 63-29 63-63 0 0 0-188 0-188 0-34-29-62-63-62z m750 62c0 0 0 0 0 0 0 0 0 563 0 563 0 0-125 0-125 0 0 0 0-563 0-563 0 0 125 0 125 0m-375 0c0 0 0 0 0 0 0 0 0 376 0 376 0 0-125 0-125 0 0 0 0-376 0-376 0 0 125 0 125 0m-375 0c0 0 0 0 0 0 0 0 0 188 0 188 0 0-125 0-125 0 0 0 0-188 0-188 0 0 125 0 125 0m750-62c0 0-125 0-125 0-34 0-62 28-62 62 0 0 0 563 0 563 0 34 28 63 62 63 0 0 125 0 125 0 34 0 63-29 63-63 0 0 0-563 0-563 0-34-29-62-63-62 0 0 0 0 0 0z m-375 0c0 0-125 0-125 0-34 0-62 28-62 62 0 0 0 376 0 376 0 34 28 62 62 62 0 0 125 0 125 0 34 0 63-28 63-62 0 0 0-376 0-376 0-34-29-62-63-62 0 0 0 0 0 0z m-375 0c0 0-125 0-125 0-34 0-62 28-62 62 0 0 0 188 0 188 0 34 28 63 62 63 0 0 125 0 125 0 34 0 63-29 63-63 0 0 0-188 0-188 0-34-29-62-63-62 0 0 0 0 0 0z m493 749c0 0 93 189 93 189 0 0-219 0-219 0 0 0 126-189 126-189m7-124c0 0-250 375-250 375 0 0 438 0 438 0 0 0-188-375-188-375 0 0 0 0 0 0z m-672-152c0 0 562 312 562 312 0 0-30 55-30 55 0 0-562-312-562-312" horiz-adv-x="1063" />

<glyph glyph-name="side-reports-active" unicode="&#xe835;" d="M778-94c35 0 48 3 50 3 1 0 1 0 1-1 2 4 4 15 4 53 0 0 0 477 0 477 0 0-356 356-356 356 0 0-366 0-366 0-38 0-49-4-50-4 0 0 0 0 0 0-2-2-5-12-5-51 0 0 0-778 0-778 0-39 3-49 3-50 2 0 12-5 52-5 0 0 667 0 667 0m0-56c0 0-667 0-667 0-94 0-111 21-111 111 0 0 0 778 0 778 0 90 17 111 111 111 0 0 389 0 389 0 0 0 389-389 389-389 0 0 0-500 0-500 0-90-13-111-111-111 0 0 0 0 0 0z m55 611c0 0 0-55 0-55 0 0-277 0-277 0-39 0-65 3-82 14-27 33-30 59-30 97 0 0 0 277 0 277 0 0 56 0 56 0 0 0 0-277 0-277 0-40 4-50 4-50 2-1 11-6 52-6 0 0 277 0 277 0m-500 167c0 0 0-56 0-56 0 0-166 0-166 0 0 0 0 56 0 56 0 0 166 0 166 0m0-167c0 0 0-55 0-55 0 0-166 0-166 0 0 0 0 55 0 55 0 0 166 0 166 0m389-167c0 0 0-55 0-55 0 0-555 0-555 0 0 0 0 55 0 55 0 0 555 0 555 0m0-166c0 0 0-56 0-56 0 0-555 0-555 0 0 0 0 56 0 56 0 0 555 0 555 0" horiz-adv-x="889" />

<glyph glyph-name="side-reconciliation-active-svg" unicode="&#xe836;" d="M1000-79c54 0 71 18 71 72 0 0 0 500 0 500 0 53-17 71-71 71 0 0-429 0-429 0-75 0-142 68-142 143 0 54-18 72-72 72 0 0-214 0-214 0-54 0-72-18-72-72 0 0 0-714 0-714 0-54 18-72 72-72 0 0 857 0 857 0m0-71c0 0-857 0-857 0-94 0-143 51-143 143 0 0 0 714 0 714 0 92 49 143 143 143 0 0 214 0 214 0 94 0 143-51 143-143 0-35 35-71 71-71 0 0 429 0 429 0 94 0 143-52 143-143 0 0 0-500 0-500 0-92-49-143-143-143 0 0 0 0 0 0z m-739 404c0 0 239-240 239-240 0 0 382 382 382 382 0 0-50 50-50 50 0 0-332-331-332-331 0 0-189 189-189 189 0 0-50-50-50-50 0 0 0 0 0 0z" horiz-adv-x="1143" />

<glyph glyph-name="security-add-manually" unicode="&#xe837;" d="M688 413c0 0 0 187 0 187 0 0 187 0 187 0 0 0 0-187 0-187 0 0-187 0-187 0z m0 437c0 0 187 0 187 0 0 0 0-187 0-187 0 0-187 0-187 0 0 0 0 187 0 187z m156-406c0 0 0 125 0 125 0 0-125 0-125 0 0 0 0-125 0-125 0 0 125 0 125 0m0 250c0 0 0 125 0 125 0 0-125 0-125 0 0 0 0-125 0-125 0 0 125 0 125 0m31-281c0 0-187 0-187 0 0 0 0 187 0 187 0 0 187 0 187 0 0 0 0-187 0-187 0 0 0 0 0 0z m0 250c0 0-187 0-187 0 0 0 0 187 0 187 0 0 187 0 187 0 0 0 0-187 0-187 0 0 0 0 0 0z m-875-500c0 0 0 187 0 187 0 0 875 0 875 0 0 0 0-187 0-187 0 0-875 0-875 0z m0 437c0 0 719 0 719 0 0 0 0-187 0-187 0 0-719 0-719 0 0 0 0 187 0 187z m0 250c0 0 719 0 719 0 0 0 0-187 0-187 0 0-719 0-719 0 0 0 0 187 0 187z m844-656c0 0 0 125 0 125 0 0-813 0-813 0 0 0 0-125 0-125 0 0 813 0 813 0m-156 250c0 0 0 125 0 125 0 0-657 0-657 0 0 0 0-125 0-125 0 0 657 0 657 0m0 250c0 0 0 125 0 125 0 0-657 0-657 0 0 0 0-125 0-125 0 0 657 0 657 0m187-531c0 0-875 0-875 0 0 0 0 187 0 187 0 0 875 0 875 0 0 0 0-187 0-187 0 0 0 0 0 0z m-156 250c0 0-719 0-719 0 0 0 0 187 0 187 0 0 719 0 719 0 0 0 0-187 0-187 0 0 0 0 0 0z m0 250c0 0-719 0-719 0 0 0 0 187 0 187 0 0 719 0 719 0 0 0 0-187 0-187 0 0 0 0 0 0z m-78-813c0 0-407 0-407 0 0 0 0 188 0 188 0 0 407 0 407 0 0 0 0-188 0-188z m-32 31c0 0 0 125 0 125 0 0-343 0-343 0 0 0 0-125 0-125 0 0 343 0 343 0m32-31c0 0-407 0-407 0 0 0 0 188 0 188 0 0 407 0 407 0 0 0 0-188 0-188 0 0 0 0 0 0z m93 938c0 0 94 0 94 0 0 0-47-63-47-63 0 0-47 63-47 63z m47-313c0 0-47 63-47 63 0 0 94 0 94 0 0 0-47-63-47-63z m0 0c0 0-47 63-47 63 0 0 94 0 94 0 0 0-47-63-47-63 0 0 0 0 0 0z m0 250c0 0-47 63-47 63 0 0 94 0 94 0 0 0-47-63-47-63 0 0 0 0 0 0z m-703-484c0 0 0 31 0 31 0 0 485 0 485 0 0 0 0-31 0-31 0 0-485 0-485 0z m0 531c0 0 485 0 485 0 0 0 0-31 0-31 0 0-485 0-485 0 0 0 0 31 0 31z m328-281c0 0-328 0-328 0 0 0 0 31 0 31 0 0 328 0 328 0 0 0 0-31 0-31z m157-250c0 0-485 0-485 0 0 0 0 31 0 31 0 0 485 0 485 0 0 0 0-31 0-31 0 0 0 0 0 0z m-157 250c0 0-328 0-328 0 0 0 0 31 0 31 0 0 328 0 328 0 0 0 0-31 0-31 0 0 0 0 0 0z m157 250c0 0-485 0-485 0 0 0 0 31 0 31 0 0 485 0 485 0 0 0 0-31 0-31 0 0 0 0 0 0z" horiz-adv-x="875" />

<glyph glyph-name="side-pricing-active" unicode="&#xe838;" d="M500-88c241 0 438 197 438 438 0 241-197 438-438 438-241 0-437-197-437-438 0-241 196-438 437-438m0-62c-276 0-500 224-500 500 0 276 224 500 500 500 276 0 500-224 500-500 0-276-224-500-500-500 0 0 0 0 0 0z m-375 938c0 0 0 62 0 62 0 0 250 0 250 0 0 0 0-62 0-62 0 0-250 0-250 0m188 62c0 0 62 0 62 0 0 0 0-250 0-250 0 0-62 0-62 0 0 0 0 250 0 250m62-62c0 0 0 62 0 62 0 0 0 0 0 0 0 0 0-62 0-62 0 0 0 0 0 0z m0 62c0 0-62 0-62 0 0 0 62 0 62 0 0 0 0 0 0 0 0 0 0 0 0 0z m0-812c0 0-250 0-250 0 0 0 0 62 0 62 0 0 250 0 250 0 0 0 0-62 0-62 0 0 0 0 0 0z m-187 62c0 0 0-250 0-250 0 0-63 0-63 0 0 0 0 250 0 250 0 0 63 0 63 0 0 0 0 0 0 0z m-63-62c0 0 0 62 0 62 0 0 63 0 63 0 0 0-63 0-63 0 0 0 0-62 0-62 0 0 0 0 0 0z m604 413c0 0 244-208 244-208 0 0 176 212 176 212 0 0-48 40-48 40 0 0-136-163-136-163 0 0-194 167-194 167 0 0-42-48-42-48 0 0 0 0 0 0z m-229-288c0 0 63 0 63 0 0 0 0-63 0-63 0 0-63 0-63 0 0 0 0 63 0 63m0 437c0 0 63 0 63 0 0 0 0-62 0-62 0 0-63 0-63 0 0 0 0 62 0 62m24-500c0 0-55 0-55 0 0 0 0 60 0 60-36 1-73 12-94 23 0 0 17 60 17 60 22-13 55-24 91-24 40 0 60 20 60 47 0 27-19 44-70 65-55 24-94 52-94 105 0 52 35 92 95 104 0 0 0 60 0 60 0 0 55 0 55 0 0 0 0-56 0-56 37-1 63-10 82-18 0 0-17-58-17-58-17 8-45 19-78 19-37 0-57-22-57-42 0-24 25-39 69-60 67-27 97-57 97-112 0-54-37-97-101-109 0 0 0-64 0-64z" horiz-adv-x="1188" />

<glyph glyph-name="settings" unicode="&#xe839;" d="M500 850c0 0 467 0 467 0 276 0 500-224 500-500 0-276-224-500-500-500 0 0-467 0-467 0-276 0-500 224-500 500 0 276 224 500 500 500z m467-933c239 0 433 194 433 433 0 239-194 433-433 433 0 0-467 0-467 0-239 0-433-194-433-433 0-239 194-433 433-433 0 0 467 0 467 0m0-67c0 0-467 0-467 0-276 0-500 224-500 500 0 276 224 500 500 500 0 0 467 0 467 0 276 0 500-224 500-500 0-276-224-500-500-500 0 0 0 0 0 0z m-30 442c0 0-63 0-63 0 0 0 45-45 45-45 11-12 11-30 0-41 0 0-41-42-41-42-12-11-30-11-42 0 0 0-44 45-44 45 0 0 0-63 0-63 0-16-13-29-30-29 0 0-58 0-58 0-16 0-29 13-29 29 0 0 0 63 0 63 0 0-45-45-45-45-11-11-30-11-41 0 0 0-41 42-41 42-12 11-12 29 0 41 0 0 44 45 44 45 0 0-63 0-63 0-16 0-29 13-29 29 0 0 0 58 0 58 0 16 13 29 29 29 0 0 64 0 64 0 0 0-45 45-45 45-12 12-12 30 0 41 0 0 41 42 41 42 11 11 30 11 41 0 0 0 45-45 45-45 0 0 0 63 0 63 0 16 13 29 29 29 0 0 58 0 58 0 17 0 30-13 30-29 0 0 0-63 0-63 0 0 44 45 44 45 12 11 30 11 42 0 0 0 41-42 41-42 11-11 11-29 0-41 0 0-45-45-45-45 0 0 63 0 63 0 17 0 30-13 30-29 0 0 0-58 0-58 0-16-13-29-30-29z m-204 116c-32 0-58-26-58-58 0-32 26-58 58-58 33 0 59 26 59 58 0 32-26 58-59 58z m25-258c0 0 0 59 0 59 0 0 0 53 0 53-8-2-16-4-25-4-8 0-17 2-25 4 0 0 0-53 0-53 0 0 0-59 0-59 0 0 50 0 50 0m-148 41c0 0 41 42 41 42 0 0 38 37 38 37-15 8-27 21-36 35 0 0-37-37-37-37 0 0-42-42-42-42 0 0 36-35 36-35m247 0c0 0 35 35 35 35 0 0-41 42-41 42 0 0-38 37-38 37-8-14-20-27-35-35 0 0 37-37 37-37 0 0 42-42 42-42m76 134c0 0 0 50 0 50 0 0-59 0-59 0 0 0-52 0-52 0 2-8 3-16 3-25 0-9-1-17-3-25 0 0 52 0 52 0 0 0 59 0 59 0m-288 0c-2 8-3 16-3 25 0 9 1 17 3 25 0 0-52 0-52 0 0 0-60 0-60 0 0 0 0-50 0-50 0 0 60 0 60 0 0 0 52 0 52 0m168 70c0 0 38 37 38 37 0 0 41 42 41 42 0 0-35 35-35 35 0 0-42-42-42-42 0 0-37-37-37-37 15-8 27-21 35-35m-160 0c9 14 21 27 36 35 0 0-38 37-38 37 0 0-41 42-41 42 0 0-36-35-36-35 0 0 42-42 42-42 0 0 37-37 37-37m55 43c8 2 17 4 25 4 9 0 17-2 25-4 0 0 0 53 0 53 0 0 0 59 0 59 0 0-50 0-50 0 0 0 0-59 0-59 0 0 0-53 0-53m54-321c0 0-58 0-58 0-16 0-29 13-29 29 0 0 0 63 0 63 0 0-45-45-45-45-5-5-13-8-20-8-8 0-15 3-21 8 0 0-41 42-41 42-12 11-12 29 0 41 0 0 45 45 45 45 0 0-64 0-64 0-16 0-29 13-29 29 0 0 0 58 0 58 0 16 13 29 29 29 0 0 64 0 64 0 0 0-45 45-45 45-12 12-12 30 0 41 0 0 41 42 41 42 6 5 13 8 21 8 7 0 15-3 20-8 0 0 45-45 45-45 0 0 0 63 0 63 0 16 13 29 29 29 0 0 58 0 58 0 17 0 30-13 30-29 0 0 0-63 0-63 0 0 44 45 44 45 6 5 14 8 21 8 8 0 15-3 21-8 0 0 41-42 41-42 11-11 11-29 0-41 0 0-45-45-45-45 0 0 63 0 63 0 17 0 30-13 30-29 0 0 0-58 0-58 0-16-13-29-30-29 0 0-63 0-63 0 0 0 45-45 45-45 11-12 11-30 0-41 0 0-41-42-41-42-6-5-13-8-21-8-7 0-15 3-21 8 0 0-44 45-44 45 0 0 0-63 0-63 0-16-13-29-30-29 0 0 0 0 0 0z m-29 291c-32 0-58-26-58-58 0-32 26-58 58-58 33 0 59 26 59 58 0 32-26 58-59 58 0 0 0 0 0 0z m0-204c-80 0-146 65-146 146 0 81 66 146 146 146 81 0 146-65 146-146 0-81-65-146-146-146z m0 234c-48 0-87-40-87-88 0-48 39-87 87-87 49 0 88 39 88 87 0 48-39 88-88 88z" horiz-adv-x="1467" />

<glyph glyph-name="filters-active" unicode="&#xe83a;" d="M500 850c0 0 467 0 467 0 276 0 500-224 500-500 0-276-224-500-500-500 0 0-467 0-467 0-276 0-500 224-500 500 0 276 224 500 500 500z m467-933c239 0 433 194 433 433 0 239-194 433-433 433 0 0-467 0-467 0-239 0-433-194-433-433 0-239 194-433 433-433 0 0 467 0 467 0m0-67c0 0-467 0-467 0-276 0-500 224-500 500 0 276 224 500 500 500 0 0 467 0 467 0 276 0 500-224 500-500 0-276-224-500-500-500 0 0 0 0 0 0z m0 733c0 0-167-214-167-214 0 0 0-152 0-152 0 0-133-100-133-100 0 0 0 252 0 252 0 0-167 214-167 214 0 0 467 0 467 0z m-267-400c0 0 67 50 67 50 0 0 0 136 0 136 0 0 0 11 0 11 0 0 7 9 7 9 0 0 125 161 125 161 0 0-331 0-331 0 0 0 125-161 125-161 0 0 7-9 7-9 0 0 0-11 0-11 0 0 0-186 0-186m-33-66c0 0 0 252 0 252 0 0-167 214-167 214 0 0 467 0 467 0 0 0-167-214-167-214 0 0 0-152 0-152 0 0-133-100-133-100 0 0 0 0 0 0z" horiz-adv-x="1467" />

<glyph glyph-name="field-arrow" unicode="&#xe83b;" d="M1521 757c0 0-664-663-664-663 0 0-664 663-664 663 0 0-100-100-100-100 0 0 764-766 764-766 0 0 764 766 764 766 0 0-100 100-100 100 0 0 0 0 0 0z" horiz-adv-x="1714" />

<glyph glyph-name="edit-securities" unicode="&#xe83c;" d="M281-25c0 0 542 542 542 542 0 0-156 156-156 156 0 0-542-542-542-542 0 0 0-156 0-156 0 0 156 0 156 0m52-125c0 0-334 0-334 0 0 0 1 333 1 333 0 0 667 667 667 667 0 0 333-333 333-333 0 0-667-667-667-667 0 0 0 0 0 0z" horiz-adv-x="1000" />

<glyph glyph-name="add-col" unicode="&#xe83d;" d="M400 850c0 0 200 0 200 0 0 0 0-1000 0-1000 0 0-200 0-200 0 0 0 0 1000 0 1000m-400-600c0 0 0 200 0 200 0 0 1000 0 1000 0 0 0 0-200 0-200 0 0-1000 0-1000 0" horiz-adv-x="1000" />

<glyph glyph-name="trades-requests" unicode="&#xe83e;" d="M375 225c0 0 0-219 0-219 0 0-281 375-281 375 0 0 687 0 687 0 0 0 0-156 0-156 0 0-406 0-406 0z m-31-125c0 0 0 125 0 125 0 0 0 31 0 31 0 0 31 0 31 0 0 0 375 0 375 0 0 0 0 94 0 94 0 0-594 0-594 0 0 0 188-250 188-250m31-94c0 0-281 375-281 375 0 0 687 0 687 0 0 0 0-156 0-156 0 0-406 0-406 0 0 0 0-219 0-219 0 0 0 0 0 0z m94 625c0 0 0 219 0 219 0 0 281-375 281-375 0 0-750 0-750 0 0 0 0 156 0 156 0 0 469 0 469 0z m219-125c0 0-188 250-188 250 0 0 0-125 0-125 0 0 0-31 0-31 0 0-31 0-31 0 0 0-438 0-438 0 0 0 0-94 0-94 0 0 657 0 657 0m62-31c0 0-750 0-750 0 0 0 0 156 0 156 0 0 469 0 469 0 0 0 0 219 0 219 0 0 281-375 281-375 0 0 0 0 0 0z m-16-594c130 0 235 105 235 235 0 129-105 234-235 234-129 0-234-105-234-234 0-130 105-235 234-235m0-31c-146 0-265 119-265 266 0 146 119 265 265 265 147 0 266-119 266-265 0-147-119-266-266-266 0 0 0 0 0 0z m33 218c0 28 7 40 17 49 0 0 27 20 27 20 22 18 33 36 33 54 0 21-8 37-25 48-16 11-39 17-68 17-28 0-51-6-68-17-18-12-26-27-27-47 0 0 53 0 53 0 0 9 4 16 12 22 7 5 17 8 30 8 13 0 23-3 30-8 7-6 10-14 10-24 0-8-3-16-9-22-4-5-13-12-27-23-14-11-23-20-28-29-5-9-8-22-8-48 0 0 48 0 48 0z m-40-84c5-6 13-9 23-9 10 0 17 3 23 9 5 6 8 13 8 22 0 9-3 17-8 22-6 6-14 10-23 10-10 0-17-3-23-9-5-6-8-14-8-23 0-9 3-16 8-22z" horiz-adv-x="1000" />

<glyph glyph-name="add-security" unicode="&#xe83f;" d="M580-109c0 0 382 240 382 240 0 0 0 563 0 563 0 0-523 115-523 115 0 0-400-231-400-231 0 0 0-563 0-563 0 0 541-124 541-124m7-41c0 0-587 135-587 135 0 0 0 615 0 615 0 0 433 250 433 250 0 0 567-125 567-125 0 0 0-615 0-615 0 0-413-260-413-260 0 0 0 0 0 0z m9 10c0 0-38 0-38 0 0 0 0 625 0 625 0 0 38 0 38 0 0 0 0-625 0-625m-1 624c0 0-8-38-8-38 0 0-587 125-587 125 0 0 8 38 8 38 0 0 587-125 587-125m376 236c0 0 19-33 19-33 0 0-394-231-394-231 0 0-19 33-19 33 0 0 394 231 394 231m-184-102c0 0-8-37-8-37 0 0-548 125-548 125 0 0 8 37 8 37 0 0 548-125 548-125m-365-384c0 0-8-38-8-38 0 0-241 58-241 58 0 0 9 37 9 37 0 0 240-57 240-57m155-365c74 0 135 61 135 135 0 74-61 135-135 135-74 0-135-61-135-135 0-74 61-135 135-135m0-19c-85 0-154 69-154 154 0 85 69 154 154 154 85 0 154-69 154-154 0-85-69-154-154-154 0 0 0 0 0 0z m-10 212c0 0 20 0 20 0 0 0 0-116 0-116 0 0-20 0-20 0 0 0 0 116 0 116m-48-68c0 0 0 20 0 20 0 0 116 0 116 0 0 0 0-20 0-20 0 0-116 0-116 0" horiz-adv-x="1000" />

<glyph glyph-name="add" unicode="&#xe840;" d="M500-25c207 0 375 168 375 375 0 207-168 375-375 375-207 0-375-168-375-375 0-207 168-375 375-375m0-125c-276 0-500 224-500 500 0 276 224 500 500 500 276 0 500-224 500-500 0-276-224-500-500-500 0 0 0 0 0 0z m-62 688c0 0 125 0 125 0 0 0 0-375 0-375 0 0-125 0-125 0 0 0 0 375 0 375m-125-250c0 0 0 125 0 125 0 0 375 0 375 0 0 0 0-125 0-125 0 0-375 0-375 0" horiz-adv-x="1000" />

<glyph glyph-name="close" unicode="&#xe841;" d="M24 708c0 0 834-834 834-834 0 0 118 118 118 118 0 0-833 834-833 834m715 0c0 0-834-834-834-834 0 0 119-118 119-118 0 0 833 834 833 834" horiz-adv-x="1000" />

<glyph glyph-name="date-panel" unicode="&#xe842;" d="M857-79c39 0 72 33 72 72 0 0 0 571 0 571 0 40-33 72-72 72 0 0-714 0-714 0-39 0-72-32-72-72 0 0 0-571 0-571 0-39 33-72 72-72 0 0 714 0 714 0m0-71c0 0-714 0-714 0-79 0-143 64-143 143 0 0 0 571 0 571 0 79 64 143 143 143 0 0 714 0 714 0 79 0 143-64 143-143 0 0 0-571 0-571 0-79-64-143-143-143 0 0 0 0 0 0z m-536 1000c20 0 36-16 36-36 0 0 0-285 0-285 0-20-16-36-36-36-20 0-35 16-35 36 0 0 0 285 0 285 0 20 15 36 35 36z m358 0c20 0 35-16 35-36 0 0 0-285 0-285 0-20-15-36-35-36-20 0-36 16-36 36 0 0 0 285 0 285 0 20 16 36 36 36z m0-357c-20 0-36 16-36 36 0 0 0 285 0 285 0 20 16 36 36 36 20 0 35-16 35-36 0 0 0-285 0-285 0-20-15-36-35-36 0 0 0 0 0 0z m-358 0c-20 0-35 16-35 36 0 0 0 285 0 285 0 20 15 36 35 36 20 0 36-16 36-36 0 0 0-285 0-285 0-20-16-36-36-36 0 0 0 0 0 0z m250-357c0 0 0 214 0 214 0 0 215 0 215 0 0 0 0-214 0-214 0 0-215 0-215 0z m-357 214c0 0 215 0 215 0 0 0 0-214 0-214 0 0-215 0-215 0 0 0 0 214 0 214z m500-143c0 0 0 72 0 72 0 0-71 0-71 0 0 0 0-72 0-72 0 0 71 0 71 0m-357 0c0 0 0 72 0 72 0 0-71 0-71 0 0 0 0-72 0-72 0 0 71 0 71 0m429-71c0 0-215 0-215 0 0 0 0 214 0 214 0 0 215 0 215 0 0 0 0-214 0-214 0 0 0 0 0 0z m-357 0c0 0-215 0-215 0 0 0 0 214 0 214 0 0 215 0 215 0 0 0 0-214 0-214 0 0 0 0 0 0z" horiz-adv-x="1000" />

<glyph glyph-name="search-security" unicode="&#xe843;" d="M414 105c183 0 331 148 331 331 0 182-148 331-331 331-182 0-331-149-331-331 0-183 149-331 331-331m0-83c-229 0-414 186-414 414 0 229 185 414 414 414 229 0 414-185 414-414 0-228-185-414-414-414 0 0 0 0 0 0z m207 149c0 0 295-296 295-296 0 0 59 59 59 59 0 0-295 295-295 295" horiz-adv-x="1000" />

<glyph glyph-name="side-crm-active" unicode="&#xe844;" d="M931-88c-29 143-155 251-306 251 0 0-250 0-250 0-151 0-277-108-306-251 0 0 862 0 862 0m69-62c0 0-1000 0-1000 0 0 207 168 375 375 375 0 0 250 0 250 0 207 0 375-168 375-375 0 0 0 0 0 0z m-500 563c103 0 188 84 188 187 0 103-85 188-188 188-103 0-187-85-187-188 0-103 84-187 187-187m0-63c-138 0-250 112-250 250 0 138 112 250 250 250 138 0 250-112 250-250 0-138-112-250-250-250 0 0 0 0 0 0z" horiz-adv-x="1000" />

<glyph glyph-name="shadow-nav-active" unicode="&#xe845;" d="M1067-83c0 0 0 866 0 866 0 0-267 0-267 0 0 0-200 0-200 0 0 0-267 0-267 0 0 0-266 0-266 0 0 0 0-866 0-866 0 0 200 0 200 0 0 0 200 0 200 0 0 0 103 0 103 0 0 0 97 0 97 0 0 0 200 0 200 0 0 0 200 0 200 0 0 0 0 0 0 0m0-67c0 0-200 0-200 0 0 0-200 0-200 0 0 0-97 0-97 0 0 0-7 0-7 0 0 0-96 0-96 0 0 0-200 0-200 0 0 0-200 0-200 0-36 0-67 30-67 67 0 0 0 866 0 866 0 37 31 67 67 67 0 0 266 0 266 0 0 0 267 0 267 0 0 0 200 0 200 0 0 0 267 0 267 0 36 0 66-30 66-67 0 0 0-866 0-866 0-37-30-67-66-67 0 0 0 0 0 0z m-534 933c0 0 67 0 67 0 0 0 0-866 0-866 0 0-67 0-67 0 0 0 0 866 0 866m-333-266c0 0 0 66 0 66 0 0 200 0 200 0 0 0 0-66 0-66 0 0-200 0-200 0m0-200c0 0 0 66 0 66 0 0 200 0 200 0 0 0 0-66 0-66 0 0-200 0-200 0m0-200c0 0 0 66 0 66 0 0 200 0 200 0 0 0 0-66 0-66 0 0-200 0-200 0m667 66c0 0 0-66 0-66m0 466c0 0 0-66 0-66m-14-400c0 0-44 0-44 0 0 0 0 56 0 56-29 1-58 10-76 22 0 0 14 54 14 54 18-11 44-22 72-22 33 0 48 20 48 44 0 25-14 42-56 61-44 23-74 49-74 98 0 48 28 85 76 97 0 0 0 56 0 56 0 0 44 0 44 0 0 0 0-52 0-52 29 0 50-9 65-17 0 0-14-54-14-54-13 7-35 18-61 18-31 0-46-21-46-39 0-23 19-37 55-56 53-26 77-54 77-105 0-50-29-91-80-101 0 0 0-60 0-60z" horiz-adv-x="6600" />

<glyph glyph-name="side-dashboard-active" unicode="&#xe846;" d="M938-88c0 0 0 0 0 0 0 0 0 313 0 313 0 0-313 0-313 0 0 0 0-313 0-313 0 0 313 0 313 0m-563 0c0 0 0 0 0 0 0 0 0 313 0 313 0 0-312 0-312 0 0 0 0-313 0-313 0 0 312 0 312 0m563 563c0 0 0 0 0 0 0 0 0 313 0 313 0 0-313 0-313 0 0 0 0-313 0-313 0 0 313 0 313 0m-563 0c0 0 0 0 0 0 0 0 0 313 0 313 0 0-312 0-312 0 0 0 0-313 0-313 0 0 312 0 312 0m563-625c0 0-313 0-313 0-34 0-62 28-62 62 0 0 0 313 0 313 0 34 28 63 62 63 0 0 313 0 313 0 34 0 62-29 62-63 0 0 0-313 0-313 0-34-28-62-62-62 0 0 0 0 0 0z m-563 0c0 0-312 0-312 0-35 0-63 28-63 62 0 0 0 313 0 313 0 34 28 63 63 63 0 0 312 0 312 0 34 0 63-29 63-63 0 0 0-313 0-313 0-34-29-62-63-62 0 0 0 0 0 0z m563 563c0 0-313 0-313 0-34 0-62 28-62 62 0 0 0 313 0 313 0 34 28 62 62 62 0 0 313 0 313 0 34 0 62-28 62-62 0 0 0-313 0-313 0-34-28-62-62-62 0 0 0 0 0 0z m-563 0c0 0-312 0-312 0-35 0-63 28-63 62 0 0 0 313 0 313 0 34 28 62 63 62 0 0 312 0 312 0 34 0 63-28 63-62 0 0 0-313 0-313 0-34-29-62-63-62 0 0 0 0 0 0z" horiz-adv-x="1000" />

<glyph glyph-name="side-dashboard" unicode="&#xe847;" d="M938-150c0 0-313 0-313 0-34 0-62 28-62 62 0 0 0 313 0 313 0 34 28 63 62 63 0 0 313 0 313 0 34 0 62-29 62-63 0 0 0-313 0-313 0-34-28-62-62-62z m0 563c0 0-313 0-313 0-34 0-62 28-62 62 0 0 0 313 0 313 0 34 28 62 62 62 0 0 313 0 313 0 34 0 62-28 62-62 0 0 0-313 0-313 0-34-28-62-62-62z m-563-563c0 0-312 0-312 0-35 0-63 28-63 62 0 0 0 313 0 313 0 34 28 63 63 63 0 0 312 0 312 0 34 0 63-29 63-63 0 0 0-313 0-313 0-34-29-62-63-62z m0 563c0 0-312 0-312 0-35 0-63 28-63 62 0 0 0 313 0 313 0 34 28 62 63 62 0 0 312 0 312 0 34 0 63-28 63-62 0 0 0-313 0-313 0-34-29-62-63-62z m563-501c0 0 0 0 0 0 0 0 0 313 0 313 0 0-313 0-313 0 0 0 0-313 0-313 0 0 313 0 313 0m-563 0c0 0 0 0 0 0 0 0 0 313 0 313 0 0-312 0-312 0 0 0 0-313 0-313 0 0 312 0 312 0m563 563c0 0 0 0 0 0 0 0 0 313 0 313 0 0-313 0-313 0 0 0 0-313 0-313 0 0 313 0 313 0m-563 0c0 0 0 0 0 0 0 0 0 313 0 313 0 0-312 0-312 0 0 0 0-313 0-313 0 0 312 0 312 0m563-625c0 0-313 0-313 0-34 0-62 28-62 62 0 0 0 313 0 313 0 34 28 63 62 63 0 0 313 0 313 0 34 0 62-29 62-63 0 0 0-313 0-313 0-34-28-62-62-62 0 0 0 0 0 0z m-563 0c0 0-312 0-312 0-35 0-63 28-63 62 0 0 0 313 0 313 0 34 28 63 63 63 0 0 312 0 312 0 34 0 63-29 63-63 0 0 0-313 0-313 0-34-29-62-63-62 0 0 0 0 0 0z m563 563c0 0-313 0-313 0-34 0-62 28-62 62 0 0 0 313 0 313 0 34 28 62 62 62 0 0 313 0 313 0 34 0 62-28 62-62 0 0 0-313 0-313 0-34-28-62-62-62 0 0 0 0 0 0z m-563 0c0 0-312 0-312 0-35 0-63 28-63 62 0 0 0 313 0 313 0 34 28 62 63 62 0 0 312 0 312 0 34 0 63-28 63-62 0 0 0-313 0-313 0-34-29-62-63-62 0 0 0 0 0 0z" horiz-adv-x="1000" />

<glyph glyph-name="side-oms-active" unicode="&#xe848;" d="M500 239c0 0 0 55 0 55 0 0 389 0 389 0 0 0 0-55 0-55 0 0-389 0-389 0m333 55c0 0 56 0 56 0 0 0 0-166 0-166 0 0-56 0-56 0 0 0 0 166 0 166m56-111c0 0 0-55 0-55 0 0-389 0-389 0 0 0 0 55 0 55 0 0 389 0 389 0m0 56c0 0 0 55 0 55 0 0 0 0 0 0 0 0 0-55 0-55 0 0 0 0 0 0z m0 55c0 0-56 0-56 0 0 0 56 0 56 0 0 0 0 0 0 0 0 0 0 0 0 0z m0-166c0 0 0 55 0 55 0 0 0-55 0-55 0 0 0 0 0 0z m0 0c0 0-56 0-56 0 0 0 56 0 56 0 0 0 0 0 0 0z m-389 166c0 0 0-55 0-55 0 0-222 0-222 0 0 0 222-222 222-222 0 0 0 111 0 111 0 0 56 0 56 0 0 0 0-111 0-111 0 0 0-134 0-134 0 0-95 94-95 94 0 0-223 222-223 222 0 0-94 95-94 95 0 0 134 0 134 0 0 0 222 0 222 0m-111 167c0 0 0-55 0-55 0 0-389 0-389 0 0 0 0 55 0 55 0 0 389 0 389 0m-333-55c0 0-56 0-56 0 0 0 0 166 0 166 0 0 56 0 56 0 0 0 0-166 0-166m-56 111c0 0 0 55 0 55 0 0 389 0 389 0 0 0 0-55 0-55 0 0-389 0-389 0m56-111c0 0-56 0-56 0 0 0 0 0 0 0 0 0 56 0 56 0 0 0 0 0 0 0z m-56 0c0 0 0 55 0 55 0 0 0-55 0-55 0 0 0 0 0 0z m0 111c0 0 0 55 0 55 0 0 56 0 56 0 0 0-56 0-56 0 0 0 0-55 0-55 0 0 0 0 0 0z m389-111c0 0 0 55 0 55 0 0 222 0 222 0 0 0-222 222-222 222 0 0 0-111 0-111 0 0-56 0-56 0 0 0 0 111 0 111 0 0 0 134 0 134 0 0 95-94 95-94 0 0 223-222 223-222 0 0 94-95 94-95 0 0-134 0-134 0 0 0-222 0-222 0" horiz-adv-x="889" />

<glyph glyph-name="side-oms" unicode="&#xe849;" d="M500 239c0 0 0 55 0 55 0 0 389 0 389 0 0 0 0-55 0-55 0 0-389 0-389 0m333 55c0 0 56 0 56 0 0 0 0-166 0-166 0 0-56 0-56 0 0 0 0 166 0 166m56-111c0 0 0-55 0-55 0 0-389 0-389 0 0 0 0 55 0 55 0 0 389 0 389 0m0 56c0 0 0 55 0 55 0 0 0 0 0 0 0 0 0-55 0-55 0 0 0 0 0 0z m0 55c0 0-56 0-56 0 0 0 56 0 56 0 0 0 0 0 0 0 0 0 0 0 0 0z m0-166c0 0 0 55 0 55 0 0 0-55 0-55 0 0 0 0 0 0z m0 0c0 0-56 0-56 0 0 0 56 0 56 0 0 0 0 0 0 0z m-389 166c0 0 0-55 0-55 0 0-222 0-222 0 0 0 222-222 222-222 0 0 0 111 0 111 0 0 56 0 56 0 0 0 0-111 0-111 0 0 0-134 0-134 0 0-95 94-95 94 0 0-223 222-223 222 0 0-94 95-94 95 0 0 134 0 134 0 0 0 222 0 222 0m-111 167c0 0 0-55 0-55 0 0-389 0-389 0 0 0 0 55 0 55 0 0 389 0 389 0m-333-55c0 0-56 0-56 0 0 0 0 166 0 166 0 0 56 0 56 0 0 0 0-166 0-166m-56 111c0 0 0 55 0 55 0 0 389 0 389 0 0 0 0-55 0-55 0 0-389 0-389 0m56-111c0 0-56 0-56 0 0 0 0 0 0 0 0 0 56 0 56 0 0 0 0 0 0 0z m-56 0c0 0 0 55 0 55 0 0 0-55 0-55 0 0 0 0 0 0z m0 111c0 0 0 55 0 55 0 0 56 0 56 0 0 0-56 0-56 0 0 0 0-55 0-55 0 0 0 0 0 0z m389-56c0 0 222 0 222 0 0 0-222 222-222 222 0 0 0-111 0-111m0-166c0 0 0 55 0 55 0 0 222 0 222 0 0 0-222 222-222 222 0 0 0-111 0-111 0 0-56 0-56 0 0 0 0 111 0 111 0 0 0 134 0 134 0 0 95-94 95-94 0 0 223-222 223-222 0 0 94-95 94-95 0 0-134 0-134 0 0 0-222 0-222 0" horiz-adv-x="889" />

<glyph glyph-name="side-pl-active" unicode="&#xe84a;" d="M1000-88c0 0 0 0 0 0 0 0 0 563 0 563 0 0-125 0-125 0 0 0 0-563 0-563 0 0 125 0 125 0m-375 0c0 0 0 0 0 0 0 0 0 376 0 376 0 0-125 0-125 0 0 0 0-376 0-376 0 0 125 0 125 0m-375 0c0 0 0 0 0 0 0 0 0 188 0 188 0 0-125 0-125 0 0 0 0-188 0-188 0 0 125 0 125 0m750-62c0 0-125 0-125 0-34 0-62 28-62 62 0 0 0 563 0 563 0 34 28 63 62 63 0 0 125 0 125 0 34 0 63-29 63-63 0 0 0-563 0-563 0-34-29-62-63-62 0 0 0 0 0 0z m-375 0c0 0-125 0-125 0-34 0-62 28-62 62 0 0 0 376 0 376 0 34 28 62 62 62 0 0 125 0 125 0 34 0 63-28 63-62 0 0 0-376 0-376 0-34-29-62-63-62 0 0 0 0 0 0z m-375 0c0 0-125 0-125 0-34 0-62 28-62 62 0 0 0 188 0 188 0 34 28 63 62 63 0 0 125 0 125 0 34 0 63-29 63-63 0 0 0-188 0-188 0-34-29-62-63-62 0 0 0 0 0 0z m493 749c0 0 93 189 93 189 0 0-219 0-219 0 0 0 126-189 126-189m7-124c0 0-250 375-250 375 0 0 438 0 438 0 0 0-188-375-188-375 0 0 0 0 0 0z m-672-152c0 0 562 312 562 312 0 0-30 55-30 55 0 0-562-312-562-312" horiz-adv-x="1063" />

<glyph glyph-name="side-reconciliation-svg" unicode="&#xe84b;" d="M1000-150c0 0-857 0-857 0-94 0-143 51-143 143 0 0 0 714 0 714 0 92 49 143 143 143 0 0 214 0 214 0 94 0 143-51 143-143 0 0 0 0 0 0 0-35 35-71 71-71 0 0 429 0 429 0 94 0 143-52 143-143 0 0 0-500 0-500 0-92-49-143-143-143z m0 71c54 0 71 18 71 72 0 0 0 500 0 500 0 53-17 71-71 71 0 0-429 0-429 0-75 0-142 68-142 143 0 54-18 72-72 72 0 0-214 0-214 0-54 0-72-18-72-72 0 0 0-714 0-714 0-54 18-72 72-72 0 0 857 0 857 0m0-71c0 0-857 0-857 0-94 0-143 51-143 143 0 0 0 714 0 714 0 92 49 143 143 143 0 0 214 0 214 0 94 0 143-51 143-143 0-35 35-71 71-71 0 0 429 0 429 0 94 0 143-52 143-143 0 0 0-500 0-500 0-92-49-143-143-143 0 0 0 0 0 0z m-714 429c0 0 214-215 214-215 0 0 357 357 357 357m-596-167c0 0 239-240 239-240 0 0 382 382 382 382 0 0-50 50-50 50 0 0-332-331-332-331 0 0-189 189-189 189 0 0-50-50-50-50 0 0 0 0 0 0z" horiz-adv-x="1143" />

<glyph glyph-name="side-positions-active" unicode="&#xe84c;" d="M1000-79c54 0 71 18 71 72 0 0 0 500 0 500 0 53-17 71-71 71 0 0-429 0-429 0-75 0-142 68-142 143 0 54-18 72-72 72 0 0-214 0-214 0-54 0-72-18-72-72 0 0 0-714 0-714 0-54 18-72 72-72 0 0 857 0 857 0m0-71c0 0-857 0-857 0-94 0-143 51-143 143 0 0 0 714 0 714 0 92 49 143 143 143 0 0 214 0 214 0 94 0 143-51 143-143 0-35 35-71 71-71 0 0 429 0 429 0 94 0 143-52 143-143 0 0 0-500 0-500 0-92-49-143-143-143 0 0 0 0 0 0z" horiz-adv-x="1143" />

<glyph glyph-name="reporting-categ" unicode="&#xe84d;" d="M667-94c35 0 48 3 50 3 1 0 1 0 1-1 1 4 4 15 4 53 0 0 0 588 0 588 0 0-245 245-245 245 0 0-366 0-366 0-38 0-49-4-50-4 0 0 0 0 0 0-2-2-5-12-5-51 0 0 0-778 0-778 0-39 3-49 3-50 2 0 12-5 52-5 0 0 556 0 556 0m0-56c0 0-556 0-556 0-94 0-111 21-111 111 0 0 0 778 0 778 0 90 17 111 111 111 0 0 389 0 389 0 0 0 278-278 278-278 0 0 0-611 0-611 0-90-13-111-111-111 0 0 0 0 0 0z m55 722c0 0 0-55 0-55 0 0-166 0-166 0-39 0-65 4-82 14-27 33-30 59-30 97 0 0 0 166 0 166 0 0 56 0 56 0 0 0 0-166 0-166 0-40 4-50 4-50 2-1 11-6 52-6 0 0 166 0 166 0m-389 56c0 0 0-56 0-56 0 0-166 0-166 0 0 0 0 56 0 56 0 0 166 0 166 0m278-167c0 0 0-55 0-55 0 0-444 0-444 0 0 0 0 55 0 55 0 0 444 0 444 0m0-167c0 0 0-55 0-55 0 0-444 0-444 0 0 0 0 55 0 55 0 0 444 0 444 0m0-166c0 0 0-56 0-56 0 0-444 0-444 0 0 0 0 56 0 56 0 0 444 0 444 0" horiz-adv-x="778" />

<glyph glyph-name="remove" unicode="&#xe84e;" d="M24 708c0 0 834-834 834-834 0 0 118 118 118 118 0 0-833 834-833 834m715 0c0 0-834-834-834-834 0 0 119-118 119-118 0 0 833 834 833 834" horiz-adv-x="1000" />

<glyph glyph-name="remove-col" unicode="&#xe84f;" d="M32 660c0 0 778-778 778-778 0 0 158 158 158 158 0 0-778 778-778 778m620 0c0 0-778-778-778-778 0 0 158-158 158-158 0 0 778 778 778 778" horiz-adv-x="1000" />

<glyph glyph-name="proceeds" unicode="&#xe850;" d="M125 663c0 0 0 62 0 62 0 0 750 0 750 0 0 0 0-62 0-62 0 0-750 0-750 0m125 125c0 0 0 62 0 62 0 0 500 0 500 0 0 0 0-62 0-62 0 0-500 0-500 0m625-876c34 0 63 29 63 63 0 0 0 500 0 500 0 34-29 63-63 63 0 0-750 0-750 0-34 0-62-29-62-63 0 0 0-500 0-500 0-34 28-63 62-63 0 0 750 0 750 0m0-62c0 0-750 0-750 0-69 0-125 56-125 125 0 0 0 500 0 500 0 69 56 125 125 125 0 0 750 0 750 0 69 0 125-56 125-125 0 0 0-500 0-500 0-69-56-125-125-125 0 0 0 0 0 0z m-184 188c12 61 60 109 122 121 0 0 0 132 0 132-62 12-110 60-122 122 0 0-382 0-382 0-12-62-60-110-121-122 0 0 0-132 0-132 61-12 109-60 121-121 0 0 382 0 382 0m65-63c0 0-512 0-512 0 4 10 6 20 6 31 0 52-42 94-94 94-11 0-21-2-31-6 0 0 0 262 0 262 10-4 20-6 31-6 52 0 94 42 94 94 0 11-2 21-6 31 0 0 511 0 511 0-3-10-5-20-5-31 0-52 42-94 94-94 11 0 21 2 31 6 0 0 0-262 0-262-10 4-20 6-31 6-52 0-94-42-94-94 0-11 2-21 6-31 0 0 0 0 0 0z m-256 188c34 0 63 28 63 62 0 34-29 63-63 63-34 0-62-29-62-63 0-34 28-62 62-62m0-63c-69 0-125 56-125 125 0 69 56 125 125 125 69 0 125-56 125-125 0-69-56-125-125-125 0 0 0 0 0 0z" horiz-adv-x="1000" />

<glyph glyph-name="export-active" unicode="&#xe851;" d="M500 850c0 0 467 0 467 0 276 0 500-224 500-500 0-276-224-500-500-500 0 0-467 0-467 0-276 0-500 224-500 500 0 276 224 500 500 500z m467-933c239 0 433 194 433 433 0 239-194 433-433 433 0 0-467 0-467 0-239 0-433-194-433-433 0-239 194-433 433-433 0 0 467 0 467 0m0-67c0 0-467 0-467 0-276 0-500 224-500 500 0 276 224 500 500 500 0 0 467 0 467 0 276 0 500-224 500-500 0-276-224-500-500-500 0 0 0 0 0 0z m-295 500c-58 0-105 0-105 0 0 0 0-167 0-167 0-18 15-33 33-33 0 0 300 0 300 0 18 0 33 15 33 33 0 0 0 167 0 167 0 0-100 0-100 0m-161 33c0 0 0-33 0-33-58 0-105 0-105 0 0 0 0-167 0-167 0-18 15-33 33-33 0 0 300 0 300 0 18 0 33 15 33 33 0 0 0 167 0 167 0 0-100 0-100 0 0 0 0 33 0 33 0 0 100 0 100 0 0 0 34 0 34 0 0 0 0-33 0-33 0 0 0-167 0-167 0-36-30-66-67-66 0 0-300 0-300 0-37 0-67 30-67 66 0 0 0 167 0 167 0 0 0 33 0 33 0 0 34 0 34 0 0 0 105 0 105 0m95-166c0 0-34 0-34 0 0 0 0 233 0 233 0 0 34 0 34 0 0 0 0-233 0-233m-145 208c0 0-22 25-22 25 0 0 150 133 150 133 0 0 22-25 22-25 0 0-150-133-150-133m106 133c0 0 22 25 22 25 0 0 150-133 150-133 0 0-22-25-22-25 0 0-150 133-150 133m44 0c0 0-22 25-22 25 0 0-22-25-22-25 0 0 22 25 22 25 0 0 22-25 22-25 0 0 0 0 0 0z" horiz-adv-x="1467" />

<glyph glyph-name="live-notifications" unicode="&#xe852;" d="M947 153c-60 52-197 222-197 385 0 123-48 195-158 234-7 44-45 78-92 78-47 0-85-34-92-78-110-39-158-111-158-234 0-163-137-332-197-385-34-29-53-71-53-115 0-52 11-63 63-63 0 0 312 0 312 0 0-52 73-125 125-125 52 0 125 73 125 125 0 0 313 0 313 0 51 0 62 11 62 63 0 44-19 86-53 115z m-447-241c20 3 61 44 63 63 0 0 0 63 0 63 0 0 62 0 62 0 0 0 313 0 313 0 0 0 0 0 0 0 0 0 0 0 0 0 0 26-12 51-32 68-71 62-218 248-218 432 0 97-33 146-116 175 0 0-35 12-35 12 0 0-6 37-6 37-3 15-16 26-31 26-15 0-28-11-31-26 0 0-6-37-6-37 0 0-35-12-35-12-83-29-115-78-115-175 0-184-148-370-219-432-20-17-31-42-31-68 0 0 0 0 0 0 0 0 312 0 312 0 0 0 63 0 63 0 0 0 0-63 0-63 1-19 42-60 62-63m0-62c-52 0-125 73-125 125 0 0-312 0-312 0-52 0-63 11-63 63 0 44 19 86 53 115 60 53 197 222 197 385 0 123 48 195 158 234 7 44 45 78 92 78 47 0 85-34 92-78 110-39 158-111 158-234 0-163 137-333 197-385 34-29 53-71 53-115 0-52-11-63-62-63 0 0-313 0-313 0 0-52-73-125-125-125 0 0 0 0 0 0z" horiz-adv-x="1000" />

<glyph glyph-name="table-action" unicode="&#xe853;" d="M622 313c-20 0-37 17-37 37 0 20 17 37 37 37 20 0 37-17 37-37 0-20-17-37-37-37z m-122 0c-20 0-37 17-37 37 0 20 17 37 37 37 20 0 37-17 37-37 0-20-17-37-37-37z m-122 0c-20 0-36 17-36 37 0 20 16 37 36 37 20 0 37-17 37-37 0-20-17-37-37-37z" horiz-adv-x="1000" />

<glyph glyph-name="export" unicode="&#xe854;" d="M500 850c0 0 467 0 467 0 276 0 500-224 500-500 0-276-224-500-500-500 0 0-467 0-467 0-276 0-500 224-500 500 0 276 224 500 500 500z m467-933c239 0 433 194 433 433 0 239-194 433-433 433 0 0-467 0-467 0-239 0-433-194-433-433 0-239 194-433 433-433 0 0 467 0 467 0m0-67c0 0-467 0-467 0-276 0-500 224-500 500 0 276 224 500 500 500 0 0 467 0 467 0 276 0 500-224 500-500 0-276-224-500-500-500 0 0 0 0 0 0z m-295 500c-58 0-105 0-105 0 0 0 0-167 0-167 0-18 15-33 33-33 0 0 300 0 300 0 18 0 33 15 33 33 0 0 0 167 0 167 0 0-100 0-100 0m-161 33c0 0 0-33 0-33-58 0-105 0-105 0 0 0 0-167 0-167 0-18 15-33 33-33 0 0 300 0 300 0 18 0 33 15 33 33 0 0 0 167 0 167 0 0-100 0-100 0 0 0 0 33 0 33 0 0 100 0 100 0 0 0 34 0 34 0 0 0 0-33 0-33 0 0 0-167 0-167 0-36-30-66-67-66 0 0-300 0-300 0-37 0-67 30-67 66 0 0 0 167 0 167 0 0 0 33 0 33 0 0 34 0 34 0 0 0 105 0 105 0m61-166c0 0 0 233 0 233m34-233c0 0-34 0-34 0 0 0 0 233 0 233 0 0 34 0 34 0 0 0 0-233 0-233m-145 208c0 0-22 25-22 25 0 0 150 133 150 133 0 0 22-25 22-25 0 0-150-133-150-133m106 133c0 0 22 25 22 25 0 0 150-133 150-133 0 0-22-25-22-25 0 0-150 133-150 133m44 0c0 0-22 25-22 25 0 0-22-25-22-25 0 0 22 25 22 25 0 0 22-25 22-25 0 0 0 0 0 0z" horiz-adv-x="1467" />

<glyph glyph-name="side-risk-active" unicode="&#xe855;" d="M444-89c250 112 381 325 389 631 0 0 0 62 0 62 0 7-5 13-14 16 0 0-38 11-38 11-132 36-219 60-337 162-117-102-204-126-336-162 0 0-39-12-39-12-8-2-13-8-13-15 0 0 0-61 0-61 8-307 139-520 388-632m0-61c-301 126-435 376-444 692 0 0 0 62 0 62 0 32 22 60 54 69 157 44 237 59 357 164 10 9 21 13 33 13 13 0 24-4 34-13 120-105 200-120 356-164 33-9 55-37 55-69 0 0 0-62 0-62-9-316-143-566-445-692 0 0 0 0 0 0z" horiz-adv-x="889" />

<glyph glyph-name="risk-breaches" unicode="&#xe856;" d="M438 850c-12 0-24-4-34-13-118-105-197-120-351-164-31-9-53-37-53-69 0 0 0-62 0-62 9-316 141-566 438-692 296 126 428 376 437 692 0 0 0 62 0 62 0 32-22 60-53 69-154 44-233 59-351 164-10 9-22 13-33 13 0 0 0 0 0 0z m0-966c260 116 397 337 406 658 0 0 0 62 0 62 0 18-13 34-31 39 0 0-39 11-39 11-131 37-211 59-324 160-3 3-8 4-12 4-5 0-10-1-13-4-113-101-192-123-324-160 0 0-39-11-39-11-18-5-31-21-31-39 0 0 0-62 0-62 9-321 146-542 407-658m0-34c-297 126-429 376-438 692 0 0 0 62 0 62 0 32 22 60 53 69 154 44 233 59 351 164 10 9 22 13 34 13 11 0 23-4 33-13 118-105 197-120 351-164 31-9 53-37 53-69 0 0 0-62 0-62-9-316-141-566-437-692 0 0 0 0 0 0z m296 31c130 0 235 105 235 235 0 129-105 234-235 234-129 0-234-105-234-234 0-130 105-235 234-235m0-31c-146 0-265 119-265 266 0 146 119 265 265 265 147 0 266-119 266-265 0-147-119-266-266-266 0 0 0 0 0 0z m-1 188c25 0 47-20 48-46 1-25-19-47-45-48-26-1-47 19-48 45-1 26 19 48 45 49z m1-94c-25 0-45 19-46 45-1 26 19 48 45 49 0 0 1 0 1 0 25 0 46-20 47-46 1-25-19-47-45-48 0 0-1 0-2 0 0 0 0 0 0 0z m0 344c41 0 79-32 79-63 0-70-49-156-79-156-29 0-78 87-78 156 0 30 37 63 78 63z m0-185c17 15 47 71 47 122 0 11-21 31-47 31-25 0-46-20-46-31 0-51 30-107 46-122m0-34c-29 0-78 87-78 156 0 30 37 63 78 63 41 0 79-32 79-63 0-70-49-156-79-156 0 0 0 0 0 0z" horiz-adv-x="1000" />

<glyph glyph-name="status-ok" unicode="&#xe857;" d="M59 364c0 0 487-488 487-488 0 0 850 851 850 851 0 0-64 64-64 64 0 0-786-785-786-785 0 0-423 421-423 421 0 0-64-63-64-63 0 0 0 0 0 0z" horiz-adv-x="1455" />

<glyph glyph-name="side-menu" unicode="&#xe858;" d="M938-150c0 0-875 0-875 0-35 0-63 28-63 62 0 0 0 126 0 126 0 34 28 62 63 62 0 0 875 0 875 0 34 0 62-28 62-62 0 0 0-126 0-126 0-34-28-62-62-62z m0 750c0 0-875 0-875 0-35 0-63 28-63 63 0 0 0 125 0 125 0 34 28 62 63 62 0 0 875 0 875 0 34 0 62-28 62-62 0 0 0-125 0-125 0-35-28-63-62-63z m-875-125c0 0 500 0 500 0 34 0 62-28 62-62 0 0 0-125 0-125 0-35-28-63-62-63 0 0-500 0-500 0-35 0-63 28-63 63 0 0 0 125 0 125 0 34 28 62 63 62z m875-563c0 0 0 0 0 0 0 0 0 126 0 126 0 0-875 0-875 0 0 0 0-126 0-126 0 0 875 0 875 0m-375 376c0 0 0 0 0 0 0 0 0 125 0 125 0 0-500 0-500 0 0 0 0-125 0-125 0 0 500 0 500 0m375 375c0 0 0 0 0 0 0 0 0 125 0 125 0 0-875 0-875 0 0 0 0-125 0-125 0 0 875 0 875 0m0-813c0 0-875 0-875 0-35 0-63 28-63 62 0 0 0 126 0 126 0 34 28 62 63 62 0 0 875 0 875 0 34 0 62-28 62-62 0 0 0-126 0-126 0-34-28-62-62-62 0 0 0 0 0 0z m-375 375c0 0-500 0-500 0-35 0-63 28-63 63 0 0 0 125 0 125 0 34 28 62 63 62 0 0 500 0 500 0 34 0 62-28 62-62 0 0 0-125 0-125 0-35-28-63-62-63 0 0 0 0 0 0z m375 375c0 0-875 0-875 0-35 0-63 28-63 63 0 0 0 125 0 125 0 34 28 62 63 62 0 0 875 0 875 0 34 0 62-28 62-62 0 0 0-125 0-125 0-35-28-63-62-63 0 0 0 0 0 0z m62-437c0 0-312 187-312 187 0 0 312 188 312 188 0 0 0-375 0-375z m-62 110c0 0 0 154 0 154 0 0-129-77-129-77 0 0 129-77 129-77m62-110c0 0-312 187-312 187 0 0 312 188 312 188 0 0 0-375 0-375 0 0 0 0 0 0z" horiz-adv-x="1000" />

<glyph glyph-name="task-status-error" unicode="&#xe859;" d="M203 100c70 3 127-51 130-120 3-69-51-127-120-130-69-3-126 51-129 120-3 69 51 128 119 130z m5-250c-66 0-121 52-124 120-3 69 51 128 119 130 2 0 4 0 5 0 67 0 122-52 125-120 3-69-51-127-120-130-1 0-3 0-5 0 0 0 0 0 0 0z m0 1000c109 0 209-108 209-250 0-186-130-417-209-417-78 0-207 232-208 417-1 143 99 250 208 250z m0-576c45 41 125 191 125 326 0 52-18 99-50 132-23 22-49 35-75 35-25 0-52-13-75-35-31-32-50-80-50-132 1-135 81-284 125-326m0-91c-78 0-207 232-208 417-1 143 99 250 208 250 109 0 209-108 209-250 0-186-130-417-209-417 0 0 0 0 0 0z" horiz-adv-x="417" />

<glyph glyph-name="table-add-doc" unicode="&#xe85a;" d="M517 298c0 0-34 0-34 0 0 0 0 173 0 173 0 0 34 0 34 0 0 0 0-173 0-173m-103 69c0 0 0 35 0 35 0 0 172 0 172 0 0 0 0-35 0-35 0 0-172 0-172 0m207-138c11 0 34 23 34 35 0 0 0 227 0 227 0 0-117 118-117 118 0 0-159 0-159 0-11 0-34-23-34-35 0 0 0-310 0-310 0-12 23-35 34-35 0 0 242 0 242 0m0-34c0 0-242 0-242 0-30 0-69 38-69 69 0 0 0 310 0 310 0 31 39 69 69 69 0 0 173 0 173 0 0 0 138-138 138-138 0 0 0-241 0-241 0-31-39-69-69-69 0 0 0 0 0 0z m69 310c0 0 0-34 0-34 0 0-104 0-104 0-30 0-69 38-69 69 0 0 0 103 0 103 0 0 35 0 35 0 0 0 0-103 0-103 0-12 23-35 34-35 0 0 104 0 104 0" horiz-adv-x="1000" />

<glyph glyph-name="table-delete" unicode="&#xe85b;" d="M586 229c19 0 35 16 35 35 0 0 0 207 0 207 0 19-16 34-35 34 0 0-172 0-172 0-19 0-35-15-35-34 0 0 0-207 0-207 0-19 16-35 35-35 0 0 172 0 172 0m0-34c0 0-172 0-172 0-38 0-69 31-69 69 0 0 0 207 0 207 0 38 31 69 69 69 0 0 172 0 172 0 38 0 69-31 69-69 0 0 0-207 0-207 0-38-31-69-69-69 0 0 0 0 0 0z m-310 310c0 0 0 35 0 35 0 0 448 0 448 0 0 0 0-35 0-35 0 0-448 0-448 0m207-207c0 0-35 0-35 0 0 0 0 138 0 138 0 0 35 0 35 0 0 0 0-138 0-138m69 0c0 0-35 0-35 0 0 0 0 138 0 138 0 0 35 0 35 0 0 0 0-138 0-138m0 242c0 0 0 69 0 69 0 0-104 0-104 0 0 0 0-69 0-69 0 0 104 0 104 0m34-35c0 0-172 0-172 0 0 0 0 104 0 104 0 19 15 34 34 34 0 0 104 0 104 0 19 0 34-15 34-34 0 0 0-104 0-104 0 0 0 0 0 0z" horiz-adv-x="1000" />

<glyph glyph-name="table-edit" unicode="&#xe85c;" d="M434 264c0 0 242 241 242 241 0 0-90 90-90 90 0 0-241-242-241-242 0 0 0-89 0-89 0 0 89 0 89 0m14-35c0 0-138 0-138 0 0 0 0 138 0 138 0 0 276 276 276 276 0 0 138-138 138-138 0 0-276-276-276-276 0 0 0 0 0 0z" horiz-adv-x="1000" />

<glyph glyph-name="table-history" unicode="&#xe85d;" d="M345 436c0 0-35 0-35 0 0 114 93 207 207 207 114 0 207-93 207-207 0-114-93-207-207-207-109 0-169 71-194 138 0 0 33 12 33 12 12-34 53-115 161-115 95 0 173 77 173 172 0 95-78 173-173 173-95 0-172-78-172-173m69 35c0 0 0-35 0-35 0 0-138 0-138 0 0 0 0 35 0 35 0 0 138 0 138 0m-104-35c0 0-34 0-34 0 0 0 0 138 0 138 0 0 34 0 34 0 0 0 0-138 0-138m0 0c0 0-34 0-34 0 0 0 0 0 0 0 0 0 34 0 34 0 0 0 0 0 0 0z m-34 0c0 0 0 35 0 35 0 0 0-35 0-35 0 0 0 0 0 0z m207 104c0 0 34 0 34 0 0 0 0-138 0-138 0 0-34 0-34 0 0 0 0 138 0 138m122-179c0 0-19-28-19-28 0 0-103 69-103 69 0 0 19 28 19 28 0 0 103-69 103-69" horiz-adv-x="1000" />

<glyph glyph-name="task-results-active" unicode="&#xe85e;" d="M500-119c258 0 469 211 469 469 0 258-211 469-469 469-258 0-469-211-469-469 0-258 211-469 469-469m0-31c-276 0-500 224-500 500 0 276 224 500 500 500 276 0 500-224 500-500 0-276-224-500-500-500 0 0 0 0 0 0z m-31 406c0 0 94-93 94-93 0 0 156 187 156 187m-261-105c0 0 105-106 105-106 0 0 168 201 168 201 0 0-24 20-24 20 0 0-145-174-145-174 0 0-82 81-82 81 0 0-22-22-22-22 0 0 0 0 0 0z m230 230c0 0-219 0-219 0-17 0-31 14-31 31 0 0 0 32 0 32 0 17 14 31 31 31 0 0 219 0 219 0 17 0 31-14 31-31 0 0 0-32 0-32 0-17-14-31-31-31z m-313-312c0 0-62 0-62 0-18 0-32 14-32 31 0 0 0 31 0 31 0 17 14 31 32 31 0 0 62 0 62 0 17 0 31-14 31-31 0 0 0-31 0-31 0-17-14-31-31-31z m0 156c0 0-62 0-62 0-18 0-32 14-32 31 0 0 0 31 0 31 0 17 14 32 32 32 0 0 62 0 62 0 17 0 31-15 31-32 0 0 0-31 0-31 0-17-14-31-31-31z m0 156c0 0-62 0-62 0-18 0-32 14-32 31 0 0 0 32 0 32 0 17 14 31 32 31 0 0 62 0 62 0 17 0 31-14 31-31 0 0 0-32 0-32 0-17-14-31-31-31z m94-62c0 0 94 0 94 0 17 0 31-15 31-32 0 0 0-31 0-31 0-17-14-31-31-31 0 0-94 0-94 0-17 0-31 14-31 31 0 0 0 31 0 31 0 17 14 32 31 32z m-94-219c0 0 0 31 0 31 0 0-62 0-62 0 0 0 0-31 0-31 0 0 62 0 62 0m188 156c0 0 0 31 0 31 0 0-94 0-94 0 0 0 0-31 0-31 0 0 94 0 94 0 0 0 0 0 0 0m-188 0c0 0 0 31 0 31 0 0-62 0-62 0 0 0 0-31 0-31 0 0 62 0 62 0m313 156c0 0 0 0 0 0 0 0 0 32 0 32 0 0-219 0-219 0 0 0 0-32 0-32 0 0 219 0 219 0m-313 0c0 0 0 32 0 32 0 0-62 0-62 0 0 0 0-32 0-32 0 0 62 0 62 0m0-343c0 0-62 0-62 0-18 0-32 14-32 31 0 0 0 31 0 31 0 17 14 31 32 31 0 0 62 0 62 0 17 0 31-14 31-31 0 0 0-31 0-31 0-17-14-31-31-31 0 0 0 0 0 0z m188 156c0 0-94 0-94 0-17 0-31 14-31 31 0 0 0 31 0 31 0 17 14 32 31 32 0 0 94 0 94 0 17 0 31-15 31-32 0 0 0-31 0-31 0-17-14-31-31-31 0 0 0 0 0 0z m-188 0c0 0-62 0-62 0-18 0-32 14-32 31 0 0 0 31 0 31 0 17 14 32 32 32 0 0 62 0 62 0 17 0 31-15 31-32 0 0 0-31 0-31 0-17-14-31-31-31 0 0 0 0 0 0z m313 156c0 0-219 0-219 0-17 0-31 14-31 31 0 0 0 32 0 32 0 17 14 31 31 31 0 0 219 0 219 0 17 0 31-14 31-31 0 0 0-32 0-32 0-17-14-31-31-31 0 0 0 0 0 0z m-313 0c0 0-62 0-62 0-18 0-32 14-32 31 0 0 0 32 0 32 0 17 14 31 32 31 0 0 62 0 62 0 17 0 31-14 31-31 0 0 0-32 0-32 0-17-14-31-31-31 0 0 0 0 0 0z" horiz-adv-x="1000" />

<glyph glyph-name="task-results" unicode="&#xe85f;" d="M500-119c258 0 469 211 469 469 0 258-211 469-469 469-258 0-469-211-469-469 0-258 211-469 469-469m0-31c-276 0-500 224-500 500 0 276 224 500 500 500 276 0 500-224 500-500 0-276-224-500-500-500 0 0 0 0 0 0z m-42 395c0 0 105-106 105-106 0 0 168 201 168 201 0 0-24 20-24 20 0 0-145-174-145-174 0 0-82 81-82 81 0 0-22-22-22-22 0 0 0 0 0 0z m-83-51c0 0 0 31 0 31 0 0-62 0-62 0 0 0 0-31 0-31 0 0 62 0 62 0m188 156c0 0 0 31 0 31 0 0-94 0-94 0 0 0 0-31 0-31 0 0 94 0 94 0 0 0 0 0 0 0m-188 0c0 0 0 31 0 31 0 0-62 0-62 0 0 0 0-31 0-31 0 0 62 0 62 0m313 156c0 0 0 0 0 0 0 0 0 32 0 32 0 0-219 0-219 0 0 0 0-32 0-32 0 0 219 0 219 0m-313 0c0 0 0 32 0 32 0 0-62 0-62 0 0 0 0-32 0-32 0 0 62 0 62 0m0-343c0 0-62 0-62 0-18 0-32 14-32 31 0 0 0 31 0 31 0 17 14 31 32 31 0 0 62 0 62 0 17 0 31-14 31-31 0 0 0-31 0-31 0-17-14-31-31-31 0 0 0 0 0 0z m188 156c0 0-94 0-94 0-17 0-31 14-31 31 0 0 0 31 0 31 0 17 14 32 31 32 0 0 94 0 94 0 17 0 31-15 31-32 0 0 0-31 0-31 0-17-14-31-31-31 0 0 0 0 0 0z m-188 0c0 0-62 0-62 0-18 0-32 14-32 31 0 0 0 31 0 31 0 17 14 32 32 32 0 0 62 0 62 0 17 0 31-15 31-32 0 0 0-31 0-31 0-17-14-31-31-31 0 0 0 0 0 0z m313 156c0 0-219 0-219 0-17 0-31 14-31 31 0 0 0 32 0 32 0 17 14 31 31 31 0 0 219 0 219 0 17 0 31-14 31-31 0 0 0-32 0-32 0-17-14-31-31-31 0 0 0 0 0 0z m-313 0c0 0-62 0-62 0-18 0-32 14-32 31 0 0 0 32 0 32 0 17 14 31 32 31 0 0 62 0 62 0 17 0 31-14 31-31 0 0 0-32 0-32 0-17-14-31-31-31 0 0 0 0 0 0z" horiz-adv-x="1000" />

<glyph glyph-name="task-schedule" unicode="&#xe860;" d="M500-119c258 0 469 211 469 469 0 258-211 469-469 469-258 0-469-211-469-469 0-258 211-469 469-469m0-31c-276 0-500 224-500 500 0 276 224 500 500 500 276 0 500-224 500-500 0-276-224-500-500-500 0 0 0 0 0 0z m156 313c17 0 32 14 32 31 0 0 0 250 0 250 0 17-15 31-32 31 0 0-312 0-312 0-17 0-31-14-31-31 0 0 0-250 0-250 0-17 14-31 31-31 0 0 312 0 312 0m0-32c0 0-312 0-312 0-35 0-63 28-63 63 0 0 0 250 0 250 0 34 28 62 63 62 0 0 312 0 312 0 35 0 63-28 63-62 0 0 0-250 0-250 0-35-28-63-63-63 0 0 0 0 0 0z m-78 282c-9 0-15 6-15 15 0 0 0 125 0 125 0 9 6 16 15 16 9 0 16-7 16-16 0 0 0-125 0-125 0-9-7-15-16-15 0 0 0 0 0 0z m-156 0c-9 0-16 6-16 15 0 0 0 125 0 125 0 9 7 16 16 16 9 0 16-7 16-16 0 0 0-125 0-125 0-9-7-15-16-15 0 0 0 0 0 0z m172-125c0 0 0 31 0 31 0 0-31 0-31 0 0 0 0-31 0-31 0 0 31 0 31 0m-156 0c0 0 0 31 0 31 0 0-32 0-32 0 0 0 0-31 0-31 0 0 32 0 32 0m187-32c0 0-94 0-94 0 0 0 0 94 0 94 0 0 94 0 94 0 0 0 0-94 0-94 0 0 0 0 0 0z m-156 0c0 0-94 0-94 0 0 0 0 94 0 94 0 0 94 0 94 0 0 0 0-94 0-94 0 0 0 0 0 0z" horiz-adv-x="1000" />

<glyph glyph-name="risk-reviewed" unicode="&#xe861;" d="M438 850c-12 0-24-4-34-13-118-105-197-120-351-164-31-9-53-37-53-69 0 0 0-62 0-62 9-316 141-566 438-692 296 126 428 376 437 692 0 0 0 62 0 62 0 32-22 60-53 69-154 44-233 59-351 164-10 9-22 13-33 13 0 0 0 0 0 0z m0-966c260 116 397 337 406 658 0 0 0 62 0 62 0 18-13 34-31 39 0 0-39 11-39 11-131 37-211 59-324 160-3 3-8 4-12 4-5 0-10-1-13-4-113-101-192-123-324-160 0 0-39-11-39-11-18-5-31-21-31-39 0 0 0-62 0-62 9-321 146-542 407-658m0-34c-297 126-429 376-438 692 0 0 0 62 0 62 0 32 22 60 53 69 154 44 233 59 351 164 10 9 22 13 34 13 11 0 23-4 33-13 118-105 197-120 351-164 31-9 53-37 53-69 0 0 0-62 0-62-9-316-141-566-437-692 0 0 0 0 0 0z m296 31c130 0 235 105 235 235 0 129-105 234-235 234-129 0-234-105-234-234 0-130 105-235 234-235m0-31c-146 0-265 119-265 266 0 146 119 265 265 265 147 0 266-119 266-265 0-147-119-266-266-266 0 0 0 0 0 0z m-126 255c0 0 17 26 17 26 0 0 94-62 94-62 0 0 125 156 125 156 0 0 24-19 24-19 0 0-125-157-125-157 0 0-18-22-18-22 0 0-23 16-23 16 0 0-94 62-94 62" horiz-adv-x="1000" />

<glyph glyph-name="filters" unicode="&#xe862;" d="M500 850c0 0 467 0 467 0 276 0 500-224 500-500 0-276-224-500-500-500 0 0-467 0-467 0-276 0-500 224-500 500 0 276 224 500 500 500z m467-933c239 0 433 194 433 433 0 239-194 433-433 433 0 0-467 0-467 0-239 0-433-194-433-433 0-239 194-433 433-433 0 0 467 0 467 0m0-67c0 0-467 0-467 0-276 0-500 224-500 500 0 276 224 500 500 500 0 0 467 0 467 0 276 0 500-224 500-500 0-276-224-500-500-500 0 0 0 0 0 0z m0 733c0 0-167-214-167-214 0 0 0-152 0-152 0 0-133-100-133-100 0 0 0 252 0 252 0 0-167 214-167 214 0 0 467 0 467 0z m-267-400c0 0 67 50 67 50 0 0 0 136 0 136 0 0 0 11 0 11 0 0 7 10 7 10 0 0 125 160 125 160 0 0-331 0-331 0 0 0 125-160 125-160 0 0 7-10 7-10 0 0 0-11 0-11 0 0 0-186 0-186m-33-66c0 0 0 252 0 252 0 0-167 214-167 214 0 0 467 0 467 0 0 0-167-214-167-214 0 0 0-152 0-152 0 0-133-100-133-100 0 0 0 0 0 0z" horiz-adv-x="1467" />

<glyph glyph-name="lookup-col" unicode="&#xe863;" d="M409 123c176 0 318 143 318 318 0 175-142 318-318 318-175 0-318-143-318-318 0-175 143-318 318-318m0-91c-226 0-409 183-409 409 0 226 183 409 409 409 227 0 409-183 409-409 0-226-182-409-409-409 0 0 0 0 0 0z m227 182c0 0 364-273 364-273m-391 236c0 0 364-273 364-273 0 0 54 73 54 73 0 0-363 273-363 273" horiz-adv-x="1091" />

<glyph glyph-name="or" unicode="&#xe864;" d="M234-150c0 0 0 1000 0 1000m16-1000c0 0-16 0-16 0 0 0 0 1000 0 1000 0 0 16 0 16 0 0 0 0-1000 0-1000m219 375c0 0 0 250 0 250 0 0-453 0-453 0 0 0 0-250 0-250 0 0 453 0 453 0m15-16c0 0-484 0-484 0 0 0 0 282 0 282 0 0 484 0 484 0 0 0 0-282 0-282 0 0 0 0 0 0z" horiz-adv-x="484" />

<glyph glyph-name="settings-active" unicode="&#xe865;" d="M500 850c0 0 467 0 467 0 276 0 500-224 500-500 0-276-224-500-500-500 0 0-467 0-467 0-276 0-500 224-500 500 0 276 224 500 500 500z m467-933c239 0 433 194 433 433 0 239-194 433-433 433 0 0-467 0-467 0-239 0-433-194-433-433 0-239 194-433 433-433 0 0 467 0 467 0m0-67c0 0-467 0-467 0-276 0-500 224-500 500 0 276 224 500 500 500 0 0 467 0 467 0 276 0 500-224 500-500 0-276-224-500-500-500 0 0 0 0 0 0z m-30 442c0 0-63 0-63 0 0 0 45-45 45-45 11-12 11-30 0-41 0 0-41-42-41-42-12-11-30-11-42 0 0 0-44 45-44 45 0 0 0-63 0-63 0-16-13-29-30-29 0 0-58 0-58 0-16 0-29 13-29 29 0 0 0 63 0 63 0 0-45-45-45-45-11-11-30-11-41 0 0 0-41 42-41 42-12 11-12 29 0 41 0 0 44 45 44 45 0 0-63 0-63 0-16 0-29 13-29 29 0 0 0 58 0 58 0 16 13 29 29 29 0 0 64 0 64 0 0 0-45 45-45 45-12 12-12 30 0 41 0 0 41 42 41 42 11 11 30 11 41 0 0 0 45-45 45-45 0 0 0 63 0 63 0 16 13 29 29 29 0 0 58 0 58 0 17 0 30-13 30-29 0 0 0-63 0-63 0 0 44 45 44 45 12 11 30 11 42 0 0 0 41-42 41-42 11-11 11-29 0-41 0 0-45-45-45-45 0 0 63 0 63 0 17 0 30-13 30-29 0 0 0-58 0-58 0-16-13-29-30-29z m-204 116c-32 0-58-26-58-58 0-32 26-58 58-58 33 0 59 26 59 58 0 32-26 58-59 58z m25-258c0 0 0 59 0 59 0 0 0 53 0 53-8-2-16-4-25-4-8 0-17 2-25 4 0 0 0-53 0-53 0 0 0-59 0-59 0 0 50 0 50 0m-148 41c0 0 41 42 41 42 0 0 38 37 38 37-15 8-27 21-36 35 0 0-37-37-37-37 0 0-42-42-42-42 0 0 36-35 36-35m247 0c0 0 35 35 35 35 0 0-41 42-41 42 0 0-38 37-38 37-8-14-20-27-35-35 0 0 37-37 37-37 0 0 42-42 42-42m76 134c0 0 0 50 0 50 0 0-59 0-59 0 0 0-52 0-52 0 2-8 3-16 3-25 0-9-1-17-3-25 0 0 52 0 52 0 0 0 59 0 59 0m-288 0c-2 8-3 16-3 25 0 9 1 17 3 25 0 0-52 0-52 0 0 0-60 0-60 0 0 0 0-50 0-50 0 0 60 0 60 0 0 0 52 0 52 0m168 70c0 0 38 37 38 37 0 0 41 42 41 42 0 0-35 35-35 35 0 0-42-42-42-42 0 0-37-37-37-37 15-8 27-21 35-35m-160 0c9 14 21 27 36 35 0 0-38 37-38 37 0 0-41 42-41 42 0 0-36-35-36-35 0 0 42-42 42-42 0 0 37-37 37-37m55 43c8 2 17 4 25 4 9 0 17-2 25-4 0 0 0 53 0 53 0 0 0 59 0 59 0 0-50 0-50 0 0 0 0-59 0-59 0 0 0-53 0-53m54-321c0 0-58 0-58 0-16 0-29 13-29 29 0 0 0 63 0 63 0 0-45-45-45-45-5-5-13-8-20-8-8 0-15 3-21 8 0 0-41 42-41 42-12 11-12 30 0 41 0 0 45 45 45 45 0 0-64 0-64 0-16 0-29 13-29 29 0 0 0 58 0 58 0 16 13 29 29 29 0 0 64 0 64 0 0 0-45 45-45 45-12 12-12 30 0 41 0 0 41 42 41 42 6 5 13 8 21 8 7 0 15-3 20-8 0 0 45-45 45-45 0 0 0 63 0 63 0 16 13 29 29 29 0 0 58 0 58 0 17 0 30-13 30-29 0 0 0-63 0-63 0 0 44 45 44 45 6 5 14 8 21 8 8 0 15-3 21-8 0 0 41-42 41-42 11-11 11-29 0-41 0 0-45-45-45-45 0 0 63 0 63 0 17 0 30-13 30-29 0 0 0-58 0-58 0-16-13-29-30-29 0 0-63 0-63 0 0 0 45-45 45-45 11-11 11-30 0-41 0 0-41-42-41-42-6-5-13-8-21-8-7 0-15 3-21 8 0 0-44 45-44 45 0 0 0-63 0-63 0-16-13-29-30-29 0 0 0 0 0 0z m-29 291c-32 0-58-26-58-58 0-32 26-58 58-58 33 0 59 26 59 58 0 32-26 58-59 58 0 0 0 0 0 0z m0-204c-80 0-146 65-146 146 0 81 66 146 146 146 81 0 146-65 146-146 0-81-65-146-146-146z m0 234c-48 0-87-40-87-88 0-48 39-87 87-87 49 0 88 39 88 87 0 48-39 88-88 88z" horiz-adv-x="1467" />

<glyph glyph-name="side-positions" unicode="&#xe866;" d="M1000-150c0 0-857 0-857 0-94 0-143 51-143 143 0 0 0 714 0 714 0 92 49 143 143 143 0 0 214 0 214 0 94 0 143-51 143-143 0 0 0 0 0 0 0-35 35-71 71-71 0 0 429 0 429 0 94 0 143-52 143-143 0 0 0-500 0-500 0-92-49-143-143-143z m0 71c54 0 71 18 71 72 0 0 0 500 0 500 0 53-17 71-71 71 0 0-429 0-429 0-75 0-142 68-142 143 0 54-18 72-72 72 0 0-214 0-214 0-54 0-72-18-72-72 0 0 0-714 0-714 0-54 18-72 72-72 0 0 857 0 857 0m0-71c0 0-857 0-857 0-94 0-143 51-143 143 0 0 0 714 0 714 0 92 49 143 143 143 0 0 214 0 214 0 94 0 143-51 143-143 0-35 35-71 71-71 0 0 429 0 429 0 94 0 143-52 143-143 0 0 0-500 0-500 0-92-49-143-143-143 0 0 0 0 0 0z" horiz-adv-x="1143" />

<glyph glyph-name="side-pricing" unicode="&#xe867;" d="M500-88c241 0 438 197 438 438 0 241-197 438-438 438-241 0-437-197-437-438 0-241 196-438 437-438m0-62c-276 0-500 224-500 500 0 276 224 500 500 500 276 0 500-224 500-500 0-276-224-500-500-500 0 0 0 0 0 0z m-375 938c0 0 0 62 0 62 0 0 250 0 250 0 0 0 0-62 0-62 0 0-250 0-250 0m188 62c0 0 62 0 62 0 0 0 0-250 0-250 0 0-62 0-62 0 0 0 0 250 0 250m62-62c0 0 0 62 0 62 0 0 0 0 0 0 0 0 0-62 0-62 0 0 0 0 0 0z m0 62c0 0-62 0-62 0 0 0 62 0 62 0 0 0 0 0 0 0 0 0 0 0 0 0z m0-812c0 0-250 0-250 0 0 0 0 62 0 62 0 0 250 0 250 0 0 0 0-62 0-62 0 0 0 0 0 0z m-187 62c0 0 0-250 0-250 0 0-63 0-63 0 0 0 0 250 0 250 0 0 63 0 63 0 0 0 0 0 0 0z m-63-62c0 0 0 62 0 62 0 0 63 0 63 0 0 0-63 0-63 0 0 0 0-62 0-62 0 0 0 0 0 0z m604 413c0 0 244-208 244-208 0 0 176 212 176 212 0 0-48 40-48 40 0 0-136-163-136-163 0 0-194 167-194 167 0 0-42-48-42-48 0 0 0 0 0 0z m-166-288c0 0 0-63 0-63m-63 63c0 0 63 0 63 0 0 0 0-63 0-63 0 0-63 0-63 0 0 0 0 63 0 63m63 437c0 0 0-62 0-62m-63 62c0 0 63 0 63 0 0 0 0-62 0-62 0 0-63 0-63 0 0 0 0 62 0 62m24-500c0 0-55 0-55 0 0 0 0 60 0 60-36 1-73 12-94 23 0 0 17 60 17 60 22-13 55-24 91-24 40 0 60 20 60 47 0 27-19 44-70 65-55 24-94 52-94 105 0 52 35 92 95 104 0 0 0 60 0 60 0 0 55 0 55 0 0 0 0-56 0-56 37-1 63-10 82-18 0 0-17-58-17-58-17 8-45 19-78 19-37 0-57-22-57-42 0-24 25-39 69-60 67-27 97-57 97-112 0-54-37-97-101-109 0 0 0-64 0-64z" horiz-adv-x="1188" />

<glyph glyph-name="side-reports" unicode="&#xe868;" d="M778-150c0 0-667 0-667 0-94 0-111 21-111 111 0 0 0 778 0 778 0 90 17 111 111 111 0 0 389 0 389 0 0 0 389-389 389-389 0 0 0-500 0-500 0-90-13-111-111-111z m0 56c35 0 48 3 50 3 1 0 1 0 1-1 2 4 4 15 4 53 0 0 0 477 0 477 0 0-356 356-356 356 0 0-366 0-366 0-38 0-49-4-50-4 0 0 0 0 0 0-2-2-5-12-5-51 0 0 0-778 0-778 0-39 3-49 3-50 2 0 12-5 52-5 0 0 667 0 667 0m0-56c0 0-667 0-667 0-94 0-111 21-111 111 0 0 0 778 0 778 0 90 17 111 111 111 0 0 389 0 389 0 0 0 389-389 389-389 0 0 0-500 0-500 0-90-13-111-111-111 0 0 0 0 0 0z m55 611c0 0 0-55 0-55 0 0-277 0-277 0-39 0-65 3-82 14-27 33-30 59-30 97 0 0 0 277 0 277 0 0 56 0 56 0 0 0 0-277 0-277 0-40 4-50 4-50 2-1 11-6 52-6 0 0 277 0 277 0m-500 167c0 0 0-56 0-56 0 0-166 0-166 0 0 0 0 56 0 56 0 0 166 0 166 0m0-167c0 0 0-55 0-55 0 0-166 0-166 0 0 0 0 55 0 55 0 0 166 0 166 0m389-167c0 0 0-55 0-55 0 0-555 0-555 0 0 0 0 55 0 55 0 0 555 0 555 0m0-166c0 0 0-56 0-56 0 0-555 0-555 0 0 0 0 56 0 56 0 0 555 0 555 0" horiz-adv-x="889" />

<glyph glyph-name="side-risk" unicode="&#xe869;" d="M444 850c-12 0-23-4-33-13-120-105-200-120-357-164-32-9-54-37-54-69 0 0 0-62 0-62 9-316 143-566 444-692 302 126 436 376 445 692 0 0 0 62 0 62 0 32-22 60-55 69-156 44-236 59-356 164-10 9-21 13-34 13 0 0 0 0 0 0z m0-939c250 112 381 325 389 631 0 0 0 62 0 62 0 7-5 13-14 16 0 0-38 11-38 11-132 36-219 60-337 162-117-102-204-126-336-162 0 0-39-12-39-12-8-2-13-8-13-15 0 0 0-61 0-61 8-307 139-520 388-632m0-61c-301 126-435 376-444 692 0 0 0 62 0 62 0 32 22 60 54 69 157 44 237 59 357 164 10 9 21 13 33 13 13 0 24-4 34-13 120-105 200-120 356-164 33-9 55-37 55-69 0 0 0-62 0-62-9-316-143-566-445-692 0 0 0 0 0 0z" horiz-adv-x="889" />

<glyph glyph-name="side-securities" unicode="&#xe86a;" d="M438 850c0 0 562-125 562-125 0 0 0-562 0-562 0 0-375-313-375-313 0 0-625 188-625 188 0 0 0 562 0 562 0 0 438 250 438 250z m173-931c0 0 327 273 327 273 0 0 0 483 0 483 0 0-490 109-490 109 0 0-385-220-385-220 0 0 0-480 0-480 0 0 548-165 548-165m14-69c0 0-625 188-625 188 0 0 0 562 0 562 0 0 438 250 438 250 0 0 562-125 562-125 0 0 0-562 0-562 0 0-375-313-375-313 0 0 0 0 0 0z m0 62c0 0-62 0-62 0 0 0 0 563 0 563 0 0 62 0 62 0 0 0 0-563 0-563m-47 561c0 0-15-60-15-60 0 0-500 125-500 125 0 0 15 60 15 60 0 0 500-125 500-125m321 238c0 0 39-48 39-48 0 0-313-250-313-250 0 0-39 48-39 48 0 0 313 250 313 250m-134-113c0 0-15-60-15-60 0 0-500 125-500 125 0 0 15 60 15 60 0 0 500-125 500-125" horiz-adv-x="1000" />

<glyph glyph-name="side-shadow" unicode="&#xe86b;" d="M1067 850c0 0-267 0-267 0 0 0-200 0-200 0 0 0-267 0-267 0 0 0-266 0-266 0-36 0-67-30-67-67 0 0 0-866 0-866 0-37 31-67 67-67 0 0 200 0 200 0 0 0 200 0 200 0 0 0 96 0 96 0 0 0 7 0 7 0 0 0 97 0 97 0 0 0 200 0 200 0 0 0 200 0 200 0 36 0 66 30 66 67 0 0 0 866 0 866 0 37-30 67-66 67z m0-933c0 0 0 866 0 866 0 0-267 0-267 0 0 0-200 0-200 0 0 0-267 0-267 0 0 0-266 0-266 0 0 0 0-866 0-866 0 0 200 0 200 0 0 0 200 0 200 0 0 0 103 0 103 0 0 0 97 0 97 0 0 0 200 0 200 0 0 0 200 0 200 0 0 0 0 0 0 0m0-67c0 0-200 0-200 0 0 0-200 0-200 0 0 0-97 0-97 0 0 0-7 0-7 0 0 0-96 0-96 0 0 0-200 0-200 0 0 0-200 0-200 0-36 0-67 30-67 67 0 0 0 866 0 866 0 37 31 67 67 67 0 0 266 0 266 0 0 0 267 0 267 0 0 0 200 0 200 0 0 0 267 0 267 0 36 0 66-30 66-67 0 0 0-866 0-866 0-37-30-67-66-67 0 0 0 0 0 0z m-467 933c0 0 0-866 0-866m-67 866c0 0 67 0 67 0 0 0 0-866 0-866 0 0-67 0-67 0 0 0 0 866 0 866m-333-200c0 0 200 0 200 0m-200-66c0 0 0 66 0 66 0 0 200 0 200 0 0 0 0-66 0-66 0 0-200 0-200 0m0-134c0 0 200 0 200 0m-200-66c0 0 0 66 0 66 0 0 200 0 200 0 0 0 0-66 0-66 0 0-200 0-200 0m0-134c0 0 200 0 200 0m-200-66c0 0 0 66 0 66 0 0 200 0 200 0 0 0 0-66 0-66 0 0-200 0-200 0m667 66c0 0 0-66 0-66m-67 66c0 0 67 0 67 0 0 0 0-66 0-66 0 0-67 0-67 0 0 0 0 66 0 66m67 400c0 0 0-66 0-66m-67 66c0 0 67 0 67 0 0 0 0-66 0-66 0 0-67 0-67 0 0 0 0 66 0 66m53-466c0 0-44 0-44 0 0 0 0 56 0 56-29 1-58 10-76 22 0 0 14 54 14 54 18-11 44-22 72-22 33 0 48 20 48 44 0 25-14 42-56 61-44 23-74 49-74 98 0 48 28 85 76 97 0 0 0 56 0 56 0 0 44 0 44 0 0 0 0-52 0-52 29 0 50-9 65-17 0 0-14-54-14-54-13 7-35 18-61 18-31 0-46-21-46-39 0-23 19-37 55-56 53-26 77-54 77-105 0-50-29-91-80-101 0 0 0-60 0-60z" horiz-adv-x="1133" />

<glyph glyph-name="support" unicode="&#xe86c;" d="M500-150c-276 0-500 224-500 500 0 276 224 500 500 500 276 0 500-224 500-500 0-276-224-500-500-500z m0 688c-104 0-187-84-187-188 0-104 83-187 187-187 104 0 188 83 188 187 0 104-84 188-188 188z m0-626c241 0 438 197 438 438 0 241-197 438-438 438-241 0-437-197-437-438 0-241 196-438 437-438m0 688c138 0 250-112 250-250 0-138-112-250-250-250-138 0-250 112-250 250 0 138 112 250 250 250m0-750c-276 0-500 224-500 500 0 276 224 500 500 500 276 0 500-224 500-500 0-276-224-500-500-500 0 0 0 0 0 0z m0 688c-104 0-187-84-187-188 0-104 83-187 187-187 104 0 188 83 188 187 0 104-84 188-188 188 0 0 0 0 0 0z m0-688c-276 0-500 224-500 500 0 276 224 500 500 500 276 0 500-224 500-500 0-276-224-500-500-500z m0 688c-104 0-187-84-187-188 0-104 83-187 187-187 104 0 188 83 188 187 0 104-84 188-188 188z m438-438c0 0-188-188-188-188 0 0-250 251-250 251 0 0-250-251-250-251 0 0-187 188-187 188 0 0 250 250 250 250 0-104 83-187 187-187 104 0 188 83 188 187 0 104-84 188-188 188 0 0 250 250 250 250 0 0 188-188 188-188 0 0-250-250-250-250 0 0 250-250 250-250z m-625 250c0 0 0 0 0 0 0 0-250 250-250 250 0 0 187 188 187 188 0 0 250-250 250-250-104 0-187-84-187-188z m437-349c0 0 99 99 99 99 0 0-130 130-130 130-23-42-57-76-99-99 0 0 130-130 130-130m-500 0c0 0 130 130 130 130-42 23-76 57-99 99 0 0-130-130-130-130 0 0 99-99 99-99m31 469c23 42 57 76 99 99 0 0-130 130-130 130 0 0-99-99-99-99 0 0 130-130 130-130m438 0c0 0 130 130 130 130 0 0-99 99-99 99 0 0-130-130-130-130 42-23 76-57 99-99m31-558c0 0-250 251-250 251 0 0-250-251-250-251 0 0-187 188-187 188 0 0 250 250 250 250 0-104 83-187 187-187 104 0 188 83 188 187 0 0 250-250 250-250 0 0-188-188-188-188 0 0 0 0 0 0z m-62 438c0 104-84 188-188 188 0 0 250 250 250 250 0 0 188-188 188-188 0 0-250-250-250-250 0 0 0 0 0 0z m-375 0c0 0-250 250-250 250 0 0 187 188 187 188 0 0 250-250 250-250-104 0-187-84-187-188 0 0 0 0 0 0z m187-438c241 0 438 197 438 438 0 241-197 438-438 438-241 0-437-197-437-438 0-241 196-438 437-438m0 688c138 0 250-112 250-250 0-138-112-250-250-250-138 0-250 112-250 250 0 138 112 250 250 250m0-750c-276 0-500 224-500 500 0 276 224 500 500 500 276 0 500-224 500-500 0-276-224-500-500-500 0 0 0 0 0 0z m0 688c-104 0-187-84-187-188 0-104 83-187 187-187 104 0 188 83 188 187 0 104-84 188-188 188 0 0 0 0 0 0z" horiz-adv-x="1000" />

<glyph glyph-name="trade-request-edit" unicode="&#xe86d;" d="M400 142c0 0 291 291 291 291 0 0-108 108-108 108 0 0-291-291-291-291 0 0 0-108 0-108 0 0 108 0 108 0m17-42c0 0-167 0-167 0 0 0 0 167 0 167 0 0 333 333 333 333 0 0 167-167 167-167 0 0-333-333-333-333 0 0 0 0 0 0z" horiz-adv-x="1000" />

<glyph glyph-name="trade-request-editing" unicode="&#xe86e;" d="M400 142c0 0 291 291 291 291 0 0-108 108-108 108 0 0-291-291-291-291 0 0 0-108 0-108 0 0 108 0 108 0m17-42c0 0-167 0-167 0 0 0 0 167 0 167 0 0 333 333 333 333 0 0 167-167 167-167 0 0-333-333-333-333 0 0 0 0 0 0z" horiz-adv-x="1000" />

<glyph glyph-name="task-schedule-active" unicode="&#xe86f;" d="M500-119c258 0 469 211 469 469 0 258-211 469-469 469-258 0-469-211-469-469 0-258 211-469 469-469m0-31c-276 0-500 224-500 500 0 276 224 500 500 500 276 0 500-224 500-500 0-276-224-500-500-500 0 0 0 0 0 0z m156 313c17 0 32 14 32 31 0 0 0 250 0 250 0 17-15 31-32 31 0 0-312 0-312 0-17 0-31-14-31-31 0 0 0-250 0-250 0-17 14-31 31-31 0 0 312 0 312 0m0-32c0 0-312 0-312 0-35 0-63 28-63 63 0 0 0 250 0 250 0 34 28 62 63 62 0 0 312 0 312 0 35 0 63-28 63-62 0 0 0-250 0-250 0-35-28-63-63-63 0 0 0 0 0 0z m-234 438c9 0 16-7 16-16 0 0 0-125 0-125 0-9-7-15-16-15-9 0-16 6-16 15 0 0 0 125 0 125 0 9 7 16 16 16z m156 0c9 0 16-7 16-16 0 0 0-125 0-125 0-9-7-15-16-15-9 0-15 6-15 15 0 0 0 125 0 125 0 9 6 16 15 16z m0-156c-9 0-15 6-15 15 0 0 0 125 0 125 0 9 6 16 15 16 9 0 16-7 16-16 0 0 0-125 0-125 0-9-7-15-16-15 0 0 0 0 0 0z m-156 0c-9 0-16 6-16 15 0 0 0 125 0 125 0 9 7 16 16 16 9 0 16-7 16-16 0 0 0-125 0-125 0-9-7-15-16-15 0 0 0 0 0 0z m109-157c0 0 0 94 0 94 0 0 94 0 94 0 0 0 0-94 0-94 0 0-94 0-94 0z m-156 94c0 0 94 0 94 0 0 0 0-94 0-94 0 0-94 0-94 0 0 0 0 94 0 94z m219-62c0 0 0 31 0 31 0 0-31 0-31 0 0 0 0-31 0-31 0 0 31 0 31 0m-156 0c0 0 0 31 0 31 0 0-32 0-32 0 0 0 0-31 0-31 0 0 32 0 32 0m187-32c0 0-94 0-94 0 0 0 0 94 0 94 0 0 94 0 94 0 0 0 0-94 0-94 0 0 0 0 0 0z m-156 0c0 0-94 0-94 0 0 0 0 94 0 94 0 0 94 0 94 0 0 0 0-94 0-94 0 0 0 0 0 0z" horiz-adv-x="1000" />

<glyph glyph-name="task-history-active" unicode="&#xe870;" d="M500-119c258 0 469 211 469 469 0 258-211 469-469 469-258 0-469-211-469-469 0-258 211-469 469-469m0-31c-276 0-500 224-500 500 0 276 224 500 500 500 276 0 500-224 500-500 0-276-224-500-500-500 0 0 0 0 0 0z m-187 500c0 121 97 219 218 219 121 0 219-98 219-219 0-121-98-219-219-219-55 0-105 21-144 54m-43 165c0 0-31 0-31 0 0 121 97 219 218 219 121 0 219-98 219-219 0-121-98-219-219-219-55 0-105 21-144 54 0 0 21 24 21 24 34-30 78-46 123-46 104 0 188 84 188 187 0 103-84 188-188 188-103 0-187-85-187-188m62 31c0 0-78-93-78-93 0 0-78 93-78 93m132 20c0 0 24-20 24-20 0 0-78-93-78-93 0 0-24 20-24 20 0 0 78 93 78 93m-30-93c0 0-24-20-24-20 0 0-78 93-78 93 0 0 24 20 24 20 0 0 78-93 78-93m-24-20c0 0 24 20 24 20 0 0-24-20-24-20 0 0 0 0 0 0z m0 0c0 0-24 20-24 20 0 0 24-20 24-20 0 0 0 0 0 0z m203 156c0 0 0-125 0-125m-31 125c0 0 31 0 31 0 0 0 0-125 0-125 0 0-31 0-31 0 0 0 0 125 0 125m125-125c0 0-125 0-125 0m125 31c0 0 0-31 0-31 0 0-125 0-125 0 0 0 0 31 0 31 0 0 125 0 125 0" horiz-adv-x="1000" />

<glyph glyph-name="mail-icon" unicode="&#xe871;" d="M1154 773l-923 0c-85 0-154-69-154-154l0-615c0-85 69-154 154-154l923 0c85 0 154 69 154 154l0 615c0 85-69 154-154 154z m-120-154l-342-284-341 284 683 0z m-803-615l0 515 412-344c15-11 32-17 49-17 18 0 35 6 50 17l412 344 0-515-923 0z" horiz-adv-x="1308" />

<glyph glyph-name="phone-icon" unicode="&#xe872;" d="M994 166l-45-137c-11-31-34-57-64-70-75-33-155-50-238-50-146 0-287 54-395 152-8 7-14 14-20 20-34 33-64 71-88 111-8 13-16 27-23 43-42 81-62 169-62 262 0 83 16 163 50 238 13 30 39 53 70 64l137 45c12 4 25 6 37 6 49 0 95-31 112-81l59-176c18-55-7-116-60-142l-42-22c10-37 31-70 59-98 28-29 61-49 98-59l22 42c20 41 61 65 105 65 12 0 25-1 37-5l176-59c62-21 96-87 75-149z m-112 37l-176 59-59-118c-98 0-186 40-249 104-64 63-104 151-104 249l118 59-59 176-136-45c-26-58-40-122-40-190 0-76 17-147 50-210 5-12 11-23 17-33 20-33 43-63 70-89 5-6 11-11 17-16 83-76 194-122 316-122 68 0 132 14 190 40l45 136z" horiz-adv-x="1059" />

<glyph glyph-name="top-score-null-flag-icon" unicode="&#xe873;" d="M792 409l87 93c32 34 41 85 24 128-17 44-57 73-102 73l-165 0c0 65-49 118-111 118l-220 0c-26 0-84 0-111 0l-55 0c-60 0-110-53-110-118l0-706c0-65 57-118 118-118l59 0c61 0 118 53 118 118l0 235 91 0c0-65 49-117 110-117l276 0c45 0 85 28 102 72 17 44 8 95-24 129l-87 93z m-586-412l-59 0 0 706 59 0 0-706z m319 235l0 118-201 0 0 353 205 0 0-118 272 0-165-176 165-177-276 0z" horiz-adv-x="912" />

<glyph glyph-name="account-active-summary-icon" unicode="&#xe874;" d="M882-91h-823c-32 0-59 26-59 59v470c0 33 27 59 59 59h294v294c0 33 26 59 59 59h470c33 0 59-26 59-59v-823c0-33-26-59-59-59z m-411 118h117v117h118l0-117h118v705h-353z m117 588h118v-118h-118z m0-236h118v-117h-118z m-470-117h117v117h-117z m0-235h117v117h-117z" horiz-adv-x="1000" />

<glyph glyph-name="active-contact-null-icon" unicode="&#xe875;" d="M743 319c46 53 75 122 75 198 0 167-136 303-303 303-167 0-303-136-303-303 0-76 29-145 76-198-149-46-258-184-258-348 0-67 55-121 122-121l606 0 121 0c67 0 121 54 121 121 0 164-108 302-257 348z m-228 380c101 0 182-82 182-182 0-101-81-182-182-182-100 0-182 81-182 182 0 100 82 182 182 182z m243-728l-606 0c0 134 108 243 242 243l242 0c134 0 243-109 243-243l-121 0z" horiz-adv-x="1000" />

<glyph glyph-name="activity-summary-graph-button" unicode="&#xe876;" d="M1530-149l759 461h788l302 316 626-325 71 134-734 380-343-352h-769l-668-406-684 790-879-612 88-123 764 532z" horiz-adv-x="4077" />

<glyph glyph-name="contact-count-icon" unicode="&#xe877;" d="M765 791l-530 0c-64 0-117-53-117-117l0-59c-33 0-59-27-59-59 0-32 26-59 59-59l0-118c-33 0-59-26-59-58 0-33 26-59 59-59l0-118c-33 0-59-26-59-59 0-32 26-58 59-58l0-59c0-65 53-118 117-118l530 0c64 0 117 53 117 118l0 706c0 64-53 117-117 117z m0-823l-530 0 0 59c33 0 59 26 59 58 0 33-26 59-59 59l0 118c33 0 59 26 59 59 0 32-26 58-59 58l0 118c33 0 59 27 59 59 0 32-26 59-59 59l0 59 530 0 0-706z" horiz-adv-x="882" />

<glyph glyph-name="contact-distribution-count-icon" unicode="&#xe878;" d="M1000 144c0 101-51 191-129 244 43 43 70 102 70 168 0 130-105 235-235 235-71 0-134-31-177-80-42 49-105 80-176 80-130 0-235-105-235-235 0-66 27-125 70-168-78-53-129-143-129-244 0-35 16-137 186-168 20-54 86-126 284-126 199 0 265 72 285 126 170 31 186 133 186 168z m-176 412c0-44-25-82-61-102-5 85-56 157-129 194 20 16 44 26 72 26 65 0 118-53 118-118z m-295-235c-64 0-117 53-117 117 0 65 53 118 117 118 65 0 118-53 118-118 0-64-53-117-118-117z m-176 353c27 0 52-10 72-26-73-37-124-109-129-194-36 20-61 58-61 102 0 65 53 118 118 118z m-108-577c-67 17-68 47-68 47 0 90 65 162 151 174 11-17 23-33 37-47-60-41-103-103-120-174z m284-129c-176 0-176 59-176 59 0 97 79 176 176 176 98 0 177-79 177-176 0 0 0-59-177-59z m285 129c-17 71-60 133-120 174 14 14 26 30 37 47 86-12 151-84 151-174 0 0-1-30-68-47z" horiz-adv-x="1000" />

<glyph glyph-name="investor-count-icon" unicode="&#xe879;" d="M751 305c44 52 73 119 73 192 0 162-132 294-295 294-162 0-294-132-294-294 0-73 29-140 73-192-144-44-249-178-249-337 0-65 53-118 118-118l588 0 117 0c65 0 118 53 118 118 0 159-105 293-249 337z m-222 369c98 0 177-79 177-177 0-98-79-176-177-176-97 0-176 78-176 176 0 98 79 177 176 177z m236-706l-588 0c0 130 105 235 235 235l235 0c130 0 235-105 235-235l-117 0z" horiz-adv-x="1000" />

<glyph glyph-name="shield-danger" unicode="&#xe87a;" d="M438-133c273 119 412 352 421 675l0 62c0 25-17 47-42 55 4-1-79 22-99 27-61 18-102 34-142 56-38 21-75 48-116 84-6 5-14 8-22 8-9 0-17-3-23-8l0 0c-40-36-77-63-115-84-41-22-82-38-143-56-20-6-103-29-99-27-25-8-42-30-42-55l0-62c9-323 148-556 422-675z m311 139c-17 0-31-15-30-32 1-17 15-31 32-30 18 0 31 15 30 32 0 17-15 31-32 30m-46 188c0-58 35-141 47-141 13 0 47 82 47 141 0 23-24 47-47 47-23 0-47-25-47-47z" horiz-adv-x="1000" />

<glyph glyph-name="globe" unicode="&#xe87b;" d="M429 779q116 0 215-58t156-156 57-215-57-215-156-156-215-58-216 58-155 156-58 215 58 215 155 156 216 58z m153-291q-2-1-6-5t-7-6q1 0 2 3t3 6 2 4q3 4 12 8 8 4 29 7 19 5 29-6-1 1 5 7t8 7q2 1 8 3t9 4l1 12q-7-1-10 4t-3 12q0-2-4-5 0 4-2 5t-7-1-5-1q-5 2-8 5t-5 9-2 8q-1 3-5 6t-5 6q-1 1-2 3t-1 4-3 3-3 1-4-3-4-5-2-3q-2 1-4 1t-2-1-3-1-3-2q-1-2-4-2t-5-1q8 3-1 6-5 2-9 2 6 2 5 6t-5 8h3q-1 2-5 5t-10 5-7 3q-5 3-19 5t-18 1q-3-4-3-6t2-8 2-7q1-3-3-7t-3-7q0-4 7-9t6-12q-2-4-9-9t-9-6q-3-5-1-11t6-9q1-1 1-2t-2-3-3-2-4-2l-1-1q-7-3-12 3t-7 15q-4 14-9 17-13 4-16-1-3 7-23 15-14 5-33 2 4 0 0 8-4 9-10 7 1 3 2 10t0 7q2 8 7 13 1 1 4 5t5 7 1 4q19-3 28 6 2 3 6 9t6 10q5 3 8 3t8-3 8-3q8-1 8 6t-4 11q7 0 2 10-2 4-5 5-6 2-15-3-4-2 2-4-1 0-6-6t-9-10-9 3q0 0-3 7t-5 8q-5 0-9-9 1 5-6 9t-14 4q11 7-4 15-4 3-12 3t-11-2q-2-4-3-7t3-4 6-3 6-2 5-2q8-6 5-8-1 0-5-2t-6-2-4-2q-1-3 0-8t-1-8q-3 3-5 10t-4 9q4-5-14-3l-5 0q-3 0-9-1t-12-1-7 5q-3 4 0 11 0 2 2 1-2 2-6 5t-6 5q-25-8-52-23 3 0 6 1 3 1 8 4t5 3q19 7 24 4l3 2q7-9 11-14-4 3-17 1-11-3-12-7 4-6 2-10-2 2-6 6t-8 6-8 3q-9 0-13-1-81-45-131-124 4-4 7-4 2-1 3-5t1-6 6 1q5-4 2-10 1 0 25-15 10-10 11-12 2-6-5-10-1 1-5 5t-5 2q-2-3 0-10t6-7q-4 0-5-9t-2-20 0-13l1-1q-2-6 3-19t12-11q-7-1 11-24 3-4 4-5 2-1 7-4t9-6 5-5q2-3 6-13t8-13q-2-3 5-11t6-13q-1 0-2-1t-1 0q2-4 9-8t8-7q1-2 1-6t2-6 4-1q2 11-13 35-8 13-9 16-2 2-4 8t-2 8q1 0 3 0t5-2 4-3 1-1q-1-4 1-10t7-10 10-11 6-7q4-4 8-11t0-8q5 0 11-5t10-11q3-5 4-15t3-13q1-4 5-8t7-5l9-5t7-3q3-2 10-6t12-7q6-2 9-2t8 1 8 2q8 1 16-8t12-12q20-10 30-6-1 0 1-4t4-9 5-8 3-5q3-3 10-8t10-8q4 2 4 5-1-5 4-11t10-6q8 2 8 18-17-8-27 10 0 0-2 3t-2 5-1 4 0 5 2 1q5 0 6 2t-1 7-2 8q-1 4-6 11t-7 8q-3-5-9-4t-9 5q0-1-1-3t-1-4q-7 0-8 0 1 2 1 10t2 13q1 2 3 6t5 9 2 7-3 5-9 1q-11 0-15-11-1-2-2-6t-2-6-5-4q-4-2-14-1t-13 3q-8 4-13 16t-5 20q0 6 1 15t2 14-3 14q2 1 5 5t5 6q2 1 3 1t3 0 2 1 1 3q0 1-2 2-1 1-2 1 4-1 16 1t15-1q9-6 12 1 0 1-1 6t0 7q3-15 16-5 2-1 9-3t9-2q2-1 4-3t3-3 3 0 5 4q5-8 7-13 6-23 10-25 4-2 6-1t3 5 0 8-1 7l-1 5v10l0 4q-8 2-10 7t0 10 9 10q0 1 4 2t9 4 7 4q12 11 8 20 4 0 6 5 0 0-2 2t-5 2-2 2q5 2 1 8 3 2 4 7t4 5q5-6 12-1 5 5 1 9 2 4 11 6t10 5q4-1 5 1t0 7 2 7q2 2 9 5t7 2l9 7q2 2 0 2 10-1 18 6 5 6-4 11 2 4-1 5t-9 4q2 0 7 0t5 1q9 5-3 9-10 2-24-7z m-91-490q115 21 195 106-1 2-7 2t-7 2q-10 4-13 5 1 4-1 7t-5 5-7 5-6 4q-1 1-4 3t-4 3-4 2-5 2-5-1l-2-1q-2 0-3-1t-3-2-2-1 0-2q-12 10-20 13-3 0-6 3t-6 4-6 0-6-3q-3-3-4-9t-1-7q-4 3 0 10t1 10q-1 3-6 2t-6-2-7-5-5-3-4-3-5-5q-2-2-4-6t-2-6q-1 2-7 3t-5 3q1-5 2-19t3-22q4-17-7-26-15-14-16-23-2-12 7-14 0-4-5-12t-4-12q0-3 2-9z" horiz-adv-x="857.1" />

<glyph glyph-name="shield-success" unicode="&#xe87c;" d="M438-133c273 119 412 352 421 675l0 62c0 25-17 47-42 55 4-1-79 22-99 27-61 18-102 34-142 56-38 21-75 48-116 84-6 5-14 8-22 8-9 0-17-3-23-8l0 0c-40-36-77-63-115-84-41-22-82-38-143-56-20-6-103-29-99-27-25-8-42-30-42-55l0-62c9-323 148-556 422-675z" horiz-adv-x="1000" />

<glyph glyph-name="action-dismiss" unicode="&#xe87d;" d="M563 350l145-146-62-62-146 145-146-145-62 62 145 146-145 146 62 62 146-145 146 145 62-62-145-146z" horiz-adv-x="1000" />

<glyph glyph-name="action-run" unicode="&#xe87e;" d="M375 526l0-352 294 176-294 176z" horiz-adv-x="1000" />

<glyph glyph-name="ai-icon" unicode="&#xe87f;" d="M923 241c9 0 16-7 16-16 0-9-7-17-16-17-9 0-17 8-17 17 0 9 8 16 17 16m-701 551c-6 7-6 17 0 24 3 3 8 5 12 5 4 0 8-2 12-5 6-7 6-17 0-24-7-6-17-6-24 0m403-3c9 0 17-7 17-16 0-9-8-17-17-17-9 0-16 8-16 17 0 9 7 16 16 16m317-161c3 3 8 5 12 5 5 0 9-2 12-5 3-3 5-7 5-12 0-4-2-8-5-12-3-3-7-4-12-4-4 0-9 1-12 4-3 4-5 8-5 12 0 5 2 9 5 12m43-263l-235 0 0 33 63 0c8 0 15 7 15 15 0 8-7 14-15 14l-63 0 0 34 44 0c16 0 32 6 43 18l97 96c6-3 13-5 20-5 12 0 24 5 33 14 8 8 13 20 13 32 0 12-5 24-13 33-9 8-21 13-33 13-12 0-24-5-32-13-9-9-14-21-14-33 0-7 2-14 5-20l-96-97c-7-6-15-9-23-9l-44 0 0 32c0 43-35 78-78 78l-32 0 0 129c18 6 31 24 31 44 0 25-20 46-46 46-25 0-46-21-46-46 0-20 13-38 32-44l0-129-34 0 0 63c0 8-6 15-14 15-8 0-15-7-15-15l0-63-33 0 0 235c0 8-7 15-15 15-8 0-15-7-15-15l0-235-33 0 0 63c0 8-6 15-15 15-8 0-14-7-14-15l0-63-34 0 0 44c0 16-6 32-18 43l-96 97c9 17 6 38-9 53-18 18-47 18-65 0-18-18-18-47 0-65 9-9 21-14 33-14 7 0 14 2 20 5l97-96c6-7 9-15 9-23l0-44-32 0c-7 0-13-1-19-3-8-2-13-10-11-18 2-8 10-12 18-10 4 1 8 1 12 1l344 0c27 0 48-21 48-48l0-344c0-4 0-8-1-12-2-8 2-16 10-18 2 0 3 0 4 0 6 0 12 4 14 11 2 6 3 12 3 19l0 32 129 0c6-18 24-31 44-31 25 0 46 20 46 46 0 25-21 46-46 46-20 0-38-13-44-32l-129 0 0 34 63 0c8 0 15 6 15 14 0 9-7 15-15 15l-63 0 0 33 235 0c8 0 15 7 15 15 0 8-7 15-15 15m-207-481c-7-6-17-6-24 0-6 7-6 17 0 24 4 3 8 5 12 5 4 0 9-2 12-5 6-7 6-17 0-24m-403 27c-9 0-17 7-17 16 0 9 8 17 17 17 9 0 16-8 16-17 0-9-7-16-16-16m-317 161c-3-3-8-5-12-5-4 0-9 2-12 5-3 3-5 7-5 12 0 4 2 9 5 12 3 3 8 5 12 5 4 0 9-2 12-5 3-3 5-8 5-12 0-5-2-9-5-12m19 387c-9 0-16 7-16 16 0 9 7 17 16 17 10 0 17-8 17-17 0-9-7-16-17-16m669-522l-97 97c-6 6-9 14-9 22l0 45 32 0c7 0 13 0 20 2 7 2 12 10 10 18-2 8-10 12-18 10-4-1-8-1-12-1l-344 0c-27 0-48 21-48 48l0 344c0 4 0 8 1 12 2 8-2 16-10 18-8 2-16-3-18-10-2-7-2-13-2-20l0-32-130 0c-6 18-23 31-44 31-25 0-46-20-46-46 0-25 21-46 46-46 21 0 38 13 44 32l130 0 0-34-64 0c-8 0-15-6-15-14 0-8 7-15 15-15l64 0 0-33-236 0c-8 0-15-7-15-15 0-8 7-15 15-15l236 0 0-33-64 0c-8 0-15-6-15-15 0-8 7-14 15-14l64 0 0-34-45 0c-16 0-32-6-43-18l-97-96c-6 3-13 5-20 5-12 0-24-5-32-14-9-8-14-20-14-32 0-12 5-24 14-33 8-8 20-13 32-13 12 0 24 5 33 13 8 9 13 21 13 33 0 7-2 14-5 20l97 97c6 6 14 9 22 9l45 0 0-32c0-43 34-77 77-77l32 0 0-130c-18-6-31-24-31-44 0-25 20-46 46-46 25 0 46 21 46 46 0 20-13 38-32 44l0 130 34 0 0-64c0-8 6-15 14-15 9 0 15 7 15 15l0 64 33 0 0-236c0-8 7-15 15-15 8 0 15 7 15 15l0 236 33 0 0-64c0-8 7-15 15-15 8 0 14 7 14 15l0 64 34 0 0-45c0-16 6-32 18-43l96-97c-8-17-6-38 9-53 9-9 20-13 32-13 12 0 24 4 33 13 18 18 18 47 0 65-15 15-36 18-53 9m-326 492c1 0 1 0 1 0 3 0 7 1 9 4 6 5 7 13 3 19 0 0 0 0 0 0 0 0 0 0 0 0-1 1-1 1-1 1 0 0 0 0 0 0-2 3-5 8-5 14 0 14 13 25 29 25 16 0 29-11 29-25 0-8 7-14 15-14 8 0 15 6 15 14 0 14 13 25 29 25 16 0 29-11 29-25 0-3 0-6-2-9-8-1-16-3-24-6-7-3-11-12-8-19 4-7 12-11 20-8 6 3 13 4 20 4 0 0 0 0 0 0 0 0 1 0 1 0 25 0 46-18 46-40 0-14-8-26-22-34-5-2-8-7-8-13 0-5 3-10 8-13 14-7 22-20 22-34 0-10-4-20-13-27-7 14-21 25-38 31-8 2-16-2-18-10-3-8 1-16 9-18 15-5 25-17 25-31 0-17-17-32-38-32-21 0-38 15-38 32l0 94c0 18 17 33 38 33 8 0 15 6 15 14 0 8-7 15-15 15-14 0-27-4-38-11l0 19c0 8-7 15-15 15-8 0-15-7-15-15l0-81c-5 3-10 5-16 7-8 2-16-2-18-10-3-7 2-15 9-18 15-5 25-17 25-30l0-32c0-17-17-32-38-32-21 0-38 15-38 32 0 8 3 16 9 21 6 6 6 15 0 21-6 6-15 6-21 0-3-3-6-7-9-11-9 9-14 20-14 32 0 22 17 41 41 46 8 2 13 10 11 18-2 8-9 13-17 11-10-2-19-6-27-11-5 7-8 14-8 22 0 22 21 40 46 40m-40-189l0 0c0-34 30-61 67-61 22 0 41 9 53 23 12-14 32-23 53-23 36 0 65 25 67 58 22 12 36 34 36 58 0 18-8 35-21 47 13 13 21 30 21 47 0 32-23 58-55 67 1 4 2 7 2 11 0 30-27 54-59 54-17 0-33-7-44-18-11 11-26 18-44 18-32 0-59-24-59-54 0-4 1-7 2-11-32-9-55-35-55-67 0-15 6-30 16-41-10-13-16-29-16-45 0-25 14-48 36-63" horiz-adv-x="1000" />

<glyph glyph-name="arrow-down" unicode="&#xe880;" d="M357 124l0 684 143 0 0-684 235 235 101-101-407-408-408 408 101 101 235-235z" horiz-adv-x="857" />

<glyph glyph-name="arrow-up" unicode="&#xe881;" d="M500 535l0-685-143 0 0 685-235-235-101 101 408 407 407-407-101-101-235 235z" horiz-adv-x="857" />

<glyph glyph-name="pie" unicode="&#xe882;" d="M721 48l-158 317 0 354c177-29 312-183 312-369 0-124-61-234-154-302m-221-73c-186 0-340 135-369 313l330 0 149-297c-35-10-72-16-110-16m-62 744l0-306-307 0c26 156 150 280 307 306m62 131c-276 0-500-224-500-500 0-276 224-500 500-500 276 0 500 224 500 500 0 276-224 500-500 500" horiz-adv-x="1000" />

<glyph glyph-name="flag" unicode="&#xe883;" d="M873 413l93-100c34-35 44-89 26-136-18-47-61-77-109-77h-293c-65 0-117 56-117 125h-118v-250c0-69-52-125-117-125h-59c-64 0-117 56-117 125v750c0 69 53 125 117 125h59c22 0 41-7 59-17 17 10 37 17 58 17h235c65 0 117-56 117-125h176c48 0 91-30 109-77 18-47 8-101-26-136l-93-99z m-635-438v750h-59v-750h59z m352 250h293l-176 188 176 187h-293v125h-235v-375h235v-125z" horiz-adv-x="1000" />

<glyph glyph-name="trophy" unicode="&#xe884;" d="M938 725a63 63 0 0 0 62-62v-188c0-60-47-169-212-184a314 314 0 0 0-225-185v-131h125a63 63 0 1 0 0-125h-375a63 63 0 1 0 0 125h125v131a314 314 0 0 0-226 185c-165 15-212 124-212 184v188a63 63 0 0 0 63 62h125a125 125 0 0 0 125 125h375a125 125 0 0 0 125-125h125z m-813-248c1-8 7-42 62-57v180h-62l0-123z m375-252a188 188 0 0 1 188 188v312h-375v-312a188 188 0 0 1 187-188z m313 195c55 15 62 49 62 57v123h-62v-180z" horiz-adv-x="1000" />

<glyph glyph-name="feed" unicode="&#xe885;" d="M1250 350a623 623 0 0 0-183-442l-88 88a498 498 0 0 1 146 354c0 138-56 263-146 354l88 88a623 623 0 0 0 183-442z m-250 0a374 374 0 0 0-110-265l-88 88a249 249 0 0 1 73 177 249 249 0 0 1-73 177l88 88a374 374 0 0 0 110-265z m-625 0c0-69 28-132 73-177l-88-88a374 374 0 0 0-110 265c0 104 42 197 110 265l88-88a249 249 0 0 1-73-177z m-250 0c0-138 56-263 146-354l-88-88a623 623 0 0 0-183 442 623 623 0 0 0 183 442l89-88a498 498 0 0 1-147-354z m500 125a125 125 0 1 0 0-250 125 125 0 0 0 0 250z" horiz-adv-x="1250" />

<glyph glyph-name="up-dir" unicode="&#xe886;" d="M571 171q0-14-10-25t-25-10h-500q-15 0-25 10t-11 25 11 26l250 250q10 10 25 10t25-10l250-250q10-11 10-26z" horiz-adv-x="571.4" />

<glyph glyph-name="down-dir" unicode="&#xe887;" d="M571 457q0-14-10-25l-250-250q-11-11-25-11t-25 11l-250 250q-11 11-11 25t11 25 25 11h500q14 0 25-11t10-25z" horiz-adv-x="571.4" />

<glyph glyph-name="floppy" unicode="&#xe888;" d="M214-7h429v214h-429v-214z m500 0h72v500q0 8-6 21t-11 20l-157 156q-5 6-19 12t-22 5v-232q0-22-15-38t-38-16h-322q-22 0-37 16t-16 38v232h-72v-714h72v232q0 22 16 38t37 16h465q22 0 38-16t15-38v-232z m-214 518v178q0 8-5 13t-13 5h-107q-7 0-13-5t-5-13v-178q0-7 5-13t13-5h107q7 0 13 5t5 13z m357-18v-518q0-22-15-38t-38-16h-750q-23 0-38 16t-16 38v750q0 22 16 38t38 16h517q23 0 50-12t42-26l156-157q16-15 27-42t11-49z" horiz-adv-x="857.1" />

<glyph glyph-name="mail" unicode="&#xe889;" d="M929 11v428q-18-20-39-36-149-115-238-189-28-24-46-37t-48-28-57-13h-2q-26 0-57 13t-48 28-46 37q-88 74-238 189-21 16-39 36v-428q0-7 6-13t12-5h822q7 0 12 5t6 13z m0 586v14t-1 7-1 7-3 5-5 4-8 2h-822q-7 0-12-6t-6-12q0-94 83-159 107-84 223-176 4-3 20-17t25-21 25-17 28-16 24-5h2q11 0 24 5t28 16 25 17 25 21 20 17q116 92 224 176 30 24 56 65t26 73z m71 21v-607q0-37-26-63t-63-27h-822q-36 0-63 27t-26 63v607q0 37 26 63t63 26h822q37 0 63-26t26-63z" horiz-adv-x="1000" />

<glyph glyph-name="note-1" unicode="&#xe88a;" d="M0-25l0 750q0 39 27 66t67 28l656 0q25 0 45-18l187-187q18-20 18-45l0-594q0-39-27-66t-67-28l-812 0q-39 0-67 28t-27 66z m63 0q0-14 8-23t23-8l812 0q14 0 23 8t8 23l0 563-124 0q-40 0-67 27t-27 66l0 125-625 0q-14 0-23-9t-8-22l0-750z m62 78q0 16 16 16l718 0q16 0 16-16t-16-15l-718 0q-16 0-16 15z m0 94q0 16 16 16l718 0q16 0 16-16t-16-16l-718 0q-16 0-16 16z m0 94q0 15 16 15l718 0q16 0 16-15t-16-16l-718 0q-16 0-16 16z m0 93q0 16 16 16l718 0q16 0 16-16t-16-15l-718 0q-16 0-16 15z m0 110l0 187q0 14 9 23t22 8l219 0q14 0 22-8t9-23l0-187q0-14-9-23t-22-8l-219 0q-13 0-22 8t-9 23z m63 31l156 0 0 125-156 0 0-125z m281-47q0 16 15 16l375 0q16 0 16-16t-16-15l-375 0q-15 0-15 15z m0 94q0 16 15 16l157 0q15 0 15-16t-15-16l-157 0q-15 0-15 16z m0 94q0 15 15 15l157 0q15 0 15-15t-15-16l-157 0q-15 0-15 16z m281 15q0-25 19-44t43-18l125 0-187 187 0-125z" horiz-adv-x="1000" />

</font>
</defs>
</svg>
