<?xml version="1.0" encoding="UTF-8"?>
<svg width="32px" height="32px" viewBox="0 0 32 32" version="1.1" xmlns="http://www.w3.org/2000/svg" xmlns:xlink="http://www.w3.org/1999/xlink">
    <!-- Generator: Sketch 52.5 (67469) - http://www.bohemiancoding.com/sketch -->
    <title>icon</title>
    <desc>Created with Sketch.</desc>
    <g id="Page-1" stroke="none" stroke-width="1" fill="none" fill-rule="evenodd">
        <g id="Artboard" transform="translate(-609.000000, -145.000000)">
            <g id="stats" transform="translate(109.000000, 100.000000)">
                <g id="2" transform="translate(390.000000, 0.000000)">
                    <g id="icon" transform="translate(110.000000, 45.000000)">
                        <path d="M13.9999999,31.4459736 C22.7518263,27.652389 27.2137907,20.2046938 27.499,9.865 L27.499,7.868 C27.499,7.06379935 26.952627,6.35496657 26.1520865,6.12917305 C26.2626574,6.16040526 23.6249665,5.42516106 22.9770745,5.23455527 C21.0327733,4.66255404 19.7249167,4.16385446 18.4232106,3.45093872 C17.2021559,2.78219393 16.0194771,1.92935178 14.7268933,0.774880604 C14.5267272,0.596065499 14.2684615,0.5 13.999,0.5 C13.7311303,0.5 13.4726562,0.595917406 13.2747249,0.773327402 L13.2741176,0.773870802 C11.9835031,1.92688809 10.8021566,2.77916095 9.58255331,3.44767308 C8.27882046,4.16229989 6.96901181,4.66189768 5.02110752,5.23489712 C4.37278493,5.425609 1.7288668,6.16251011 1.84653805,6.12927896 C1.04808882,6.35413867 0.5,7.06506218 0.5,7.868 L0.499810141,9.85122239 C0.785195055,20.2041248 5.24785639,27.6522559 13.9999999,31.4459736 Z" id="Clip-2" stroke="#00AAE8" fill="#E5F8FF"></path>
                        <circle id="Oval" stroke="#39BE68" fill="#E6FFEF" fill-rule="nonzero" cx="24" cy="24" r="7.5"></circle>
                        <polyline id="Path-2" stroke="#39BE68" stroke-linecap="round" fill-rule="nonzero" points="20.5 24 23 26.5 28 22"></polyline>
                    </g>
                </g>
            </g>
        </g>
    </g>
</svg>