<?xml version="1.0" encoding="UTF-8"?>
<svg width="32px" height="32px" viewBox="0 0 32 32" version="1.1" xmlns="http://www.w3.org/2000/svg" xmlns:xlink="http://www.w3.org/1999/xlink">
    <!-- Generator: Sketch 52.5 (67469) - http://www.bohemiancoding.com/sketch -->
    <title>icon</title>
    <desc>Created with Sketch.</desc>
    <defs>
        <path d="M0,2 C0,4.222 1.251,7 2,7 C2.753,7 4,4.228 4,2 C4,1.018 3.04,0 2,0 C0.955,0 0,1.039 0,2 Z" id="path-1"></path>
    </defs>
    <g id="Page-1" stroke="none" stroke-width="1" fill="none" fill-rule="evenodd">
        <g id="Artboard" transform="translate(-999.000000, -145.000000)">
            <g id="stats" transform="translate(109.000000, 100.000000)">
                <g id="3" transform="translate(780.000000, 0.000000)">
                    <g id="icon" transform="translate(110.000000, 45.000000)">
                        <path d="M13.9999999,31.4459736 C22.7518263,27.652389 27.2137907,20.2046938 27.499,9.865 L27.499,7.868 C27.499,7.06379935 26.952627,6.35496657 26.1520865,6.12917305 C26.2626574,6.16040526 23.6249665,5.42516106 22.9770745,5.23455527 C21.0327733,4.66255404 19.7249167,4.16385446 18.4232106,3.45093872 C17.2021559,2.78219393 16.0194771,1.92935178 14.7268933,0.774880604 C14.5267272,0.596065499 14.2684615,0.5 13.999,0.5 C13.7311303,0.5 13.4726562,0.595917406 13.2747249,0.773327402 L13.2741176,0.773870802 C11.9835031,1.92688809 10.8021566,2.77916095 9.58255331,3.44767308 C8.27882046,4.16229989 6.96901181,4.66189768 5.02110752,5.23489712 C4.37278493,5.425609 1.7288668,6.16251011 1.84653805,6.12927896 C1.04808882,6.35413867 0.5,7.06506218 0.5,7.868 L0.499810141,9.85122239 C0.785195055,20.2041248 5.24785639,27.6522559 13.9999999,31.4459736 Z" id="Clip-2" stroke="#00AAE8" fill="#E5F8FF"></path>
                        <circle id="Oval" stroke="#F74759" fill="#FFE6E9" fill-rule="nonzero" cx="24" cy="24" r="7.5"></circle>
                        <path d="M23.9605144,27.0005952 C23.4083859,27.0225895 22.9787295,27.4871343 23.0008147,28.0389895 C23.0228998,28.5901783 23.4880263,29.019399 24.0394856,28.9974048 C24.5916141,28.9754105 25.0212705,28.5108657 24.9991853,27.959677 C24.9777694,27.4078217 24.5119737,26.978601 23.9605144,27.0005952" id="Path" fill="#F74759"></path>
                        <g id="Group-3" transform="translate(22.000000, 19.000000)">
                            <mask id="mask-2" fill="white">
                                <use xlink:href="#path-1"></use>
                            </mask>
                            <path stroke="#F74759" d="M0.5,2 C0.5,3.8647341 1.60147203,6.5 2,6.5 C2.40198535,6.5 3.5,3.87179862 3.5,2 C3.5,1.27239939 2.7424446,0.5 2,0.5 C1.26196813,0.5 0.5,1.28362814 0.5,2 Z"></path>
                        </g>
                    </g>
                </g>
            </g>
        </g>
    </g>
</svg>