<?xml version="1.0" encoding="utf-8"?>
<svg xmlns="http://www.w3.org/2000/svg"
	xmlns:xlink="http://www.w3.org/1999/xlink"
	width="16px" height="16px" viewBox="0 0 16 16">
<g><g><circle cx="8.00" cy="8.00" r="8.00" fill="rgb(229,255,239)"/><path fillRule="evenodd" d="M 8 14C 11.31 14 14 11.31 14 8 14 4.69 11.31 2 8 2 4.69 2 2 4.69 2 8 2 11.31 4.69 14 8 14M 8 16C 3.58 16-0 12.42-0 8-0 3.58 3.58 0 8 0 12.42 0 16 3.58 16 8 16 12.42 12.42 16 8 16 8 16 8 16 8 16Z" fill="rgb(53,189,99)"/></g><path fillRule="evenodd" d="M 7 5C 7 5 9 5 9 5 9 5 9 11 9 11 9 11 7 11 7 11 7 11 7 5 7 5" fill="rgb(52,188,100)"/><path fillRule="evenodd" d="M 5 9C 5 9 5 7 5 7 5 7 11 7 11 7 11 7 11 9 11 9 11 9 5 9 5 9" fill="rgb(52,188,100)"/></g></svg>