<?xml version="1.0" encoding="utf-8"?>
<!-- Generator: Adobe Illustrator 16.0.0, SVG Export Plug-In . SVG Version: 6.00 Build 0)  -->
<!DOCTYPE svg PUBLIC "-//W3C//DTD SVG 1.1//EN" "http://www.w3.org/Graphics/SVG/1.1/DTD/svg11.dtd">
<svg version="1.1" id="Layer_1" xmlns="http://www.w3.org/2000/svg" xmlns:xlink="http://www.w3.org/1999/xlink" x="0px" y="0px"
	 width="16px" height="16px" viewBox="0 0 16 16" enable-background="new 0 0 16 16" xml:space="preserve">
<g>
	<g>
		<path style="fill:#b2bed1;" d="M14,6H2C0.896,6,0,6.896,0,8v6c0,1.104,0.896,2,2,2h12c1.104,0,2-0.896,2-2V8C16,6.896,15.104,6,14,6z M15,14
			c0,0.553-0.447,1-1,1H2c-0.552,0-1-0.447-1-1V8c0-0.553,0.448-1,1-1h12c0.553,0,1,0.447,1,1V14z M8.383,9.092
			c0.191,0,0.34,0.073,0.445,0.219c0.104,0.146,0.155,0.354,0.155,0.625h1.321c0-0.494-0.137-0.902-0.408-1.225
			C9.623,8.39,9.25,8.193,8.772,8.123v-0.84H8.151v0.824C7.656,8.154,7.261,8.32,6.964,8.605C6.667,8.891,6.519,9.254,6.519,9.693
			c0,0.264,0.042,0.487,0.125,0.672c0.083,0.186,0.203,0.348,0.36,0.488c0.156,0.141,0.342,0.265,0.559,0.371
			c0.215,0.107,0.451,0.213,0.706,0.316c0.255,0.104,0.435,0.215,0.536,0.332c0.101,0.117,0.151,0.279,0.151,0.484
			c0,0.186-0.051,0.33-0.151,0.436c-0.102,0.105-0.242,0.158-0.418,0.158c-0.243,0-0.43-0.077-0.562-0.232
			c-0.132-0.154-0.196-0.381-0.196-0.678H6.312c0,0.539,0.151,0.974,0.455,1.303c0.304,0.33,0.739,0.524,1.308,0.584v0.789h0.621
			v-0.785c0.486-0.047,0.871-0.211,1.154-0.492c0.281-0.281,0.423-0.645,0.423-1.09c0-0.263-0.044-0.488-0.132-0.676
			c-0.09-0.188-0.211-0.352-0.368-0.492c-0.155-0.141-0.342-0.266-0.556-0.377c-0.216-0.11-0.444-0.217-0.687-0.32
			c-0.242-0.103-0.418-0.211-0.526-0.324c-0.11-0.113-0.165-0.266-0.165-0.459c0-0.189,0.048-0.339,0.144-0.447
			C8.076,9.146,8.21,9.092,8.383,9.092z"/>
	</g>
</g>
<g>
	<path style="fill:#b2bed1;" d="M13,1.794l1.113,0.689L13,3.186V1.794 M12,0v5l4-2.525L12,0L12,0z"/>
</g>
<g>
	<path style="fill:#b2bed1;" d="M3,1.794v1.392L1.887,2.483L3,1.794 M4,0L0,2.475L4,5V0L4,0z"/>
</g>
<path style="fill:#b2bed1;" fill-rule="evenodd" clip-rule="evenodd" d="M6.5,2h-3C3.225,2,3,2.224,3,2.5S3.225,3,3.5,3h3C6.775,3,7,2.776,7,2.5
	S6.775,2,6.5,2z"/>
<path style="fill:#b2bed1;" fill-rule="evenodd" clip-rule="evenodd" d="M12.5,2h-3C9.225,2,9,2.224,9,2.5S9.225,3,9.5,3h3C12.775,3,13,2.776,13,2.5
	S12.775,2,12.5,2z"/>
</svg>
