<svg xmlns="http://www.w3.org/2000/svg" viewBox="0 0 15 17" width="15" height="17">
	<style>
		tspan { white-space:pre }
		.shp0 { fill: #5d4beb } 
	</style>
	<path id="icon 2" class="shp0" d="M13 1L4 1C2.9 1 2 1.9 2 3L2 4C1.45 4 1 4.45 1 5C1 5.55 1.45 6 2 6L2 8C1.45 8 1 8.45 1 9C1 9.55 1.45 10 2 10L2 12C1.45 12 1 12.45 1 13C1 13.55 1.45 14 2 14L2 15C2 16.1 2.9 17 4 17L13 17C14.1 17 15 16.1 15 15L15 3C15 1.9 14.1 1 13 1ZM13 15L4 15L4 14C4.55 14 5 13.55 5 13C5 12.45 4.55 12 4 12L4 10C4.55 10 5 9.55 5 9C5 8.45 4.55 8 4 8L4 6C4.55 6 5 5.55 5 5C5 4.45 4.55 4 4 4L4 3L13 3L13 15Z" />
</svg>