<svg xmlns="http://www.w3.org/2000/svg" viewBox="0 0 17 17" width="17" height="17">
	<style>
		tspan { white-space:pre }
		.shp0 { fill: #5d4beb } 
	</style>
	<path id="Icon 3" class="shp0" d="M17 12C17 10.28 16.13 8.75 14.8 7.86C15.54 7.13 16 6.12 16 5C16 2.79 14.21 1 12 1C10.8 1 9.73 1.53 9 2.36C8.27 1.53 7.2 1 6 1C3.79 1 2 2.79 2 5C2 6.12 2.46 7.13 3.2 7.86C1.87 8.75 1 10.28 1 12C1 12.6 1.27 14.33 4.16 14.85C4.51 15.78 5.62 17 9 17C12.38 17 13.49 15.78 13.84 14.85C16.73 14.33 17 12.6 17 12ZM14 5C14 5.75 13.58 6.39 12.97 6.73C12.88 5.29 12.01 4.06 10.78 3.44C11.12 3.17 11.53 3 12 3C13.1 3 14 3.9 14 5ZM9 9C7.9 9 7 8.1 7 7C7 5.9 7.9 5 9 5C10.1 5 11 5.9 11 7C11 8.1 10.1 9 9 9ZM6 3C6.46 3 6.88 3.17 7.22 3.44C5.99 4.06 5.12 5.29 5.03 6.73C4.42 6.39 4 5.75 4 5C4 3.9 4.9 3 6 3ZM4.16 12.81C3.02 12.52 3 12 3 12C3 10.48 4.12 9.25 5.58 9.04C5.76 9.34 5.96 9.61 6.21 9.85C5.19 10.54 4.46 11.59 4.16 12.81ZM9 15C6 15 6 14 6 14C6 12.34 7.34 11 9 11C10.66 11 12 12.34 12 14C12 14 12 15 9 15ZM13.84 12.81C13.54 11.59 12.81 10.54 11.79 9.85C12.04 9.61 12.24 9.34 12.42 9.04C13.88 9.25 15 10.48 15 12C15 12 14.98 12.52 13.84 12.81Z" />
</svg>