<?xml version="1.0" encoding="utf-8"?>
<!-- Generator: Adobe Illustrator 16.0.0, SVG Export Plug-In . SVG Version: 6.00 Build 0)  -->
<!DOCTYPE svg PUBLIC "-//W3C//DTD SVG 1.1//EN" "http://www.w3.org/Graphics/SVG/1.1/DTD/svg11.dtd">
<svg version="1.1" id="Layer_1" xmlns="http://www.w3.org/2000/svg" xmlns:xlink="http://www.w3.org/1999/xlink" x="0px" y="0px"
	 width="16px" height="16px" viewBox="0 0 16 16" enable-background="new 0 0 16 16" xml:space="preserve">
<g>
	<g>
		<path style="fill:#b2bed1;" fill-rule="evenodd" clip-rule="evenodd" d="M12,8H9v3h3V8z M11,10h-1V9h1V10z M14,2h-2V0.5C12,0.224,11.776,0,11.5,0
			S11,0.224,11,0.5V2H5V0.5C5,0.224,4.776,0,4.5,0S4,0.224,4,0.5V2H2C0.896,2,0,2.896,0,4v10c0,1.104,0.896,2,2,2h12
			c1.104,0,2-0.896,2-2V4C16,2.896,15.104,2,14,2z M15,14c0,0.553-0.447,1-1,1H2c-0.553,0-1-0.447-1-1V6h14V14z M15,5H1V4
			c0-0.552,0.447-1,1-1h12c0.553,0,1,0.448,1,1V5z M7,8H4v3h3V8z M6,10H5V9h1V10z"/>
	</g>
</g>
</svg>
