<?xml version="1.0" encoding="utf-8"?>
<svg xmlns="http://www.w3.org/2000/svg"
	xmlns:xlink="http://www.w3.org/1999/xlink"
	width="14px" height="14px" viewBox="0 0 14 14">
<g><g><rect x="0" y="2" width="14" height="12" rx="2" fill="rgb(51,67,83)"/><path fillRule="evenodd" d="M 12 13C 12.55 13 13 12.55 13 12 13 12 13 4 13 4 13 3.45 12.55 3 12 3 12 3 2 3 2 3 1.45 3 1 3.45 1 4 1 4 1 12 1 12 1 12.55 1.45 13 2 13 2 13 12 13 12 13M 12 14C 12 14 2 14 2 14 0.9 14-0 13.1-0 12-0 12-0 4-0 4-0 2.9 0.9 2 2 2 2 2 12 2 12 2 13.1 2 14 2.9 14 4 14 4 14 12 14 12 14 13.1 13.1 14 12 14 12 14 12 14 12 14Z" fill="rgb(115,133,153)"/></g><g><path fillRule="evenodd" d="M 4.5-0C 4.78-0 5 0.22 5 0.5 5 0.5 5 4.5 5 4.5 5 4.78 4.78 5 4.5 5 4.22 5 4 4.78 4 4.5 4 4.5 4 0.5 4 0.5 4 0.22 4.22-0 4.5-0ZM 9.5-0C 9.78-0 10 0.22 10 0.5 10 0.5 10 4.5 10 4.5 10 4.78 9.78 5 9.5 5 9.22 5 9 4.78 9 4.5 9 4.5 9 0.5 9 0.5 9 0.22 9.22-0 9.5-0Z" fill="rgb(51,67,83)"/><path fillRule="evenodd" d="M 9.5 5C 9.22 5 9 4.78 9 4.5 9 4.5 9 0.5 9 0.5 9 0.22 9.22-0 9.5-0 9.78-0 10 0.22 10 0.5 10 0.5 10 4.5 10 4.5 10 4.78 9.78 5 9.5 5 9.5 5 9.5 5 9.5 5ZM 4.5 5C 4.22 5 4 4.78 4 4.5 4 4.5 4 0.5 4 0.5 4 0.22 4.22-0 4.5-0 4.78-0 5 0.22 5 0.5 5 0.5 5 4.5 5 4.5 5 4.78 4.78 5 4.5 5 4.5 5 4.5 5 4.5 5Z" fill="rgb(115,133,153)"/></g><g><path fillRule="evenodd" d="M 8 10C 8 10 8 7 8 7 8 7 11 7 11 7 11 7 11 10 11 10 11 10 8 10 8 10ZM 3 7C 3 7 6 7 6 7 6 7 6 10 6 10 6 10 3 10 3 10 3 10 3 7 3 7Z" fill="rgb(51,67,83)"/><path fillRule="evenodd" d="M 10 9C 10 9 10 8 10 8 10 8 9 8 9 8 9 8 9 9 9 9 9 9 10 9 10 9M 5 9C 5 9 5 8 5 8 5 8 4 8 4 8 4 8 4 9 4 9 4 9 5 9 5 9M 11 10C 11 10 8 10 8 10 8 10 8 7 8 7 8 7 11 7 11 7 11 7 11 10 11 10 11 10 11 10 11 10ZM 6 10C 6 10 3 10 3 10 3 10 3 7 3 7 3 7 6 7 6 7 6 7 6 10 6 10 6 10 6 10 6 10Z" fill="rgb(115,133,153)"/></g></g></svg>