<?xml version="1.0" encoding="utf-8"?>
<svg xmlns="http://www.w3.org/2000/svg"
	xmlns:xlink="http://www.w3.org/1999/xlink"
	width="104px" height="104px" viewBox="0 0 104 104">
<g><g><path fillRule="evenodd" d="M 60.28 99.73C 60.28 99.73 100 74.79 100 74.79 100 74.79 100 16.21 100 16.21 100 16.21 45.66 4.24 45.66 4.24 45.66 4.24 4 28.31 4 28.31 4 28.31 4 86.81 4 86.81 4 86.81 60.28 99.73 60.28 99.73M 61 104C 61 104-0 90-0 90-0 90-0 26-0 26-0 26 45 0 45 0 45 0 104 13 104 13 104 13 104 77 104 77 104 77 61 104 61 104 61 104 61 104 61 104Z" fill="rgb(183,197,219)"/><path fillRule="evenodd" d="M 62 103C 62 103 58 103 58 103 58 103 58 38 58 38 58 38 62 38 62 38 62 38 62 103 62 103" fill="rgb(183,197,219)"/><path fillRule="evenodd" d="M 61.83 38.09C 61.83 38.09 61 42 61 42 61 42-0 29-0 29-0 29 0.83 25.09 0.83 25.09 0.83 25.09 61.83 38.09 61.83 38.09" fill="rgb(183,197,219)"/><path fillRule="evenodd" d="M 100.98 13.55C 100.98 13.55 103 17 103 17 103 17 62 41 62 41 62 41 59.98 37.55 59.98 37.55 59.98 37.55 100.98 13.55 100.98 13.55" fill="rgb(183,197,219)"/><path fillRule="evenodd" d="M 81.89 24.1C 81.89 24.1 81 28 81 28 81 28 24 15 24 15 24 15 24.89 11.1 24.89 11.1 24.89 11.1 81.89 24.1 81.89 24.1" fill="rgb(183,197,219)"/><path fillRule="evenodd" d="M 43.93 64.11C 43.93 64.11 43 68 43 68 43 68 18 62 18 62 18 62 18.93 58.11 18.93 58.11 18.93 58.11 43.93 64.11 43.93 64.11" fill="rgb(183,197,219)"/></g><g><g><circle cx="60.00" cy="88.00" r="16.00" fill="rgb(229,249,255)"/><path fillRule="evenodd" d="M 60 102C 67.72 102 74 95.72 74 88 74 80.28 67.72 74 60 74 52.28 74 46 80.28 46 88 46 95.72 52.28 102 60 102M 60 104C 51.16 104 44 96.84 44 88 44 79.16 51.16 72 60 72 68.84 72 76 79.16 76 88 76 96.84 68.84 104 60 104 60 104 60 104 60 104Z" fill="rgb(0,181,233)"/></g><path fillRule="evenodd" d="M 56.84 93C 56.84 93 64.17 85.67 64.17 85.67 64.17 85.67 62.33 83.83 62.33 83.83 62.33 83.83 55 91.16 55 91.16 55 91.16 55 93 55 93 55 93 56.84 93 56.84 93M 57.67 95C 57.67 95 53 95 53 95 53 95 53 90.33 53 90.33 53 90.33 62.33 81 62.33 81 62.33 81 67 85.67 67 85.67 67 85.67 57.67 95 57.67 95 57.67 95 57.67 95 57.67 95Z" fill="rgb(0,181,233)"/></g></g></svg>