<?xml version="1.0" encoding="utf-8"?>
<svg xmlns="http://www.w3.org/2000/svg"
	xmlns:xlink="http://www.w3.org/1999/xlink"
	width="44px" height="30px" viewBox="0 0 44 30">
<g><g><path fillRule="evenodd" d="M 15-0C 15-0 29-0 29-0 37.28-0 44 6.72 44 15 44 23.28 37.28 30 29 30 29 30 15 30 15 30 6.72 30-0 23.28-0 15-0 6.72 6.72-0 15-0Z" fill="rgb(27,37,47)"/><path fillRule="evenodd" d="M 29 28C 36.17 28 42 22.17 42 15 42 7.83 36.17 2 29 2 29 2 15 2 15 2 7.83 2 2 7.83 2 15 2 22.17 7.83 28 15 28 15 28 29 28 29 28M 29 30C 29 30 15 30 15 30 6.72 30 0 23.28 0 15 0 6.72 6.72-0 15-0 15-0 29-0 29-0 37.28-0 44 6.72 44 15 44 23.28 37.28 30 29 30 29 30 29 30 29 30Z" fill="rgb(42,56,73)"/></g><g><g><path fillRule="evenodd" d="M 20.17 15C 18.41 15 17 15 17 15 17 15 17 20 17 20 17 20.55 17.45 21 18 21 18 21 27 21 27 21 27.55 21 28 20.55 28 20 28 20 28 15 28 15 28 15 25 15 25 15" fill="rgb(43,55,71)"/><path fillRule="evenodd" d="M 20.17 14C 20.17 14 20.17 15 20.17 15 18.41 15 17 15 17 15 17 15 17 20 17 20 17 20.55 17.45 21 18 21 18 21 27 21 27 21 27.55 21 28 20.55 28 20 28 20 28 15 28 15 28 15 25 15 25 15 25 15 25 14 25 14 25 14 28 14 28 14 28 14 29 14 29 14 29 14 29 15 29 15 29 15 29 20 29 20 29 21.1 28.1 22 27 22 27 22 18 22 18 22 16.9 22 16 21.1 16 20 16 20 16 15 16 15 16 15 16 14 16 14 16 14 17 14 17 14 17 14 20.17 14 20.17 14" fill="rgb(115,133,153)"/></g><g><path fillRule="evenodd" d="M 22 19C 22 19 22 12 22 12" fill="rgb(43,55,71)"/><path fillRule="evenodd" d="M 23 19C 23 19 22 19 22 19 22 19 22 12 22 12 22 12 23 12 23 12 23 12 23 19 23 19" fill="rgb(115,133,153)"/></g><path fillRule="evenodd" d="M 18.66 12.75C 18.66 12.75 18 12 18 12 18 12 22.5 8 22.5 8 22.5 8 23.16 8.75 23.16 8.75 23.16 8.75 18.66 12.75 18.66 12.75M 21.84 8.75C 21.84 8.75 22.5 8 22.5 8 22.5 8 27 12 27 12 27 12 26.34 12.75 26.34 12.75 26.34 12.75 21.84 8.75 21.84 8.75M 23.16 8.75C 23.16 8.75 22.5 8 22.5 8 22.5 8 21.84 8.75 21.84 8.75 21.84 8.75 22.5 8 22.5 8 22.5 8 23.16 8.75 23.16 8.75 23.16 8.75 23.16 8.75 23.16 8.75Z" fill="rgb(115,133,153)"/></g></g></svg>