<?xml version="1.0" encoding="utf-8"?>
<svg xmlns="http://www.w3.org/2000/svg"
	xmlns:xlink="http://www.w3.org/1999/xlink"
	width="26px" height="32px" viewBox="0 0 26 32">
<g><g><path fillRule="evenodd" d="M 1-0C 1-0 16-0 16-0 16-0 26 10 26 10 26 10 26 31 26 31 26 31.55 25.55 32 25 32 25 32 1 32 1 32 0.45 32-0 31.55-0 31-0 31-0 1-0 1-0 0.45 0.45-0 1-0Z" fill="rgb(237,241,247)"/><path fillRule="evenodd" d="M 25 31C 25 31 25 10.41 25 10.41 25 10.41 15.59 1 15.59 1 15.59 1 1 1 1 1 1 1 1 31 1 31 1 31 25 31 25 31 25 31 25 31 25 31M 25 32C 25 32 1 32 1 32 0.45 32 0 31.55 0 31 0 31 0 1 0 1 0 0.45 0.45 0 1 0 1 0 16 0 16 0 16 0 26 10 26 10 26 10 26 31 26 31 26 31.55 25.55 32 25 32 25 32 25 32 25 32Z" fill="rgb(135,149,167)"/></g><g><path fillRule="evenodd" d="M 16-0C 16-0 26 10 26 10 26 10 16 10 16 10 16 10 16-0 16-0Z" fill="rgb(255,255,255)"/><path fillRule="evenodd" d="M 23.59 9C 23.59 9 17 2.41 17 2.41 17 2.41 17 9 17 9 17 9 23.59 9 23.59 9M 26 10C 26 10 16 10 16 10 16 10 16-0 16-0 16-0 26 10 26 10 26 10 26 10 26 10Z" fill="rgb(135,149,167)"/></g><path fillRule="evenodd" d="M 20.99 23.84C 20.98 23.86 20.97 23.87 20.97 23.88 20.91 24.43 20.64 24.9 20.24 25.12 19.18 25.69 18.18 25.32 16.81 24.18 16.27 23.72 15.68 23.14 15.25 22.76 13.42 22.88 11.17 23.22 9.18 24.16 9.1 24.67 8.72 25.84 8.16 26.72 7.22 28.18 5.05 28.73 5 26.54 4.98 25.79 5.76 24.65 6.73 24.11 7.22 23.84 7.77 23.57 8.2 23.38 8.56 21.95 9.18 19.47 9.51 17.98 9.03 17.58 7.34 16.08 7.58 14.54 7.9 12.46 10.19 12.52 10.8 14.47 11.04 15.27 10.94 16.77 10.86 17.57 11.89 18.56 13.53 20.01 15.5 21.55 16.18 21.48 17.81 21.43 19.04 21.64 20.55 21.89 21 23.05 21 23.79 21 23.79 20.99 23.84 20.99 23.84ZM 10.59 18.88C 10.59 18.88 9.68 22.7 9.68 22.7 10.16 22.52 10.77 22.28 11.52 22.1 12.34 21.9 13.22 21.8 13.85 21.73 13.85 21.73 10.59 18.88 10.59 18.88Z" fill="rgb(135,149,167)"/></g></svg>