<svg xmlns="http://www.w3.org/2000/svg" width="13" height="11" viewBox="0 0 13 11">
  <defs>
    <style>
      .cls-1 {
        fill: none;
        stroke: #8895a8;
        stroke-width: 1px;
        fill-rule: evenodd;
      }
    </style>
  </defs>
  <path id="icon" class="cls-1" d="M798.816,674.031l3.272-3.136a1.385,1.385,0,0,1,1.963,0,1.253,1.253,0,0,1,0,1.881l-4.755,4.558a3.508,3.508,0,0,1-1.832.669,2.532,2.532,0,0,1-1.745-.669,2.3,2.3,0,0,1,0-3.345l5.322-5.018a3.666,3.666,0,0,1,4.973,0,3.384,3.384,0,0,1,0,4.767l-3.752,3.6" transform="translate(-794.5 -667.5)"/>
</svg>
