<svg xmlns="http://www.w3.org/2000/svg" viewBox="0 0 17 17" width="17" height="17">
	<style>
		tspan { white-space:pre }
		.shp0 { fill: #1599ff } 
	</style>
	<path id="Icon 1" class="shp0" d="M12.76 9.26C13.52 8.39 14 7.25 14 6C14 3.24 11.76 1 9 1C6.24 1 4 3.24 4 6C4 7.25 4.48 8.39 5.24 9.26C2.79 10.02 1 12.3 1 15C1 16.1 1.9 17 3 17L13 17L15 17C16.1 17 17 16.1 17 15C17 12.3 15.21 10.02 12.76 9.26ZM9 3C10.66 3 12 4.34 12 6C12 7.66 10.66 9 9 9C7.34 9 6 7.66 6 6C6 4.34 7.34 3 9 3ZM13 15L3 15C3 12.79 4.79 11 7 11L11 11C13.21 11 15 12.79 15 15L13 15Z" />
</svg>