<svg width="20" height="20" viewBox="0 0 20 20" xmlns="http://www.w3.org/2000/svg">
    <g fill="none" fill-rule="evenodd">
        <path d="M10 0c.707 0 1.328.367 1.684.92a2 2 0 0 1 3.183 1.585 1.998 1.998 0 0 1 2.744 2.264 2 2 0 0 1 1.13 3.374 1.998 1.998 0 0 1 .338 3.541 2 2 0 0 1-1.585 3.183 1.998 1.998 0 0 1-2.263 2.744 2 2 0 0 1-3.374 1.13 1.998 1.998 0 0 1-3.541.338 2 2 0 0 1-3.183-1.585 1.998 1.998 0 0 1-2.744-2.263 2 2 0 0 1-1.13-3.374 1.998 1.998 0 0 1-.338-3.541 2 2 0 0 1 1.585-3.183A1.998 1.998 0 0 1 4.77 2.389a2 2 0 0 1 3.374-1.13A1.998 1.998 0 0 1 10 0z" fill="#168EFF"/>
        <path stroke="#FFF" stroke-width="2" stroke-linecap="round" stroke-linejoin="round" d="m6 11 3 3 5-7"/>
    </g>
</svg>
