<?xml version="1.0" encoding="utf-8"?>
<svg xmlns="http://www.w3.org/2000/svg"
	xmlns:xlink="http://www.w3.org/1999/xlink"
	width="32px" height="32px" viewBox="0 0 32 32">
<g><path fillRule="evenodd" d="M 30.3 22.29C 28.38 20.63 24 15.2 24 10 24 6.06 22.47 3.73 18.95 2.5 18.71 1.08 17.49-0 16-0 14.51-0 13.29 1.08 13.05 2.5 9.53 3.73 8 6.06 8 10 8 15.2 3.62 20.62 1.7 22.29 0.62 23.22-0 24.57-0 26-0 27.66 0.34 28 2 28 2 28 12 28 12 28 12 29.66 14.34 32 16 32 17.66 32 20 29.66 20 28 20 28 30 28 30 28 31.66 28 32 27.66 32 26 32 24.58 31.38 23.22 30.3 22.29Z" fill="rgb(255,255,255)" opacity="0.20"/><path fillRule="evenodd" d="M 16 30C 16.63 29.93 17.94 28.61 18 28 18 28 18 26 18 26 18 26 20 26 20 26 20 26 30 26 30 26 30 26 30 26 30 26 30 26 30 26 30 26 30 25.16 29.63 24.36 29 23.8 26.71 21.83 22 15.86 22 10 22 6.89 20.96 5.32 18.29 4.39 18.29 4.39 17.17 4 17.17 4 17.17 4 16.98 2.83 16.98 2.83 16.9 2.35 16.49 2 16 2 15.51 2 15.1 2.35 15.02 2.83 15.02 2.83 14.83 4 14.83 4 14.83 4 13.71 4.39 13.71 4.39 11.04 5.32 10 6.89 10 10 10 15.86 5.29 21.83 3 23.8 2.37 24.36 2 25.16 2 26 2 26 2 26 2 26 2 26 12 26 12 26 12 26 14 25.99 14 25.99 14 25.99 14 27.99 14 27.99 14.05 28.61 15.37 29.93 16 30M 16 32C 14.34 32 12 29.66 12 28 12 28 2 28 2 28 0.34 28-0 27.66-0 26-0 24.57 0.62 23.22 1.7 22.29 3.62 20.62 8 15.2 8 10 8 6.06 9.53 3.73 13.05 2.5 13.29 1.08 14.51-0 16-0 17.49-0 18.71 1.08 18.95 2.5 22.47 3.73 24 6.06 24 10 24 15.2 28.38 20.63 30.3 22.29 31.38 23.22 32 24.58 32 26 32 27.66 31.66 28 30 28 30 28 20 28 20 28 20 29.66 17.66 32 16 32 16 32 16 32 16 32Z" fill="rgb(255,255,255)"/></g></svg>