<?xml version="1.0" encoding="utf-8"?>
<svg xmlns="http://www.w3.org/2000/svg"
	xmlns:xlink="http://www.w3.org/1999/xlink"
	width="12px" height="11px" viewBox="0 0 12 11">
<g><g><circle cx="4.50" cy="4.50" r="4.50" fill="rgb(41,53,65)"/><path fillRule="evenodd" d="M 4.5 8C 6.43 8 8 6.43 8 4.5 8 2.57 6.43 1 4.5 1 2.57 1 1 2.57 1 4.5 1 6.43 2.57 8 4.5 8M 4.5 9C 2.01 9 0 6.99 0 4.5 0 2.01 2.01-0 4.5-0 6.99-0 9 2.01 9 4.5 9 6.99 6.99 9 4.5 9 4.5 9 4.5 9 4.5 9Z" fill="rgb(115,133,153)"/></g><g><path fillRule="evenodd" d="M 7 7C 7 7 11 10 11 10" fill="rgb(50,64,81)"/><path fillRule="evenodd" d="M 6.7 7.4C 6.7 7.4 10.7 10.4 10.7 10.4 10.7 10.4 11.3 9.6 11.3 9.6 11.3 9.6 7.3 6.6 7.3 6.6" fill="rgb(115,133,153)"/></g></g></svg>