<svg xmlns="http://www.w3.org/2000/svg" width="16" height="16" viewBox="0 0 16 16">
  <defs>
    <style>
      .cls-1 {
        fill: #8895a8;
        fill-rule: evenodd;
      }
    </style>
  </defs>
  <path class="cls-1" d="M1186.22,752.924a13.446,13.446,0,0,0,5.86,5.858l1.95-1.956a0.893,0.893,0,0,1,.91-0.213,10.071,10.071,0,0,0,3.17.507,0.892,0.892,0,0,1,.89.889v3.1a0.892,0.892,0,0,1-.89.889A15.106,15.106,0,0,1,1183,746.889a0.892,0.892,0,0,1,.89-0.889H1187a0.892,0.892,0,0,1,.89.889,10.064,10.064,0,0,0,.51,3.173,0.911,0.911,0,0,1-.23.907Z" transform="translate(-1183 -746)"/>
</svg>
