<svg xmlns="http://www.w3.org/2000/svg" viewBox="0 0 18 17" width="18" height="17">
	<style>
		tspan { white-space:pre }
		.shp0 { fill: #ffffff } 
	</style>
	<path id="Icon 5" class="shp0" d="M16.9 11.63L16.13 13.95C15.95 14.48 15.56 14.92 15.04 15.15C13.77 15.71 12.41 16 11 16C8.51 16 6.12 15.08 4.28 13.41C4.15 13.29 4.04 13.18 3.94 13.08C3.36 12.51 2.85 11.87 2.44 11.18C2.31 10.96 2.18 10.72 2.05 10.46C1.35 9.08 1 7.58 1 6C1 4.59 1.28 3.23 1.85 1.96C2.08 1.44 2.51 1.05 3.05 0.87L5.37 0.1C5.58 0.03 5.79 0 6 0C6.84 0 7.62 0.53 7.9 1.37L8.9 4.37C9.21 5.31 8.78 6.34 7.89 6.79L7.17 7.15C7.35 7.78 7.7 8.35 8.18 8.83C8.65 9.31 9.22 9.65 9.85 9.83L10.21 9.11C10.56 8.41 11.26 8 12 8C12.21 8 12.42 8.03 12.63 8.1L15.63 9.1C16.68 9.45 17.25 10.58 16.9 11.63ZM15 11L12 10L11 12C9.34 12 7.84 11.33 6.76 10.24C5.67 9.16 5 7.66 5 6L7 5L6 2L3.68 2.77C3.24 3.76 3 4.85 3 6C3 7.29 3.3 8.5 3.85 9.58C3.94 9.77 4.04 9.96 4.15 10.14C4.48 10.69 4.88 11.2 5.34 11.65C5.43 11.74 5.52 11.83 5.62 11.92C7.04 13.21 8.93 14 11 14C12.15 14 13.24 13.76 14.23 13.32L15 11Z" />
</svg>