<?xml version="1.0" encoding="utf-8"?>
<svg xmlns="http://www.w3.org/2000/svg"
	xmlns:xlink="http://www.w3.org/1999/xlink"
	width="16px" height="16px" viewBox="0 0 16 16">
<g><path fillRule="evenodd" d="M 2 3C 2 3 2 2 2 2 2 2 14 2 14 2 14 2 14 3 14 3 14 3 2 3 2 3" fill="rgb(136,149,168)"/><path fillRule="evenodd" d="M 4 1C 4 1 4-0 4-0 4-0 12-0 12-0 12-0 12 1 12 1 12 1 4 1 4 1" fill="rgb(136,149,168)"/><g><rect x="0" y="4" width="16" height="12" rx="2" fill="rgb(204,213,226)"/><path fillRule="evenodd" d="M 14 15C 14.55 15 15 14.55 15 14 15 14 15 6 15 6 15 5.45 14.55 5 14 5 14 5 2 5 2 5 1.45 5 1 5.45 1 6 1 6 1 14 1 14 1 14.55 1.45 15 2 15 2 15 14 15 14 15M 14 16C 14 16 2 16 2 16 0.9 16-0 15.1-0 14-0 14-0 6-0 6-0 4.9 0.9 4 2 4 2 4 14 4 14 4 15.1 4 16 4.9 16 6 16 6 16 14 16 14 16 15.1 15.1 16 14 16 14 16 14 16 14 16Z" fill="rgb(136,149,168)"/></g><path fillRule="evenodd" d="M 11.05 13C 11.25 12.02 12.02 11.25 13 11.05 13 11.05 13 8.95 13 8.95 12.02 8.75 11.25 7.98 11.05 7 11.05 7 4.95 7 4.95 7 4.75 7.98 3.98 8.75 3 8.95 3 8.95 3 11.05 3 11.05 3.98 11.25 4.75 12.02 4.95 13 4.95 13 11.05 13 11.05 13M 12.09 14C 12.09 14 3.91 14 3.91 14 3.97 13.84 4 13.68 4 13.5 4 12.67 3.33 12 2.5 12 2.32 12 2.16 12.03 2 12.09 2 12.09 2 7.91 2 7.91 2.16 7.97 2.32 8 2.5 8 3.33 8 4 7.33 4 6.5 4 6.32 3.97 6.16 3.91 6 3.91 6 12.08 6 12.08 6 12.03 6.16 12 6.32 12 6.5 12 7.33 12.67 8 13.5 8 13.68 8 13.84 7.97 14 7.91 14 7.91 14 12.09 14 12.09 13.84 12.03 13.68 12 13.5 12 12.67 12 12 12.67 12 13.5 12 13.68 12.03 13.84 12.09 14 12.09 14 12.09 14 12.09 14Z" fill="rgb(136,149,168)"/><path fillRule="evenodd" d="M 8 11C 8.55 11 9 10.55 9 10 9 9.45 8.55 9 8 9 7.45 9 7 9.45 7 10 7 10.55 7.45 11 8 11M 8 12C 6.9 12 6 11.1 6 10 6 8.9 6.9 8 8 8 9.1 8 10 8.9 10 10 10 11.1 9.1 12 8 12 8 12 8 12 8 12Z" fill="rgb(136,149,168)"/></g></svg>