<?xml version="1.0" encoding="utf-8"?>
<svg xmlns="http://www.w3.org/2000/svg"
	xmlns:xlink="http://www.w3.org/1999/xlink"
	width="14px" height="18px" viewBox="0 0 14 18">
<g><path fillRule="evenodd" d="M 12 17C 12.64 17 12.87 16.94 12.91 16.94 12.92 16.94 12.92 16.94 12.92 16.95 12.95 16.89 13 16.69 13 16 13 16 13 5.41 13 5.41 13 5.41 8.59 1 8.59 1 8.59 1 2 1 2 1 1.31 1 1.12 1.08 1.1 1.08 1.1 1.08 1.09 1.08 1.09 1.08 1.07 1.11 1 1.29 1 2 1 2 1 16 1 16 1 16.71 1.07 16.89 1.07 16.9 1.1 16.91 1.27 17 2 17 2 17 12 17 12 17M 12 18C 12 18 2 18 2 18 0.31 18-0 17.62-0 16-0 16-0 2-0 2-0 0.38 0.31-0 2-0 2-0 9-0 9-0 9-0 14 5 14 5 14 5 14 16 14 16 14 17.62 13.77 18 12 18 12 18 12 18 12 18Z" fill="rgb(131,151,175)"/><path fillRule="evenodd" d="M 13 5C 13 5 13 6 13 6 13 6 10 6 10 6 9.3 6 8.84 5.93 8.54 5.74 8.05 5.14 8 4.68 8 4 8 4 8 1 8 1 8 1 9 1 9 1 9 1 9 4 9 4 9 4.71 9.07 4.89 9.07 4.9 9.1 4.91 9.27 5 10 5 10 5 13 5 13 5" fill="rgb(131,151,175)"/><path fillRule="evenodd" d="M 6 4C 6 4 6 5 6 5 6 5 3 5 3 5 3 5 3 4 3 4 3 4 6 4 6 4" fill="rgb(131,151,175)"/><path fillRule="evenodd" d="M 11 7C 11 7 11 8 11 8 11 8 3 8 3 8 3 8 3 7 3 7 3 7 11 7 11 7" fill="rgb(131,151,175)"/><path fillRule="evenodd" d="M 11 10C 11 10 11 11 11 11 11 11 3 11 3 11 3 11 3 10 3 10 3 10 11 10 11 10" fill="rgb(131,151,175)"/><path fillRule="evenodd" d="M 11 13C 11 13 11 14 11 14 11 14 3 14 3 14 3 14 3 13 3 13 3 13 11 13 11 13" fill="rgb(131,151,175)"/></g></svg>