<?xml version="1.0" encoding="utf-8"?>
<svg xmlns="http://www.w3.org/2000/svg"
	xmlns:xlink="http://www.w3.org/1999/xlink"
	width="32px" height="32px" viewBox="0 0 32 32">
<g><g><path fillRule="evenodd" d="M 14 0.01C 13.62 0.01 13.24 0.14 12.94 0.41 9.16 3.79 6.63 4.27 1.71 5.66 0.7 5.94-0 6.85-0 7.88-0 7.88-0 9.87-0 9.87 0.28 19.96 4.52 27.97 14 32 23.48 27.97 27.72 19.96 28 9.87 28 9.87 28 7.88 28 7.88 28 6.85 27.3 5.94 26.29 5.66 21.37 4.27 18.84 3.79 15.06 0.41 14.76 0.14 14.38 0.01 14 0.01 14 0.01 14 0.01 14 0.01Z" fill="rgb(228,248,255)"/><path fillRule="evenodd" d="M 14 30.91C 22.34 27.21 26.72 20.13 27 9.87 27 9.87 27 7.88 27 7.88 27 7.29 26.6 6.78 26.02 6.62 26.02 6.62 24.77 6.27 24.77 6.27 20.56 5.1 18.02 4.39 14.39 1.16 14.29 1.06 14.15 1.01 14 1.01 13.85 1.01 13.71 1.06 13.61 1.15 9.98 4.39 7.44 5.1 3.22 6.27 3.22 6.27 1.98 6.62 1.98 6.62 1.4 6.78 1 7.3 1 7.88 1 7.88 1 9.85 1 9.85 1.28 20.13 5.66 27.21 14 30.91M 14 32C 4.52 27.97 0.28 19.96-0 9.87-0 9.87-0 7.88-0 7.88-0 6.85 0.7 5.94 1.71 5.66 6.63 4.27 9.16 3.79 12.94 0.41 13.24 0.14 13.62 0.01 14 0.01 14.38 0.01 14.76 0.14 15.06 0.41 18.84 3.79 21.37 4.27 26.29 5.66 27.3 5.94 28 6.85 28 7.88 28 7.88 28 9.87 28 9.87 27.72 19.96 23.48 27.97 14 32 14 32 14 32 14 32Z" fill="rgb(0,169,231)"/></g><g><g><circle cx="23.50" cy="23.50" r="8.50" fill="rgb(229,255,239)"/><path fillRule="evenodd" d="M 23.5 31C 27.64 31 31 27.64 31 23.5 31 19.36 27.64 16 23.5 16 19.36 16 16 19.36 16 23.5 16 27.64 19.36 31 23.5 31M 23.5 32C 18.81 32 15 28.19 15 23.5 15 18.81 18.81 15 23.5 15 28.19 15 32 18.81 32 23.5 32 28.19 28.19 32 23.5 32 23.5 32 23.5 32 23.5 32Z" fill="rgb(53,189,99)"/></g><path fillRule="evenodd" d="M 19.45 23.83C 19.45 23.83 20 23 20 23 20 23 23 25 23 25 23 25 27 20 27 20 27 20 27.78 20.62 27.78 20.62 27.78 20.62 23.78 25.62 23.78 25.62 23.78 25.62 23.21 26.34 23.21 26.34 23.21 26.34 22.45 25.83 22.45 25.83 22.45 25.83 19.45 23.83 19.45 23.83" fill="rgb(53,189,99)"/></g></g></svg>