<?xml version="1.0" encoding="utf-8"?>
<svg xmlns="http://www.w3.org/2000/svg"
	xmlns:xlink="http://www.w3.org/1999/xlink"
	width="12px" height="12px" viewBox="0 0 12 12">
<g><path fillRule="evenodd" d="M 4.97 8.94C 7.16 8.94 8.94 7.16 8.94 4.97 8.94 2.78 7.16 1 4.97 1 2.78 1 1 2.78 1 4.97 1 7.16 2.78 8.94 4.97 8.94M 4.97 9.94C 2.22 9.94-0 7.71-0 4.97-0 2.22 2.22-0 4.97-0 7.71-0 9.94 2.22 9.94 4.97 9.94 7.71 7.71 9.94 4.97 9.94 4.97 9.94 4.97 9.94 4.97 9.94Z" fill="rgb(135,149,167)"/><path fillRule="evenodd" d="M 7.45 8.15C 7.45 8.15 10.99 11.7 10.99 11.7 10.99 11.7 11.7 10.99 11.7 10.99 11.7 10.99 8.16 7.45 8.16 7.45" fill="rgb(135,149,167)"/></g></svg>