<?xml version="1.0" encoding="utf-8"?>
<svg xmlns="http://www.w3.org/2000/svg"
	xmlns:xlink="http://www.w3.org/1999/xlink"
	width="56px" height="64px" viewBox="0 0 56 64">
<g><g><path fillRule="evenodd" d="M 52 48C 52 48 46 48 46 48 46 48 46 44 46 44 46 40.68 43.31 38 40 38 40 38 32 38 32 38 32 38 32 23.3 32 23.3 36.65 21.64 40 17.21 40 12 40 5.38 34.62-0 28-0 21.38-0 16 5.38 16 12 16 17.21 19.35 21.64 24 23.3 24 23.3 24 38 24 38 24 38 16 38 16 38 12.69 38 10 40.68 10 44 10 44 10 48 10 48 10 48 4 48 4 48 1.79 48-0 49.79-0 52-0 52-0 60-0 60-0 62.21 1.79 64 4 64 4 64 52 64 52 64 54.21 64 56 62.21 56 60 56 60 56 52 56 52 56 49.79 54.21 48 52 48ZM 24 12C 24 9.79 25.79 8 28 8 30.21 8 32 9.79 32 12 32 14.2 30.21 16 28 16 25.79 16 24 14.2 24 12Z" fill="rgb(229,238,255)"/><path fillRule="evenodd" d="M 52 62C 53.1 62 54 61.1 54 60 54 60 54 52 54 52 54 50.89 53.1 50 52 50 52 50 46 50 46 50 46 50 44 50 44 50 44 50 44 48 44 48 44 48 44 44 44 44 44 41.79 42.21 40 40 40 40 40 32 40 32 40 32 40 30 40 30 40 30 40 30 38 30 38 30 38 30 23.3 30 23.3 30 23.3 30 21.88 30 21.88 30 21.88 31.33 21.41 31.33 21.41 35.32 20 38 16.21 38 12 38 6.48 33.51 2 28 2 22.49 2 18 6.48 18 12 18 16.21 20.68 20 24.67 21.41 24.67 21.41 26 21.88 26 21.88 26 21.88 26 23.3 26 23.3 26 23.3 26 38 26 38 26 38 26 40 26 40 26 40 24 40 24 40 24 40 16 40 16 40 13.79 40 12 41.79 12 44 12 44 12 48 12 48 12 48 12 50 12 50 12 50 10 50 10 50 10 50 4 50 4 50 2.9 50 2 50.89 2 52 2 52 2 60 2 60 2 61.1 2.9 62 4 62 4 62 52 62 52 62M 28 6C 31.31 6 34 8.69 34 12 34 15.31 31.31 18 28 18 24.69 18 22 15.31 22 12 22 8.69 24.69 6 28 6M 52 64C 52 64 4 64 4 64 1.79 64-0 62.21-0 60-0 60-0 52-0 52-0 49.79 1.79 48 4 48 4 48 10 48 10 48 10 48 10 44 10 44 10 40.68 12.69 38 16 38 16 38 24 38 24 38 24 38 24 23.3 24 23.3 19.35 21.64 16 17.21 16 12 16 5.38 21.38-0 28-0 34.62-0 40 5.38 40 12 40 17.21 36.65 21.64 32 23.3 32 23.3 32 38 32 38 32 38 40 38 40 38 43.31 38 46 40.68 46 44 46 44 46 48 46 48 46 48 52 48 52 48 54.21 48 56 49.79 56 52 56 52 56 60 56 60 56 62.21 54.21 64 52 64 52 64 52 64 52 64ZM 28 8C 25.79 8 24 9.79 24 12 24 14.2 25.79 16 28 16 30.21 16 32 14.2 32 12 32 9.79 30.21 8 28 8 28 8 28 8 28 8Z" fill="rgb(103,144,231)"/></g><path fillRule="evenodd" d="M 44 48C 44 48 44 50 44 50 44 50 12 50 12 50 12 50 12 48 12 48 12 48 44 48 44 48" fill="rgb(103,144,231)"/></g></svg>