<?xml version="1.0" encoding="utf-8"?>
<svg xmlns="http://www.w3.org/2000/svg"
	xmlns:xlink="http://www.w3.org/1999/xlink"
	width="56px" height="64px" viewBox="0 0 56 64">
<g><g><path fillRule="evenodd" d="M 44 28C 44 28 44 16 44 16 44 16 56 16 56 16 56 16 56 28 56 28 56 28 44 28 44 28ZM 44-0C 44-0 56-0 56-0 56-0 56 12 56 12 56 12 44 12 44 12 44 12 44-0 44-0Z" fill="rgb(229,238,255)"/><path fillRule="evenodd" d="M 54 26C 54 26 54 18 54 18 54 18 46 18 46 18 46 18 46 26 46 26 46 26 54 26 54 26M 54 10C 54 10 54 2 54 2 54 2 46 2 46 2 46 2 46 10 46 10 46 10 54 10 54 10M 56 28C 56 28 44 28 44 28 44 28 44 16 44 16 44 16 56 16 56 16 56 16 56 28 56 28 56 28 56 28 56 28ZM 56 12C 56 12 44 12 44 12 44 12 44-0 44-0 44-0 56-0 56-0 56-0 56 12 56 12 56 12 56 12 56 12Z" fill="rgb(103,144,231)"/></g><g><path fillRule="evenodd" d="M-0 44C-0 44-0 32-0 32-0 32 56 32 56 32 56 32 56 44 56 44 56 44-0 44-0 44ZM-0 16C-0 16 46 16 46 16 46 16 46 28 46 28 46 28-0 28-0 28-0 28-0 16-0 16ZM-0-0C-0-0 46-0 46-0 46-0 46 12 46 12 46 12-0 12-0 12-0 12-0-0-0-0Z" fill="rgb(255,255,255)"/><path fillRule="evenodd" d="M 54 42C 54 42 54 34 54 34 54 34 2 34 2 34 2 34 2 42 2 42 2 42 54 42 54 42M 44 26C 44 26 44 18 44 18 44 18 2 18 2 18 2 18 2 26 2 26 2 26 44 26 44 26M 44 10C 44 10 44 2 44 2 44 2 2 2 2 2 2 2 2 10 2 10 2 10 44 10 44 10M 56 44C 56 44-0 44-0 44-0 44-0 32-0 32-0 32 56 32 56 32 56 32 56 44 56 44 56 44 56 44 56 44ZM 46 28C 46 28-0 28-0 28-0 28-0 16-0 16-0 16 46 16 46 16 46 16 46 28 46 28 46 28 46 28 46 28ZM 46 12C 46 12-0 12-0 12-0 12-0-0-0-0-0-0 46-0 46-0 46-0 46 12 46 12 46 12 46 12 46 12Z" fill="rgb(103,144,231)"/></g><g><path fillRule="evenodd" d="M 41 64C 41 64 15 64 15 64 15 64 15 52 15 52 15 52 41 52 41 52 41 52 41 64 41 64Z" fill="rgb(229,237,255)"/><path fillRule="evenodd" d="M 39 62C 39 62 39 54 39 54 39 54 17 54 17 54 17 54 17 62 17 62 17 62 39 62 39 62M 41 64C 41 64 15 64 15 64 15 64 15 52 15 52 15 52 41 52 41 52 41 52 41 64 41 64 41 64 41 64 41 64Z" fill="rgb(103,144,231)"/></g><g><path fillRule="evenodd" d="M 47 4C 47 4 53 4 53 4 53 4 50 8 50 8 50 8 47 4 47 4ZM 50 24C 50 24 47 20 47 20 47 20 53 20 53 20 53 20 50 24 50 24Z" fill="rgb(229,238,255)"/><path fillRule="evenodd" d="M 50 24C 50 24 47 20 47 20 47 20 53 20 53 20 53 20 50 24 50 24 50 24 50 24 50 24ZM 50 8C 50 8 47 4 47 4 47 4 53 4 53 4 53 4 50 8 50 8 50 8 50 8 50 8Z" fill="rgb(103,144,231)"/></g><g><path fillRule="evenodd" d="M 5 39C 5 39 5 37 5 37 5 37 36 37 36 37 36 37 36 39 36 39 36 39 5 39 5 39ZM 5 5C 5 5 36 5 36 5 36 5 36 7 36 7 36 7 5 7 5 7 5 7 5 5 5 5ZM 26 23C 26 23 5 23 5 23 5 23 5 21 5 21 5 21 26 21 26 21 26 21 26 23 26 23Z" fill="rgb(229,238,255)"/><path fillRule="evenodd" d="M 36 39C 36 39 5 39 5 39 5 39 5 37 5 37 5 37 36 37 36 37 36 37 36 39 36 39 36 39 36 39 36 39ZM 26 23C 26 23 5 23 5 23 5 23 5 21 5 21 5 21 26 21 26 21 26 21 26 23 26 23 26 23 26 23 26 23ZM 36 7C 36 7 5 7 5 7 5 7 5 5 5 5 5 5 36 5 36 5 36 5 36 7 36 7 36 7 36 7 36 7Z" fill="rgb(103,144,231)"/></g></g></svg>