<?xml version="1.0" encoding="utf-8"?>
<svg xmlns="http://www.w3.org/2000/svg"
	xmlns:xlink="http://www.w3.org/1999/xlink"
	width="44px" height="30px" viewBox="0 0 44 30">
<g><g><path fillRule="evenodd" d="M 15-0C 15-0 29-0 29-0 37.28-0 44 6.72 44 15 44 23.28 37.28 30 29 30 29 30 15 30 15 30 6.72 30-0 23.28-0 15-0 6.72 6.72-0 15-0Z" fill="rgb(27,37,47)"/><path fillRule="evenodd" d="M 29 28C 36.17 28 42 22.17 42 15 42 7.83 36.17 2 29 2 29 2 15 2 15 2 7.83 2 2 7.83 2 15 2 22.17 7.83 28 15 28 15 28 29 28 29 28M 29 30C 29 30 15 30 15 30 6.72 30-0 23.28-0 15-0 6.72 6.72-0 15-0 15-0 29-0 29-0 37.28-0 44 6.72 44 15 44 23.28 37.28 30 29 30 29 30 29 30 29 30Z" fill="rgb(42,56,73)"/></g><g><g><path fillRule="evenodd" d="M 28.12 16.75C 28.12 16.75 26.22 16.75 26.22 16.75 26.22 16.75 27.57 18.09 27.57 18.09 27.91 18.44 27.91 18.99 27.57 19.33 27.57 19.33 26.33 20.57 26.33 20.57 25.99 20.91 25.44 20.91 25.09 20.57 25.09 20.57 23.75 19.22 23.75 19.22 23.75 19.22 23.75 21.12 23.75 21.12 23.75 21.61 23.36 22 22.87 22 22.87 22 21.12 22 21.12 22 20.64 22 20.25 21.61 20.25 21.12 20.25 21.12 20.25 19.22 20.25 19.22 20.25 19.22 18.91 20.57 18.91 20.57 18.56 20.91 18.01 20.91 17.67 20.57 17.67 20.57 16.43 19.33 16.43 19.33 16.09 18.99 16.09 18.44 16.43 18.09 16.43 18.09 17.77 16.75 17.77 16.75 17.77 16.75 15.87 16.75 15.87 16.75 15.39 16.75 15 16.36 15 15.87 15 15.87 15 14.12 15 14.12 15 13.64 15.39 13.25 15.87 13.25 15.87 13.25 17.78 13.25 17.78 13.25 17.78 13.25 16.43 11.91 16.43 11.91 16.09 11.56 16.09 11.01 16.43 10.67 16.43 10.67 17.67 9.43 17.67 9.43 18.01 9.09 18.56 9.09 18.91 9.43 18.91 9.43 20.25 10.77 20.25 10.77 20.25 10.77 20.25 8.87 20.25 8.87 20.25 8.39 20.64 8 21.12 8 21.12 8 22.87 8 22.87 8 23.36 8 23.75 8.39 23.75 8.87 23.75 8.87 23.75 10.77 23.75 10.77 23.75 10.77 25.09 9.43 25.09 9.43 25.44 9.09 25.99 9.09 26.33 9.43 26.33 9.43 27.57 10.67 27.57 10.67 27.91 11.01 27.91 11.56 27.57 11.91 27.57 11.91 26.22 13.25 26.22 13.25 26.22 13.25 28.12 13.25 28.12 13.25 28.61 13.25 29 13.64 29 14.12 29 14.12 29 15.87 29 15.87 29 16.36 28.61 16.75 28.12 16.75ZM 22 13.25C 21.03 13.25 20.25 14.03 20.25 15 20.25 15.97 21.03 16.75 22 16.75 22.97 16.75 23.75 15.97 23.75 15 23.75 14.03 22.97 13.25 22 13.25Z" fill="rgb(43,55,71)"/><path fillRule="evenodd" d="M 22.75 21C 22.75 21 22.75 19.22 22.75 19.22 22.75 19.22 22.75 17.65 22.75 17.65 22.51 17.71 22.26 17.75 22 17.75 21.74 17.75 21.49 17.71 21.25 17.65 21.25 17.65 21.25 19.22 21.25 19.22 21.25 19.22 21.25 21 21.25 21 21.25 21 22.75 21 22.75 21M 18.29 19.77C 18.29 19.77 19.54 18.52 19.54 18.52 19.54 18.52 20.66 17.4 20.66 17.4 20.22 17.15 19.85 16.78 19.6 16.34 19.6 16.34 18.48 17.46 18.48 17.46 18.48 17.46 17.23 18.71 17.23 18.71 17.23 18.71 18.29 19.77 18.29 19.77M 25.71 19.77C 25.71 19.77 26.77 18.71 26.77 18.71 26.77 18.71 25.52 17.46 25.52 17.46 25.52 17.46 24.4 16.34 24.4 16.34 24.15 16.78 23.78 17.15 23.34 17.4 23.34 17.4 24.46 18.52 24.46 18.52 24.46 18.52 25.71 19.77 25.71 19.77M 28 15.75C 28 15.75 28 14.25 28 14.25 28 14.25 26.22 14.25 26.22 14.25 26.22 14.25 24.65 14.25 24.65 14.25 24.71 14.49 24.75 14.74 24.75 15 24.75 15.26 24.71 15.51 24.65 15.75 24.65 15.75 26.22 15.75 26.22 15.75 26.22 15.75 28 15.75 28 15.75M 19.35 15.75C 19.29 15.51 19.25 15.26 19.25 15 19.25 14.74 19.29 14.49 19.35 14.25 19.35 14.25 17.78 14.25 17.78 14.25 17.78 14.25 16 14.25 16 14.25 16 14.25 16 15.75 16 15.75 16 15.75 17.78 15.75 17.78 15.75 17.78 15.75 19.35 15.75 19.35 15.75M 24.4 13.66C 24.4 13.66 25.52 12.54 25.52 12.54 25.52 12.54 26.77 11.29 26.77 11.29 26.77 11.29 25.71 10.23 25.71 10.23 25.71 10.23 24.46 11.48 24.46 11.48 24.46 11.48 23.34 12.6 23.34 12.6 23.78 12.85 24.15 13.22 24.4 13.66M 19.6 13.66C 19.85 13.22 20.22 12.85 20.66 12.6 20.66 12.6 19.54 11.48 19.54 11.48 19.54 11.48 18.29 10.23 18.29 10.23 18.29 10.23 17.23 11.29 17.23 11.29 17.23 11.29 18.48 12.54 18.48 12.54 18.48 12.54 19.6 13.66 19.6 13.66M 21.25 12.35C 21.49 12.29 21.74 12.25 22 12.25 22.26 12.25 22.51 12.29 22.75 12.35 22.75 12.35 22.75 10.78 22.75 10.78 22.75 10.78 22.75 9 22.75 9 22.75 9 21.25 9 21.25 9 21.25 9 21.25 10.78 21.25 10.78 21.25 10.78 21.25 12.35 21.25 12.35M 22.87 22C 22.87 22 21.13 22 21.13 22 20.64 22 20.25 21.61 20.25 21.12 20.25 21.12 20.25 19.22 20.25 19.22 20.25 19.22 18.91 20.57 18.91 20.57 18.74 20.74 18.51 20.82 18.29 20.82 18.06 20.82 17.84 20.74 17.67 20.57 17.67 20.57 16.43 19.33 16.43 19.33 16.09 18.99 16.09 18.44 16.43 18.09 16.43 18.09 17.78 16.75 17.78 16.75 17.78 16.75 15.87 16.75 15.87 16.75 15.39 16.75 15 16.36 15 15.87 15 15.87 15 14.13 15 14.13 15 13.64 15.39 13.25 15.87 13.25 15.87 13.25 17.78 13.25 17.78 13.25 17.78 13.25 16.43 11.91 16.43 11.91 16.09 11.56 16.09 11.01 16.43 10.67 16.43 10.67 17.67 9.43 17.67 9.43 17.84 9.26 18.06 9.18 18.29 9.18 18.51 9.18 18.74 9.26 18.91 9.43 18.91 9.43 20.25 10.78 20.25 10.78 20.25 10.78 20.25 8.87 20.25 8.87 20.25 8.39 20.64 8 21.13 8 21.13 8 22.87 8 22.87 8 23.36 8 23.75 8.39 23.75 8.87 23.75 8.87 23.75 10.78 23.75 10.78 23.75 10.78 25.09 9.43 25.09 9.43 25.26 9.26 25.49 9.18 25.71 9.18 25.94 9.18 26.16 9.26 26.33 9.43 26.33 9.43 27.57 10.67 27.57 10.67 27.91 11.01 27.91 11.56 27.57 11.91 27.57 11.91 26.22 13.25 26.22 13.25 26.22 13.25 28.12 13.25 28.12 13.25 28.61 13.25 29 13.64 29 14.13 29 14.13 29 15.87 29 15.87 29 16.36 28.61 16.75 28.12 16.75 28.12 16.75 26.22 16.75 26.22 16.75 26.22 16.75 27.57 18.09 27.57 18.09 27.91 18.44 27.91 18.99 27.57 19.33 27.57 19.33 26.33 20.57 26.33 20.57 26.16 20.74 25.94 20.82 25.71 20.82 25.49 20.82 25.26 20.74 25.09 20.57 25.09 20.57 23.75 19.22 23.75 19.22 23.75 19.22 23.75 21.12 23.75 21.12 23.75 21.61 23.36 22 22.87 22 22.87 22 22.87 22 22.87 22ZM 22 13.25C 21.03 13.25 20.25 14.03 20.25 15 20.25 15.97 21.03 16.75 22 16.75 22.97 16.75 23.75 15.97 23.75 15 23.75 14.03 22.97 13.25 22 13.25 22 13.25 22 13.25 22 13.25Z" fill="rgb(115,133,153)"/></g><path fillRule="evenodd" d="M 22 19.37C 19.58 19.37 17.62 17.42 17.62 15 17.62 12.58 19.58 10.62 22 10.62 24.42 10.62 26.37 12.58 26.37 15 26.37 17.42 24.42 19.37 22 19.37ZM 22 12.37C 20.55 12.37 19.37 13.55 19.37 15 19.37 16.45 20.55 17.62 22 17.62 23.45 17.62 24.62 16.45 24.62 15 24.62 13.55 23.45 12.37 22 12.37Z" fill="rgb(43,55,71)"/></g></g></svg>