<?xml version="1.0" encoding="utf-8"?>
<svg xmlns="http://www.w3.org/2000/svg"
	xmlns:xlink="http://www.w3.org/1999/xlink"
	width="99px" height="15px" viewBox="0 0 99 15">
<style type="text/css"><![CDATA[
.style0 {
  font-size: 14px;
  font-family: "Source Sans Pro";
  font-weight: 400;
  fill: rgb(178,190,209);
}
]]></style>
<g><text transform="translate(24.00,11.00)" class="style0"><tspan x="0.00 7.41 15.02 22.19 29.96 37.49 47.54 50.37 59.36 66.70" fill="rgb(177,189,208)">Shadow NAV</tspan></text><g><path fillRule="evenodd" d="M 16 14C 16 14 16 1 16 1 16 1 12 1 12 1 12 1 9 1 9 1 9 1 5 1 5 1 5 1 1 1 1 1 1 1 1 14 1 14 1 14 4 14 4 14 4 14 7 14 7 14 7 14 8.55 14 8.55 14 8.55 14 10 14 10 14 10 14 13 14 13 14 13 14 16 14 16 14 16 14 16 14 16 14M 16 15C 16 15 13 15 13 15 13 15 10 15 10 15 10 15 8.55 15 8.55 15 8.55 15 8.45 15 8.45 15 8.45 15 7 15 7 15 7 15 4 15 4 15 4 15 1 15 1 15 0.46 15-0 14.55-0 14-0 14-0 1-0 1-0 0.45 0.46 0 1 0 1 0 5 0 5 0 5 0 9 0 9 0 9 0 12 0 12 0 12 0 16 0 16 0 16.54 0 17 0.45 17 1 17 1 17 14 17 14 17 14.55 16.54 15 16 15 16 15 16 15 16 15Z" fill="rgb(255,255,255)"/><path fillRule="evenodd" d="M 8 1C 8 1 9 1 9 1 9 1 9 14 9 14 9 14 8 14 8 14 8 14 8 1 8 1" fill="rgb(255,255,255)"/><path fillRule="evenodd" d="M 3 5C 3 5 3 4 3 4 3 4 6 4 6 4 6 4 6 5 6 5 6 5 3 5 3 5" fill="rgb(255,255,255)"/><path fillRule="evenodd" d="M 3 8C 3 8 3 7 3 7 3 7 6 7 6 7 6 7 6 8 6 8 6 8 3 8 3 8" fill="rgb(255,255,255)"/><path fillRule="evenodd" d="M 3 11C 3 11 3 10 3 10 3 10 6 10 6 10 6 10 6 11 6 11 6 11 3 11 3 11" fill="rgb(255,255,255)"/><g><path fillRule="evenodd" d="M 13 10C 13 10 13 11 13 11" fill="rgb(255,255,255)"/><path fillRule="evenodd" d="M 13 4C 13 4 13 5 13 5" fill="rgb(255,255,255)"/><path fillRule="evenodd" d="M 12.79 11C 12.79 11 12.13 11 12.13 11 12.13 11 12.13 10.16 12.13 10.16 11.7 10.14 11.26 10 11 9.83 11 9.83 11.2 9.01 11.2 9.01 11.47 9.18 11.86 9.34 12.29 9.34 12.78 9.34 13.01 9.05 13.01 8.68 13.01 8.31 12.79 8.06 12.17 7.77 11.51 7.43 11.05 7.04 11.05 6.3 11.05 5.58 11.47 5.02 12.19 4.84 12.19 4.84 12.19 4 12.19 4 12.19 4 12.85 4 12.85 4 12.85 4 12.85 4.78 12.85 4.78 13.29 4.79 13.6 4.92 13.83 5.04 13.83 5.04 13.62 5.85 13.62 5.85 13.42 5.74 13.09 5.58 12.7 5.58 12.24 5.58 12.01 5.89 12.01 6.17 12.01 6.51 12.3 6.72 12.84 7.01 13.64 7.4 14 7.81 14 8.58 14 9.33 13.56 9.94 12.79 10.1 12.79 10.1 12.79 11 12.79 11Z" fill="rgb(255,255,255)"/></g></g></g></svg>