<?xml version="1.0" encoding="utf-8"?>
<svg xmlns="http://www.w3.org/2000/svg"
	xmlns:xlink="http://www.w3.org/1999/xlink"
	width="16px" height="18px" viewBox="0 0 16 18">
<g><path fillRule="evenodd" d="M 14 17C 14.64 17 14.87 16.94 14.91 16.94 14.92 16.94 14.92 16.94 14.92 16.95 14.95 16.89 15 16.69 15 16 15 16 15 7.41 15 7.41 15 7.41 8.59 1 8.59 1 8.59 1 2 1 2 1 1.31 1 1.12 1.08 1.1 1.08 1.1 1.08 1.09 1.08 1.09 1.08 1.07 1.11 1 1.29 1 2 1 2 1 16 1 16 1 16.71 1.07 16.89 1.07 16.9 1.1 16.91 1.27 17 2 17 2 17 14 17 14 17M 14 18C 14 18 2 18 2 18 0.31 18-0 17.62-0 16-0 16-0 2-0 2-0 0.38 0.31-0 2-0 2-0 9-0 9-0 9-0 16 7 16 7 16 7 16 16 16 16 16 17.62 15.77 18 14 18 14 18 14 18 14 18Z" fill="rgb(255,255,255)"/><path fillRule="evenodd" d="M 15 7C 15 7 15 8 15 8 15 8 10 8 10 8 9.3 8 8.84 7.93 8.54 7.74 8.05 7.14 8 6.68 8 6 8 6 8 1 8 1 8 1 9 1 9 1 9 1 9 6 9 6 9 6.71 9.07 6.89 9.07 6.9 9.1 6.91 9.27 7 10 7 10 7 15 7 15 7" fill="rgb(255,255,255)"/><path fillRule="evenodd" d="M 6 4C 6 4 6 5 6 5 6 5 3 5 3 5 3 5 3 4 3 4 3 4 6 4 6 4" fill="rgb(255,255,255)"/><path fillRule="evenodd" d="M 6 7C 6 7 6 8 6 8 6 8 3 8 3 8 3 8 3 7 3 7 3 7 6 7 6 7" fill="rgb(255,255,255)"/><path fillRule="evenodd" d="M 13 10C 13 10 13 11 13 11 13 11 3 11 3 11 3 11 3 10 3 10 3 10 13 10 13 10" fill="rgb(255,255,255)"/><path fillRule="evenodd" d="M 13 13C 13 13 13 14 13 14 13 14 3 14 3 14 3 14 3 13 3 13 3 13 13 13 13 13" fill="rgb(255,255,255)"/></g></svg>