<?xml version="1.0" encoding="utf-8"?>
<svg xmlns="http://www.w3.org/2000/svg"
	xmlns:xlink="http://www.w3.org/1999/xlink"
	width="16px" height="16px" viewBox="0 0 16 16">
<g><path fillRule="evenodd" d="M 9.77 14.89C 9.77 14.89 15 10.53 15 10.53 15 10.53 15 2.8 15 2.8 15 2.8 7.16 1.06 7.16 1.06 7.16 1.06 1 4.58 1 4.58 1 4.58 1 12.26 1 12.26 1 12.26 9.77 14.89 9.77 14.89M 10 16C 10 16-0 13-0 13-0 13-0 4-0 4-0 4 7-0 7-0 7-0 16 2 16 2 16 2 16 11 16 11 16 11 10 16 10 16 10 16 10 16 10 16Z" fill="rgb(255,255,255)"/><path fillRule="evenodd" d="M 10 15C 10 15 9 15 9 15 9 15 9 6 9 6 9 6 10 6 10 6 10 6 10 15 10 15" fill="rgb(255,255,255)"/><path fillRule="evenodd" d="M 9.24 6.03C 9.24 6.03 9 7 9 7 9 7 1 5 1 5 1 5 1.24 4.03 1.24 4.03 1.24 4.03 9.24 6.03 9.24 6.03" fill="rgb(255,255,255)"/><path fillRule="evenodd" d="M 14.38 2.22C 14.38 2.22 15 3 15 3 15 3 10 7 10 7 10 7 9.38 6.22 9.38 6.22 9.38 6.22 14.38 2.22 14.38 2.22" fill="rgb(255,255,255)"/><path fillRule="evenodd" d="M 12.24 4.03C 12.24 4.03 12 5 12 5 12 5 4 3 4 3 4 3 4.24 2.03 4.24 2.03 4.24 2.03 12.24 4.03 12.24 4.03" fill="rgb(255,255,255)"/></g></svg>