<?xml version="1.0" encoding="utf-8"?>
<svg xmlns="http://www.w3.org/2000/svg"
	xmlns:xlink="http://www.w3.org/1999/xlink"
	width="17px" height="16px" viewBox="0 0 17 16">
<g><path fillRule="evenodd" d="M 16 15C 16 15 16 15 16 15 16 15 16 6 16 6 16 6 14 6 14 6 14 6 14 15 14 15 14 15 16 15 16 15M 10 15C 10 15 10 15 10 15 10 15 10 9 10 9 10 9 8 9 8 9 8 9 8 15 8 15 8 15 10 15 10 15M 4 15C 4 15 4 15 4 15 4 15 4 12 4 12 4 12 2 12 2 12 2 12 2 15 2 15 2 15 4 15 4 15M 16 16C 16 16 14 16 14 16 13.45 16 13 15.55 13 15 13 15 13 6 13 6 13 5.45 13.45 5 14 5 14 5 16 5 16 5 16.55 5 17 5.45 17 6 17 6 17 15 17 15 17 15.55 16.55 16 16 16 16 16 16 16 16 16ZM 10 16C 10 16 8 16 8 16 7.45 16 7 15.55 7 15 7 15 7 9 7 9 7 8.45 7.45 8 8 8 8 8 10 8 10 8 10.55 8 11 8.45 11 9 11 9 11 15 11 15 11 15.55 10.55 16 10 16 10 16 10 16 10 16ZM 4 16C 4 16 2 16 2 16 1.45 16 1 15.55 1 15 1 15 1 12 1 12 1 11.45 1.45 11 2 11 2 11 4 11 4 11 4.55 11 5 11.45 5 12 5 12 5 15 5 15 5 15.55 4.55 16 4 16 4 16 4 16 4 16Z" fill="rgb(255,255,255)"/><path fillRule="evenodd" d="M 11.88 4.01C 11.88 4.01 13.38 1 13.38 1 13.38 1 9.87 1 9.87 1 9.87 1 11.88 4.01 11.88 4.01M 12 6C 12 6 8-0 8-0 8-0 15-0 15-0 15-0 12 6 12 6 12 6 12 6 12 6Z" fill="rgb(255,255,255)"/><path fillRule="evenodd" d="M 1.24 8.44C 1.24 8.44 10.24 3.44 10.24 3.44 10.24 3.44 9.76 2.56 9.76 2.56 9.76 2.56 0.76 7.56 0.76 7.56" fill="rgb(255,255,255)"/></g></svg>