<?xml version="1.0" encoding="utf-8"?>
<svg xmlns="http://www.w3.org/2000/svg"
	xmlns:xlink="http://www.w3.org/1999/xlink"
	width="19px" height="16px" viewBox="0 0 19 16">
<g><path fillRule="evenodd" d="M 8 15C 11.86 15 15 11.86 15 8 15 4.14 11.86 1 8 1 4.14 1 1 4.14 1 8 1 11.86 4.14 15 8 15M 8 16C 3.58 16-0 12.42-0 8-0 3.58 3.58-0 8-0 12.42-0 16 3.58 16 8 16 12.42 12.42 16 8 16 8 16 8 16 8 16Z" fill="rgb(255,255,255)"/><path fillRule="evenodd" d="M 2 1C 2 1 2-0 2-0 2-0 6-0 6-0 6-0 6 1 6 1 6 1 2 1 2 1M 5-0C 5-0 6-0 6-0 6-0 6 4 6 4 6 4 5 4 5 4 5 4 5-0 5-0M 6 1C 6 1 6-0 6-0 6-0 6-0 6-0 6-0 6 1 6 1 6 1 6 1 6 1ZM 6-0C 6-0 5-0 5-0 5-0 6-0 6-0 6-0 6-0 6-0 6-0 6-0 6-0Z" fill="rgb(255,255,255)"/><path fillRule="evenodd" d="M 6 13C 6 13 2 13 2 13 2 13 2 12 2 12 2 12 6 12 6 12 6 12 6 13 6 13 6 13 6 13 6 13ZM 3 12C 3 12 3 16 3 16 3 16 2 16 2 16 2 16 2 12 2 12 2 12 3 12 3 12 3 12 3 12 3 12ZM 2 13C 2 13 2 12 2 12 2 12 3 12 3 12 3 12 2 12 2 12 2 12 2 13 2 13 2 13 2 13 2 13Z" fill="rgb(255,255,255)"/><path fillRule="evenodd" d="M 11.67 6.38C 11.67 6.38 15.56 9.71 15.56 9.71 15.56 9.71 18.38 6.32 18.38 6.32 18.38 6.32 17.62 5.68 17.62 5.68 17.62 5.68 15.44 8.29 15.44 8.29 15.44 8.29 12.33 5.62 12.33 5.62 12.33 5.62 11.67 6.38 11.67 6.38 11.67 6.38 11.67 6.38 11.67 6.38Z" fill="rgb(255,255,255)"/><path fillRule="evenodd" d="M 8 11C 8 11 9 11 9 11 9 11 9 12 9 12 9 12 8 12 8 12 8 12 8 11 8 11" fill="rgb(255,255,255)"/><path fillRule="evenodd" d="M 8 4C 8 4 9 4 9 4 9 4 9 5 9 5 9 5 8 5 8 5 8 5 8 4 8 4" fill="rgb(255,255,255)"/><path fillRule="evenodd" d="M 8.39 12C 8.39 12 7.5 12 7.5 12 7.5 12 7.5 11.04 7.5 11.04 6.93 11.02 6.34 10.85 6 10.67 6 10.67 6.27 9.72 6.27 9.72 6.62 9.92 7.15 10.1 7.72 10.1 8.37 10.1 8.69 9.77 8.69 9.35 8.69 8.92 8.39 8.64 7.56 8.31 6.68 7.92 6.06 7.48 6.06 6.63 6.06 5.8 6.63 5.16 7.59 4.96 7.59 4.96 7.59 4 7.59 4 7.59 4 8.47 4 8.47 4 8.47 4 8.47 4.89 8.47 4.89 9.05 4.91 9.47 5.05 9.77 5.19 9.77 5.19 9.5 6.11 9.5 6.11 9.23 5.99 8.79 5.81 8.26 5.81 7.66 5.81 7.35 6.16 7.35 6.48 7.35 6.87 7.74 7.11 8.45 7.44 9.52 7.88 10 8.36 10 9.23 10 10.09 9.41 10.79 8.39 10.97 8.39 10.97 8.39 12 8.39 12Z" fill="rgb(215,225,239)"/></g></svg>