<?xml version="1.0" encoding="utf-8"?>
<svg xmlns="http://www.w3.org/2000/svg"
	xmlns:xlink="http://www.w3.org/1999/xlink"
	width="16px" height="16px" viewBox="0 0 16 16">
<g><path fillRule="evenodd" d="M 14.9 15C 14.43 12.72 12.41 11 10 11 10 11 6 11 6 11 3.59 11 1.57 12.72 1.1 15 1.1 15 14.9 15 14.9 15M 16 16C 16 16-0 16-0 16-0 12.69 2.69 10 6 10 6 10 10 10 10 10 13.31 10 16 12.69 16 16 16 16 16 16 16 16Z" fill="rgb(255,255,255)"/><path fillRule="evenodd" d="M 8 7C 9.65 7 11 5.65 11 4 11 2.35 9.65 1 8 1 6.35 1 5 2.35 5 4 5 5.65 6.35 7 8 7M 8 8C 5.79 8 4 6.21 4 4 4 1.79 5.79-0 8-0 10.21-0 12 1.79 12 4 12 6.21 10.21 8 8 8 8 8 8 8 8 8Z" fill="rgb(255,255,255)"/></g></svg>