<?xml version="1.0" encoding="utf-8"?>
<svg xmlns="http://www.w3.org/2000/svg"
	xmlns:xlink="http://www.w3.org/1999/xlink"
	width="16px" height="16px" viewBox="0 0 16 16">
<g><path fillRule="evenodd" d="M 15 16C 15 16 10 16 10 16 9.45 16 9 15.55 9 15 9 15 9 10 9 10 9 9.45 9.45 9 10 9 10 9 15 9 15 9 15.55 9 16 9.45 16 10 16 10 16 15 16 15 16 15.55 15.55 16 15 16ZM 15 7C 15 7 10 7 10 7 9.45 7 9 6.55 9 6 9 6 9 1 9 1 9 0.45 9.45-0 10-0 10-0 15-0 15-0 15.55-0 16 0.45 16 1 16 1 16 6 16 6 16 6.55 15.55 7 15 7ZM 6 16C 6 16 1 16 1 16 0.45 16-0 15.55-0 15-0 15-0 10-0 10-0 9.45 0.45 9 1 9 1 9 6 9 6 9 6.55 9 7 9.45 7 10 7 10 7 15 7 15 7 15.55 6.55 16 6 16ZM 6 7C 6 7 1 7 1 7 0.45 7-0 6.55-0 6-0 6-0 1-0 1-0 0.45 0.45-0 1-0 1-0 6-0 6-0 6.55-0 7 0.45 7 1 7 1 7 6 7 6 7 6.55 6.55 7 6 7Z" fill="rgb(51,65,81)"/><path fillRule="evenodd" d="M 15 15C 15 15 15 15 15 15 15 15 15 10 15 10 15 10 10 10 10 10 10 10 10 15 10 15 10 15 15 15 15 15M 6 15C 6 15 6 15 6 15 6 15 6 10 6 10 6 10 1 10 1 10 1 10 1 15 1 15 1 15 6 15 6 15M 15 6C 15 6 15 6 15 6 15 6 15 1 15 1 15 1 10 1 10 1 10 1 10 6 10 6 10 6 15 6 15 6M 6 6C 6 6 6 6 6 6 6 6 6 1 6 1 6 1 1 1 1 1 1 1 1 6 1 6 1 6 6 6 6 6M 15 16C 15 16 10 16 10 16 9.45 16 9 15.55 9 15 9 15 9 10 9 10 9 9.45 9.45 9 10 9 10 9 15 9 15 9 15.55 9 16 9.45 16 10 16 10 16 15 16 15 16 15.55 15.55 16 15 16 15 16 15 16 15 16ZM 6 16C 6 16 1 16 1 16 0.45 16 0 15.55 0 15 0 15 0 10 0 10 0 9.45 0.45 9 1 9 1 9 6 9 6 9 6.55 9 7 9.45 7 10 7 10 7 15 7 15 7 15.55 6.55 16 6 16 6 16 6 16 6 16ZM 15 7C 15 7 10 7 10 7 9.45 7 9 6.55 9 6 9 6 9 1 9 1 9 0.45 9.45-0 10-0 10-0 15-0 15-0 15.55-0 16 0.45 16 1 16 1 16 6 16 6 16 6.55 15.55 7 15 7 15 7 15 7 15 7ZM 6 7C 6 7 1 7 1 7 0.45 7 0 6.55 0 6 0 6 0 1 0 1 0 0.45 0.45-0 1-0 1-0 6-0 6-0 6.55-0 7 0.45 7 1 7 1 7 6 7 6 7 6.55 6.55 7 6 7 6 7 6 7 6 7Z" fill="rgb(177,189,209)"/></g></svg>