<?xml version="1.0" encoding="utf-8"?>
<svg xmlns="http://www.w3.org/2000/svg"
	xmlns:xlink="http://www.w3.org/1999/xlink"
	width="16px" height="18px" viewBox="0 0 16 18">
<g><path fillRule="evenodd" d="M 8 0C 7.78 0 7.57 0.08 7.39 0.23 5.23 2.13 3.79 2.4 0.98 3.18 0.4 3.34-0 3.85-0 4.43-0 4.43-0 5.55-0 5.55 0.16 11.23 2.58 15.74 8 18 13.42 15.74 15.84 11.23 16 5.55 16 5.55 16 4.43 16 4.43 16 3.85 15.6 3.34 15.02 3.18 12.21 2.4 10.77 2.13 8.61 0.23 8.43 0.08 8.22 0 8 0 8 0 8 0 8 0Z" fill="rgb(50,64,81)"/><path fillRule="evenodd" d="M 8 16.91C 12.49 14.88 14.85 11.05 15 5.55 15 5.55 15 4.43 15 4.43 15 4.3 14.9 4.19 14.75 4.14 14.75 4.14 14.05 3.95 14.05 3.95 11.68 3.3 10.12 2.87 8 1.03 5.88 2.87 4.32 3.3 1.95 3.95 1.95 3.95 1.25 4.15 1.25 4.15 1.1 4.19 1 4.3 1 4.43 1 4.43 1 5.53 1 5.53 1.15 11.05 3.51 14.88 8 16.91M 8 18C 2.58 15.74 0.16 11.23-0 5.55-0 5.55-0 4.43-0 4.43-0 3.85 0.4 3.34 0.98 3.18 3.79 2.4 5.23 2.13 7.39 0.23 7.57 0.08 7.78 0 8 0 8.22 0 8.43 0.08 8.61 0.23 10.77 2.13 12.21 2.4 15.02 3.18 15.6 3.34 16 3.85 16 4.43 16 4.43 16 5.55 16 5.55 15.84 11.23 13.42 15.74 8 18 8 18 8 18 8 18Z" fill="rgb(215,225,239)"/></g></svg>