<?xml version="1.0" encoding="utf-8"?>
<svg xmlns="http://www.w3.org/2000/svg"
	xmlns:xlink="http://www.w3.org/1999/xlink"
	width="16px" height="18px" viewBox="0 0 16 18">
<g><path fillRule="evenodd" d="M 9 11C 9 11 9 10 9 10 9 10 16 10 16 10 16 10 16 11 16 11 16 11 9 11 9 11M 15 10C 15 10 16 10 16 10 16 10 16 13 16 13 16 13 15 13 15 13 15 13 15 10 15 10M 16 12C 16 12 16 13 16 13 16 13 9 13 9 13 9 13 9 12 9 12 9 12 16 12 16 12M 16 11C 16 11 16 10 16 10 16 10 16 10 16 10 16 10 16 11 16 11 16 11 16 11 16 11ZM 16 10C 16 10 15 10 15 10 15 10 16 10 16 10 16 10 16 10 16 10 16 10 16 10 16 10ZM 16 13C 16 13 16 12 16 12 16 12 16 13 16 13 16 13 16 13 16 13ZM 16 13C 16 13 15 13 15 13 15 13 16 13 16 13 16 13 16 13 16 13Z" fill="rgb(255,255,255)"/><path fillRule="evenodd" d="M 9 10C 9 10 9 11 9 11 9 11 5 11 5 11 5 11 9 15 9 15 9 15 9 13 9 13 9 13 10 13 10 13 10 13 10 15 10 15 10 15 10 17.41 10 17.41 10 17.41 8.29 15.71 8.29 15.71 8.29 15.71 4.29 11.71 4.29 11.71 4.29 11.71 2.59 10 2.59 10 2.59 10 5 10 5 10 5 10 9 10 9 10" fill="rgb(255,255,255)"/><path fillRule="evenodd" d="M 7 7C 7 7 7 8 7 8 7 8 0 8 0 8 0 8 0 7 0 7 0 7 7 7 7 7M 1 8C 1 8 0 8 0 8 0 8 0 5 0 5 0 5 1 5 1 5 1 5 1 8 1 8M 0 6C 0 6 0 5 0 5 0 5 7 5 7 5 7 5 7 6 7 6 7 6 0 6 0 6M 1 8C 1 8 0 8 0 8 0 8 0 8 0 8 0 8 1 8 1 8 1 8 1 8 1 8ZM 0 8C 0 8 0 7 0 7 0 7 0 8 0 8 0 8 0 8 0 8ZM 0 6C 0 6 0 5 0 5 0 5 1 5 1 5 1 5 0 5 0 5 0 5 0 6 0 6 0 6 0 6 0 6Z" fill="rgb(255,255,255)"/><path fillRule="evenodd" d="M 7 8C 7 8 7 7 7 7 7 7 11 7 11 7 11 7 7 3 7 3 7 3 7 5 7 5 7 5 6 5 6 5 6 5 6 3 6 3 6 3 6 0.59 6 0.59 6 0.59 7.71 2.29 7.71 2.29 7.71 2.29 11.71 6.29 11.71 6.29 11.71 6.29 13.41 8 13.41 8 13.41 8 11 8 11 8 11 8 7 8 7 8" fill="rgb(255,255,255)"/></g></svg>