<?xml version="1.0" encoding="utf-8"?>
<svg xmlns="http://www.w3.org/2000/svg"
	xmlns:xlink="http://www.w3.org/1999/xlink"
	width="16px" height="14px" viewBox="0 0 16 14">
<g><g><path fillRule="evenodd" d="M 14 14C 14 14 2 14 2 14 0.68 14-0 13.28-0 12-0 12-0 2-0 2-0 0.72 0.68-0 2-0 2-0 5-0 5-0 6.32-0 7 0.72 7 2 7 2 7 2 7 2 7 2.49 7.49 3 8 3 8 3 14 3 14 3 15.32 3 16 3.72 16 5 16 5 16 12 16 12 16 13.28 15.32 14 14 14Z" fill="rgb(50,64,81)"/><path fillRule="evenodd" d="M 14 13C 14.75 13 15 12.75 15 12 15 12 15 5 15 5 15 4.25 14.75 4 14 4 14 4 8 4 8 4 6.95 4 6 3.05 6 2 6 1.25 5.75 1 5 1 5 1 2 1 2 1 1.25 1 1 1.25 1 2 1 2 1 12 1 12 1 12.75 1.25 13 2 13 2 13 14 13 14 13M 14 14C 14 14 2 14 2 14 0.68 14-0 13.28-0 12-0 12-0 2-0 2-0 0.72 0.68-0 2-0 2-0 5-0 5-0 6.32-0 7 0.72 7 2 7 2.49 7.49 3 8 3 8 3 14 3 14 3 15.32 3 16 3.72 16 5 16 5 16 12 16 12 16 13.28 15.32 14 14 14 14 14 14 14 14 14Z" fill="rgb(215,225,239)"/></g><g><path fillRule="evenodd" d="M 4 8C 4 8 7 11 7 11 7 11 12 6 12 6" fill="rgb(50,64,81)"/><path fillRule="evenodd" d="M 3.65 8.35C 3.65 8.35 7 11.71 7 11.71 7 11.71 12.35 6.35 12.35 6.35 12.35 6.35 11.65 5.65 11.65 5.65 11.65 5.65 7 10.29 7 10.29 7 10.29 4.35 7.65 4.35 7.65 4.35 7.65 3.65 8.35 3.65 8.35 3.65 8.35 3.65 8.35 3.65 8.35Z" fill="rgb(215,225,239)"/></g></g></svg>