<?xml version="1.0" encoding="utf-8"?>
<svg xmlns="http://www.w3.org/2000/svg"
	xmlns:xlink="http://www.w3.org/1999/xlink"
	width="16px" height="14px" viewBox="0 0 16 14">
<path fillRule="evenodd" d="M 14 13C 14.75 13 15 12.75 15 12 15 12 15 5 15 5 15 4.25 14.75 4 14 4 14 4 8 4 8 4 6.95 4 6 3.05 6 2 6 1.25 5.75 1 5 1 5 1 2 1 2 1 1.25 1 1 1.25 1 2 1 2 1 12 1 12 1 12.75 1.25 13 2 13 2 13 14 13 14 13M 14 14C 14 14 2 14 2 14 0.68 14-0 13.28-0 12-0 12-0 2-0 2-0 0.72 0.68-0 2-0 2-0 5-0 5-0 6.32-0 7 0.72 7 2 7 2.49 7.49 3 8 3 8 3 14 3 14 3 15.32 3 16 3.72 16 5 16 5 16 12 16 12 16 13.28 15.32 14 14 14 14 14 14 14 14 14Z"/></svg>