<?xml version="1.0" encoding="utf-8"?>
<svg xmlns="http://www.w3.org/2000/svg"
	xmlns:xlink="http://www.w3.org/1999/xlink"
	width="16px" height="16px" viewBox="0 0 16 16">
<g><g><path fillRule="evenodd" d="M 15 16C 15 16 1 16 1 16 0.45 16-0 15.55-0 15-0 15-0 13-0 13-0 12.45 0.45 12 1 12 1 12 15 12 15 12 15.55 12 16 12.45 16 13 16 13 16 15 16 15 16 15.55 15.55 16 15 16ZM 15 4C 15 4 1 4 1 4 0.45 4-0 3.55-0 3-0 3-0 1-0 1-0 0.45 0.45-0 1-0 1-0 15-0 15-0 15.55-0 16 0.45 16 1 16 1 16 3 16 3 16 3.55 15.55 4 15 4ZM 1 6C 1 6 9 6 9 6 9.55 6 10 6.45 10 7 10 7 10 9 10 9 10 9.55 9.55 10 9 10 9 10 1 10 1 10 0.45 10-0 9.55-0 9-0 9-0 7-0 7-0 6.45 0.45 6 1 6Z" fill="rgb(43,55,71)"/><path fillRule="evenodd" d="M 15 15C 15 15 15 15 15 15 15 15 15 13 15 13 15 13 1 13 1 13 1 13 1 15 1 15 1 15 15 15 15 15M 9 9C 9 9 9 9 9 9 9 9 9 7 9 7 9 7 1 7 1 7 1 7 1 9 1 9 1 9 9 9 9 9M 15 3C 15 3 15 3 15 3 15 3 15 1 15 1 15 1 1 1 1 1 1 1 1 3 1 3 1 3 15 3 15 3M 15 16C 15 16 1 16 1 16 0.45 16 0 15.55 0 15 0 15 0 13 0 13 0 12.45 0.45 12 1 12 1 12 15 12 15 12 15.55 12 16 12.45 16 13 16 13 16 15 16 15 16 15.55 15.55 16 15 16 15 16 15 16 15 16ZM 9 10C 9 10 1 10 1 10 0.45 10 0 9.55 0 9 0 9 0 7 0 7 0 6.45 0.45 6 1 6 1 6 9 6 9 6 9.55 6 10 6.45 10 7 10 7 10 9 10 9 10 9.55 9.55 10 9 10 9 10 9 10 9 10ZM 15 4C 15 4 1 4 1 4 0.45 4 0 3.55 0 3 0 3 0 1 0 1 0 0.45 0.45-0 1-0 1-0 15-0 15-0 15.55-0 16 0.45 16 1 16 1 16 3 16 3 16 3.55 15.55 4 15 4 15 4 15 4 15 4Z" fill="rgb(115,133,153)"/></g><g><path fillRule="evenodd" d="M 16 11C 16 11 11 8 11 8 11 8 16 5 16 5 16 5 16 11 16 11Z" fill="rgb(43,55,71)"/><path fillRule="evenodd" d="M 15 9.23C 15 9.23 15 6.77 15 6.77 15 6.77 12.94 8 12.94 8 12.94 8 15 9.23 15 9.23M 16 11C 16 11 11 8 11 8 11 8 16 5 16 5 16 5 16 11 16 11 16 11 16 11 16 11Z" fill="rgb(247,63,83)"/></g></g></svg>