<?xml version="1.0" encoding="utf-8"?>
<!-- Generator: Adobe Illustrator 16.0.0, SVG Export Plug-In . SVG Version: 6.00 Build 0)  -->
<!DOCTYPE svg PUBLIC "-//W3C//DTD SVG 1.1//EN" "http://www.w3.org/Graphics/SVG/1.1/DTD/svg11.dtd">
<svg version="1.1" id="Layer_1" xmlns="http://www.w3.org/2000/svg" xmlns:xlink="http://www.w3.org/1999/xlink" x="0px" y="0px"
	 width="18px" height="18px" viewBox="0 0 18 18" enable-background="new 0 0 18 18" xml:space="preserve">
<path style="fill:#b2bed1;" fill-rule="evenodd" clip-rule="evenodd" d="M16.865,15.064c0,0-5.65,1.536-7.312,1.896c-0.047,0.01-0.047,0.012-0.047,0.014
	C8.918,16.945,4,15,4,15v1c0,0.553-0.448,1-1,1H1c-0.552,0-1-0.447-1-1v-4c0-0.553,0.448-1,1-1h2c0.031,0,0.057,0.015,0.086,0.018
	C3.288,10.428,3.841,10,4.5,10h7c0.828,0,1.5,0.672,1.5,1.5c0,0.369-0.139,0.703-0.36,0.965L16,12c1.262,0,1.984,0.488,1.984,1.449
	C17.984,14.303,17.687,14.842,16.865,15.064z M3,12H1v4h2V12z M16.003,13l-6.99,0.998L9,14l-1-1H7.5C7.224,13,7,12.775,7,12.5
	S7.224,12,7.5,12H8h1h0.5H10h1.5c0.275,0,0.5-0.225,0.5-0.5S11.775,11,11.5,11h-7C4.224,11,4,11.225,4,11.5s0,0.031,0,0.5v0.908V14
	l5.5,1.938l6.935-1.743c0.409-0.089,0.558-0.272,0.558-0.614C16.992,13.195,16.632,13,16.003,13z"/>
<g>
	<g>
		<path style="fill:#b2bed1;" fill-rule="evenodd" clip-rule="evenodd" d="M12,1H3.5C3.224,1,3,1.224,3,1.5C3,1.776,3.224,2,3.5,2H12c1.104,0,2,0.896,2,2
			s-0.896,2-2,2H7V4L3,6.475L7,9V7h5c1.656,0,3-1.344,3-3C15,2.343,13.656,1,12,1z"/>
	</g>
</g>
</svg>
