<?xml version="1.0" encoding="utf-8"?>
<svg xmlns="http://www.w3.org/2000/svg"
	xmlns:xlink="http://www.w3.org/1999/xlink"
	width="16px" height="16px" viewBox="0 0 16 16">
<clipPath id="clip0"><path fillRule="evenodd" d="M 8 16C 3.58 16-0 12.42-0 8-0 3.58 3.58-0 8-0 12.42-0 16 3.58 16 8 16 12.42 12.42 16 8 16ZM 8 5C 6.34 5 5 6.34 5 8 5 9.66 6.34 11 8 11 9.66 11 11 9.66 11 8 11 6.34 9.66 5 8 5Z"/></clipPath><g><g><path fillRule="evenodd" d="M 8 16C 3.58 16-0 12.42-0 8-0 3.58 3.58-0 8-0 12.42-0 16 3.58 16 8 16 12.42 12.42 16 8 16ZM 8 5C 6.34 5 5 6.34 5 8 5 9.66 6.34 11 8 11 9.66 11 11 9.66 11 8 11 6.34 9.66 5 8 5Z" fill="rgb(27,37,47)"/><path fillRule="evenodd" d="M 8 15C 11.86 15 15 11.86 15 8 15 4.14 11.86 1 8 1 4.14 1 1 4.14 1 8 1 11.86 4.14 15 8 15M 8 4C 10.21 4 12 5.79 12 8 12 10.21 10.21 12 8 12 5.79 12 4 10.21 4 8 4 5.79 5.79 4 8 4M 8 16C 3.58 16-0 12.42-0 8-0 3.58 3.58-0 8-0 12.42-0 16 3.58 16 8 16 12.42 12.42 16 8 16 8 16 8 16 8 16ZM 8 5C 6.34 5 5 6.34 5 8 5 9.66 6.34 11 8 11 9.66 11 11 9.66 11 8 11 6.34 9.66 5 8 5 8 5 8 5 8 5Z" fill="rgb(84,101,124)"/></g><g><g><path fillRule="evenodd" d="M 8 16C 3.58 16-0 12.42-0 8-0 3.58 3.58-0 8-0 12.42-0 16 3.58 16 8 16 12.42 12.42 16 8 16ZM 8 5C 6.34 5 5 6.34 5 8 5 9.66 6.34 11 8 11 9.66 11 11 9.66 11 8 11 6.34 9.66 5 8 5Z" fill="rgb(27,37,47)"/><g clip-path="url(#clip0)"><path fillRule="evenodd" d="M 15 12C 15 12 12 15 12 15 12 15 8 11 8 11 8 11 4 15 4 15 4 15 1 12 1 12 1 12 5 8 5 8 5 9.66 6.34 11 8 11 9.66 11 11 9.66 11 8 11 6.34 9.66 5 8 5 8 5 12 1 12 1 12 1 15 4 15 4 15 4 11 8 11 8 11 8 15 12 15 12ZM 5 8C 5 8 5 8 5 8 5 8 1 4 1 4 1 4 4 1 4 1 4 1 8 5 8 5 6.34 5 5 6.34 5 8Z" fill="rgb(11,15,23)"/><path fillRule="evenodd" d="M 12 13.59C 12 13.59 13.59 12 13.59 12 13.59 12 11.51 9.92 11.51 9.92 11.14 10.59 10.59 11.14 9.92 11.51 9.92 11.51 12 13.59 12 13.59M 4 13.59C 4 13.59 6.08 11.51 6.08 11.51 5.41 11.14 4.86 10.59 4.49 9.92 4.49 9.92 2.41 12 2.41 12 2.41 12 4 13.59 4 13.59M 4.49 6.08C 4.86 5.41 5.41 4.86 6.08 4.49 6.08 4.49 4 2.41 4 2.41 4 2.41 2.41 4 2.41 4 2.41 4 4.49 6.08 4.49 6.08M 11.51 6.08C 11.51 6.08 13.59 4 13.59 4 13.59 4 12 2.41 12 2.41 12 2.41 9.92 4.49 9.92 4.49 10.59 4.86 11.14 5.41 11.51 6.08M 12 15C 12 15 8 11 8 11 8 11 4 15 4 15 4 15 1 12 1 12 1 12 5 8 5 8 5 9.66 6.34 11 8 11 9.66 11 11 9.66 11 8 11 8 15 12 15 12 15 12 12 15 12 15 12 15 12 15 12 15ZM 11 8C 11 6.34 9.66 5 8 5 8 5 12 1 12 1 12 1 15 4 15 4 15 4 11 8 11 8 11 8 11 8 11 8ZM 5 8C 5 8 1 4 1 4 1 4 4 1 4 1 4 1 8 5 8 5 6.34 5 5 6.34 5 8 5 8 5 8 5 8Z" fill="rgb(84,101,124)"/></g></g><path fillRule="evenodd" d="M 8 15C 11.86 15 15 11.86 15 8 15 4.14 11.86 1 8 1 4.14 1 1 4.14 1 8 1 11.86 4.14 15 8 15M 8 4C 10.21 4 12 5.79 12 8 12 10.21 10.21 12 8 12 5.79 12 4 10.21 4 8 4 5.79 5.79 4 8 4M 8 16C 3.58 16-0 12.42-0 8-0 3.58 3.58-0 8-0 12.42-0 16 3.58 16 8 16 12.42 12.42 16 8 16 8 16 8 16 8 16ZM 8 5C 6.34 5 5 6.34 5 8 5 9.66 6.34 11 8 11 9.66 11 11 9.66 11 8 11 6.34 9.66 5 8 5 8 5 8 5 8 5Z" fill="rgb(84,101,124)"/></g></g></svg>