<?xml version="1.0" encoding="utf-8"?>
<svg xmlns="http://www.w3.org/2000/svg"
	xmlns:xlink="http://www.w3.org/1999/xlink"
	width="29px" height="29px" viewBox="0 0 29 29">
<filter filterUnits="objectBoundingBox" x="-12.00" y="-12.00" width="124.00" height="128.00" id="filter0">
<feGaussianBlur in="SourceAlpha" stdDeviation="1.50" result="dsBlurOut1"/>
<feFlood flood-color="rgb(0,0,0)" flood-opacity="0.25" result="dsFloodOut1"/>
<feComposite in="dsFloodOut1" in2="dsBlurOut1" operator="in" result="dsShadow1"/>
<feOffset in="dsShadow1" dx="-0.00" dy="2.00" result="dsOffset1"/>
<feComposite in="dsOffset1" in2="SourceAlpha" operator="out" result="dropShadow1"/>
<feBlend in="dropShadow1" in2="SourceGraphic" mode="normal" result="sourceGraphic"/>
</filter>
<g><circle cx="14.50" cy="12.50" r="12.50" fill="rgb(255,119,19)" filter="url(#filter0)"/><g><path fillRule="evenodd" d="M 10 12C 10 12 9 12 9 12 9 8.69 11.69 6 15 6 18.31 6 21 8.69 21 12 21 15.31 18.31 18 15 18 11.84 18 10.08 15.96 9.38 14 9.38 14 10.32 13.66 10.32 13.66 10.68 14.66 11.86 17 15 17 17.76 17 20 14.76 20 12 20 9.24 17.76 7 15 7 12.24 7 10 9.24 10 12" fill="rgb(255,255,255)"/><path fillRule="evenodd" d="M 12 11C 12 11 12 12 12 12 12 12 8 12 8 12 8 12 8 11 8 11 8 11 12 11 12 11M 9 12C 9 12 8 12 8 12 8 12 8 8 8 8 8 8 9 8 9 8 9 8 9 12 9 12M 9 12C 9 12 8 12 8 12 8 12 8 12 8 12 8 12 9 12 9 12 9 12 9 12 9 12ZM 8 12C 8 12 8 11 8 11 8 11 8 12 8 12 8 12 8 12 8 12Z" fill="rgb(255,255,255)"/><path fillRule="evenodd" d="M 14 9C 14 9 15 9 15 9 15 9 15 13 15 13 15 13 14 13 14 13 14 13 14 9 14 9" fill="rgb(255,255,255)"/><path fillRule="evenodd" d="M 17.55 14.17C 17.55 14.17 17 15 17 15 17 15 14 13 14 13 14 13 14.55 12.17 14.55 12.17 14.55 12.17 17.55 14.17 17.55 14.17" fill="rgb(255,255,255)"/></g></g></svg>