<?xml version="1.0" encoding="utf-8"?>
<svg xmlns="http://www.w3.org/2000/svg"
	xmlns:xlink="http://www.w3.org/1999/xlink"
	width="32px" height="32px" viewBox="0 0 32 32">
<g><g><circle cx="16.00" cy="16.00" r="16.00" fill="rgb(229,255,239)"/><path fillRule="evenodd" d="M 16 31C 24.27 31 31 24.27 31 16 31 7.73 24.27 1 16 1 7.73 1 1 7.73 1 16 1 24.27 7.73 31 16 31M 16 32C 7.16 32 0 24.84 0 16 0 7.16 7.16-0 16-0 24.84-0 32 7.16 32 16 32 24.84 24.84 32 16 32 16 32 16 32 16 32Z" fill="rgb(53,189,99)"/></g><g><g><rect x="9" y="11" width="14" height="12" rx="2" fill="rgb(255,255,255)"/><path fillRule="evenodd" d="M 21 22C 21.55 22 22 21.55 22 21 22 21 22 13 22 13 22 12.45 21.55 12 21 12 21 12 11 12 11 12 10.45 12 10 12.45 10 13 10 13 10 21 10 21 10 21.55 10.45 22 11 22 11 22 21 22 21 22M 21 23C 21 23 11 23 11 23 9.9 23 9 22.1 9 21 9 21 9 13 9 13 9 11.9 9.9 11 11 11 11 11 21 11 21 11 22.1 11 23 11.9 23 13 23 13 23 21 23 21 23 22.1 22.1 23 21 23 21 23 21 23 21 23Z" fill="rgb(53,189,99)"/></g><g><path fillRule="evenodd" d="M 13.5 9C 13.78 9 14 9.22 14 9.5 14 9.5 14 13.5 14 13.5 14 13.78 13.78 14 13.5 14 13.22 14 13 13.78 13 13.5 13 13.5 13 9.5 13 9.5 13 9.22 13.22 9 13.5 9ZM 18.5 9C 18.78 9 19 9.22 19 9.5 19 9.5 19 13.5 19 13.5 19 13.78 18.78 14 18.5 14 18.22 14 18 13.78 18 13.5 18 13.5 18 9.5 18 9.5 18 9.22 18.22 9 18.5 9Z" fill="rgb(255,255,255)"/><path fillRule="evenodd" d="M 18.5 14C 18.22 14 18 13.78 18 13.5 18 13.5 18 9.5 18 9.5 18 9.22 18.22 9 18.5 9 18.78 9 19 9.22 19 9.5 19 9.5 19 13.5 19 13.5 19 13.78 18.78 14 18.5 14 18.5 14 18.5 14 18.5 14ZM 13.5 14C 13.22 14 13 13.78 13 13.5 13 13.5 13 9.5 13 9.5 13 9.22 13.22 9 13.5 9 13.78 9 14 9.22 14 9.5 14 9.5 14 13.5 14 13.5 14 13.78 13.78 14 13.5 14 13.5 14 13.5 14 13.5 14Z" fill="rgb(53,189,99)"/></g><g><path fillRule="evenodd" d="M 17 19C 17 19 17 16 17 16 17 16 20 16 20 16 20 16 20 19 20 19 20 19 17 19 17 19ZM 12 16C 12 16 15 16 15 16 15 16 15 19 15 19 15 19 12 19 12 19 12 19 12 16 12 16Z" fill="rgb(255,255,255)"/><path fillRule="evenodd" d="M 19 18C 19 18 19 17 19 17 19 17 18 17 18 17 18 17 18 18 18 18 18 18 19 18 19 18M 14 18C 14 18 14 17 14 17 14 17 13 17 13 17 13 17 13 18 13 18 13 18 14 18 14 18M 20 19C 20 19 17 19 17 19 17 19 17 16 17 16 17 16 20 16 20 16 20 16 20 19 20 19 20 19 20 19 20 19ZM 15 19C 15 19 12 19 12 19 12 19 12 16 12 16 12 16 15 16 15 16 15 16 15 19 15 19 15 19 15 19 15 19Z" fill="rgb(53,189,99)"/></g></g></g></svg>