<?xml version="1.0" encoding="utf-8"?>
<svg xmlns="http://www.w3.org/2000/svg"
	xmlns:xlink="http://www.w3.org/1999/xlink"
	width="14px" height="14px" viewBox="0 0 14 14">
<g><path fillRule="evenodd" d="M 7.65 8.35C 7.65 8.35 12.65 13.35 12.65 13.35 12.65 13.35 13.35 12.65 13.35 12.65 13.35 12.65 8.35 7.65 8.35 7.65" fill="rgb(129,147,157)"/><path fillRule="evenodd" d="M 5 9C 7.21 9 9 7.21 9 5 9 2.79 7.21 1 5 1 2.79 1 1 2.79 1 5 1 7.21 2.79 9 5 9M 5 10C 2.24 10-0 7.76-0 5-0 2.24 2.24-0 5-0 7.76-0 10 2.24 10 5 10 7.76 7.76 10 5 10 5 10 5 10 5 10Z" fill="rgb(129,147,157)"/></g></svg>