<?xml version="1.0" encoding="utf-8"?>
<svg xmlns="http://www.w3.org/2000/svg"
	xmlns:xlink="http://www.w3.org/1999/xlink"
	width="32px" height="32px" viewBox="0 0 32 32">
<g><path fillRule="evenodd" d="M 16 31C 24.27 31 31 24.27 31 16 31 7.73 24.27 1 16 1 7.73 1 1 7.73 1 16 1 24.27 7.73 31 16 31M 16 32C 7.16 32-0 24.84-0 16-0 7.16 7.16-0 16-0 24.84-0 32 7.16 32 16 32 24.84 24.84 32 16 32 16 32 16 32 16 32Z" fill="rgb(188,205,224)"/><path fillRule="evenodd" d="M 14.01 20.78C 14.01 20.78 20.72 16 20.72 16 20.72 16 14 11.22 14 11.22 14 11.22 14.01 20.78 14.01 20.78M 13.84 22.01C 13.34 22.01 13 21.62 13 21.07 13 21.07 13 10.93 13 10.93 13 10.38 13.34 9.99 13.84 9.99 14.04 9.99 14.38 10.26 14.53 10.37 14.53 10.37 21.66 15.44 21.66 15.44 22.14 15.78 22.1 16.2 21.66 16.56 21.66 16.56 14.53 21.63 14.53 21.63 14.37 21.77 14.06 22.01 13.84 22.01 13.84 22.01 13.84 22.01 13.84 22.01Z" fill="rgb(131,151,175)"/></g></svg>