<?xml version="1.0" encoding="utf-8"?>
<svg xmlns="http://www.w3.org/2000/svg"
	xmlns:xlink="http://www.w3.org/1999/xlink"
	width="32px" height="32px" viewBox="0 0 32 32">
<g><path fillRule="evenodd" d="M 16 31C 24.27 31 31 24.27 31 16 31 7.73 24.27 1 16 1 7.73 1 1 7.73 1 16 1 24.27 7.73 31 16 31M 16 32C 7.16 32-0 24.84-0 16-0 7.16 7.16-0 16-0 24.84-0 32 7.16 32 16 32 24.84 24.84 32 16 32 16 32 16 32 16 32Z" fill="rgb(188,205,224)"/><g><path fillRule="evenodd" d="M 14.65 19.35C 14.65 19.35 18.03 22.74 18.03 22.74 18.03 22.74 23.38 16.32 23.38 16.32 23.38 16.32 22.62 15.68 22.62 15.68 22.62 15.68 17.97 21.26 17.97 21.26 17.97 21.26 15.35 18.65 15.35 18.65 15.35 18.65 14.65 19.35 14.65 19.35 14.65 19.35 14.65 19.35 14.65 19.35Z" fill="rgb(131,151,175)"/><path fillRule="evenodd" d="M 12 21C 12 21 12 20 12 20 12 20 10 20 10 20 10 20 10 21 10 21 10 21 12 21 12 21M 18 16C 18 16 18 15 18 15 18 15 15 15 15 15 15 15 15 16 15 16 15 16 18 16 18 16 18 16 18 16 18 16M 12 16C 12 16 12 15 12 15 12 15 10 15 10 15 10 15 10 16 10 16 10 16 12 16 12 16M 22 11C 22 11 22 11 22 11 22 11 22 10 22 10 22 10 15 10 15 10 15 10 15 11 15 11 15 11 22 11 22 11M 12 11C 12 11 12 10 12 10 12 10 10 10 10 10 10 10 10 11 10 11 10 11 12 11 12 11M 12 22C 12 22 10 22 10 22 9.45 22 9 21.55 9 21 9 21 9 20 9 20 9 19.45 9.45 19 10 19 10 19 12 19 12 19 12.55 19 13 19.45 13 20 13 20 13 21 13 21 13 21.55 12.55 22 12 22 12 22 12 22 12 22ZM 18 17C 18 17 15 17 15 17 14.45 17 14 16.55 14 16 14 16 14 15 14 15 14 14.45 14.45 14 15 14 15 14 18 14 18 14 18.55 14 19 14.45 19 15 19 15 19 16 19 16 19 16.55 18.55 17 18 17 18 17 18 17 18 17ZM 12 17C 12 17 10 17 10 17 9.45 17 9 16.55 9 16 9 16 9 15 9 15 9 14.45 9.45 14 10 14 10 14 12 14 12 14 12.55 14 13 14.45 13 15 13 15 13 16 13 16 13 16.55 12.55 17 12 17 12 17 12 17 12 17ZM 22 12C 22 12 15 12 15 12 14.45 12 14 11.55 14 11 14 11 14 10 14 10 14 9.45 14.45 9 15 9 15 9 22 9 22 9 22.55 9 23 9.45 23 10 23 10 23 11 23 11 23 11.55 22.55 12 22 12 22 12 22 12 22 12ZM 12 12C 12 12 10 12 10 12 9.45 12 9 11.55 9 11 9 11 9 10 9 10 9 9.45 9.45 9 10 9 10 9 12 9 12 9 12.55 9 13 9.45 13 10 13 10 13 11 13 11 13 11.55 12.55 12 12 12 12 12 12 12 12 12Z" fill="rgb(131,151,175)"/></g></g></svg>