<?xml version="1.0" encoding="utf-8"?>
<svg xmlns="http://www.w3.org/2000/svg"
	xmlns:xlink="http://www.w3.org/1999/xlink"
	width="32px" height="32px" viewBox="0 0 32 32">
<g><path fillRule="evenodd" d="M 16 31C 24.27 31 31 24.27 31 16 31 7.73 24.27 1 16 1 7.73 1 1 7.73 1 16 1 24.27 7.73 31 16 31M 16 32C 7.16 32 0 24.84 0 16 0 7.16 7.16-0 16-0 24.84-0 32 7.16 32 16 32 24.84 24.84 32 16 32 16 32 16 32 16 32Z" fill="rgb(188,205,224)"/><g><path fillRule="evenodd" d="M 11 16C 11 16 10 16 10 16 10 12.13 13.13 9 17 9 20.87 9 24 12.13 24 16 24 19.87 20.87 23 17 23 15.23 23 13.62 22.35 12.39 21.27 12.39 21.27 13.05 20.51 13.05 20.51 14.14 21.47 15.54 22 17 22 20.31 22 23 19.31 23 16 23 12.69 20.31 10 17 10 13.69 10 11 12.69 11 16" fill="rgb(131,151,175)"/><path fillRule="evenodd" d="M 12.23 14.36C 12.23 14.36 13 15 13 15 13 15 10.5 18 10.5 18 10.5 18 9.73 17.36 9.73 17.36 9.73 17.36 12.23 14.36 12.23 14.36M 11.27 17.36C 11.27 17.36 10.5 18 10.5 18 10.5 18 8 15 8 15 8 15 8.77 14.36 8.77 14.36 8.77 14.36 11.27 17.36 11.27 17.36M 10.5 18C 10.5 18 11.27 17.36 11.27 17.36 11.27 17.36 10.5 18 10.5 18 10.5 18 10.5 18 10.5 18ZM 10.5 18C 10.5 18 9.73 17.36 9.73 17.36 9.73 17.36 10.5 18 10.5 18 10.5 18 10.5 18 10.5 18Z" fill="rgb(131,151,175)"/><path fillRule="evenodd" d="M 16 13C 16 13 17 13 17 13 17 13 17 17 17 17 17 17 16 17 16 17 16 17 16 13 16 13" fill="rgb(131,151,175)"/><path fillRule="evenodd" d="M 20 16C 20 16 20 17 20 17 20 17 16 17 16 17 16 17 16 16 16 16 16 16 20 16 20 16" fill="rgb(131,151,175)"/></g></g></svg>