<?xml version="1.0" encoding="utf-8"?>
<svg xmlns="http://www.w3.org/2000/svg"
	xmlns:xlink="http://www.w3.org/1999/xlink"
	width="16px" height="16px" viewBox="0 0 16 16">
<g><path fillRule="evenodd" d="M 14 15C 14.55 15 15 14.55 15 14 15 14 15 4 15 4 15 3.45 14.55 3 14 3 14 3 2 3 2 3 1.45 3 1 3.45 1 4 1 4 1 14 1 14 1 14.55 1.45 15 2 15 2 15 14 15 14 15M 14 16C 14 16 2 16 2 16 0.9 16-0 15.1-0 14-0 14-0 4-0 4-0 2.9 0.9 2 2 2 2 2 14 2 14 2 15.1 2 16 2.9 16 4 16 4 16 14 16 14 16 15.1 15.1 16 14 16 14 16 14 16 14 16Z" fill="rgb(115,133,153)"/><path fillRule="evenodd" d="M 10.5 5C 10.22 5 10 4.78 10 4.5 10 4.5 10 0.5 10 0.5 10 0.22 10.22-0 10.5-0 10.78-0 11 0.22 11 0.5 11 0.5 11 4.5 11 4.5 11 4.78 10.78 5 10.5 5 10.5 5 10.5 5 10.5 5ZM 5.5 5C 5.22 5 5 4.78 5 4.5 5 4.5 5 0.5 5 0.5 5 0.22 5.22-0 5.5-0 5.78-0 6 0.22 6 0.5 6 0.5 6 4.5 6 4.5 6 4.78 5.78 5 5.5 5 5.5 5 5.5 5 5.5 5Z" fill="rgb(115,133,153)"/><path fillRule="evenodd" d="M 12 10C 12 10 12 8 12 8 12 8 10 8 10 8 10 8 10 10 10 10 10 10 12 10 12 10M 6 10C 6 10 6 8 6 8 6 8 4 8 4 8 4 8 4 10 4 10 4 10 6 10 6 10M 13 11C 13 11 9 11 9 11 9 11 9 7 9 7 9 7 13 7 13 7 13 7 13 11 13 11 13 11 13 11 13 11ZM 7 11C 7 11 3 11 3 11 3 11 3 7 3 7 3 7 7 7 7 7 7 7 7 11 7 11 7 11 7 11 7 11Z" fill="rgb(115,133,153)"/></g></svg>