<?xml version="1.0" encoding="utf-8"?>
<svg xmlns="http://www.w3.org/2000/svg"
	xmlns:xlink="http://www.w3.org/1999/xlink"
	width="5px" height="12px" viewBox="0 0 5 12">
<g><g><path fillRule="evenodd" d="M 2.44 9C 3.27 8.97 3.96 9.61 3.99 10.44 4.03 11.27 3.38 11.96 2.56 12 1.73 12.03 1.04 11.39 1.01 10.56 0.97 9.73 1.62 9.03 2.44 9Z" fill="rgb(255,229,232)"/><path fillRule="evenodd" d="M 2.5 12C 1.7 12 1.04 11.37 1.01 10.56 0.97 9.73 1.62 9.03 2.44 9 2.46 9 2.48 9 2.5 9 3.3 9 3.96 9.63 3.99 10.44 4.03 11.27 3.38 11.96 2.56 12 2.54 12 2.52 12 2.5 12 2.5 12 2.5 12 2.5 12Z" fill="rgb(247,63,83)"/></g><g><path fillRule="evenodd" d="M 2.5-0C 3.8-0 5 1.3 5 3 5 5.23 3.44 8 2.5 8 1.56 8 0.01 5.22-0 3-0.01 1.29 1.19-0 2.5-0Z" fill="rgb(255,229,232)"/><path fillRule="evenodd" d="M 2.5 6.91C 3.03 6.42 4 4.62 4 3 4 2.38 3.78 1.81 3.39 1.42 3.12 1.15 2.81 1 2.5 1 2.19 1 1.87 1.15 1.6 1.42 1.22 1.8 1 2.38 1 3 1.01 4.62 1.97 6.41 2.5 6.91M 2.5 8C 1.56 8 0.01 5.22-0 3-0.01 1.29 1.19-0 2.5-0 3.8-0 5 1.3 5 3 5 5.23 3.44 8 2.5 8 2.5 8 2.5 8 2.5 8Z" fill="rgb(247,63,83)"/></g></g></svg>