<?xml version="1.0" encoding="utf-8"?>
<svg xmlns="http://www.w3.org/2000/svg"
	xmlns:xlink="http://www.w3.org/1999/xlink"
	width="16px" height="16px" viewBox="0 0 16 16">
<g><path fillRule="evenodd" d="M 8 15C 11.86 15 15 11.86 15 8 15 4.14 11.86 1 8 1 4.14 1 1 4.14 1 8 1 11.86 4.14 15 8 15M 8 16C 3.58 16-0 12.42-0 8-0 3.58 3.58-0 8-0 12.42-0 16 3.58 16 8 16 12.42 12.42 16 8 16 8 16 8 16 8 16Z" fill="rgb(115,133,153)"/><path fillRule="evenodd" d="M 8 3.99C 8 3.99 7.99 9 7.99 9 7.99 9 6.99 9 6.99 9 6.99 9 7 3.99 7 3.99 7 3.99 8 3.99 8 3.99 8 3.99 8 3.99 8 3.99ZM 6.99 8C 6.99 8 12 8 12 8 12 8 12 9 12 9 12 9 6.99 9 6.99 9 6.99 9 6.99 8 6.99 8 6.99 8 6.99 8 6.99 8ZM 7.99 9C 7.99 9 6.99 9 6.99 9 6.99 9 6.99 9 6.99 9 6.99 9 7.99 9 7.99 9 7.99 9 7.99 9 7.99 9ZM 6.99 9C 6.99 9 6.99 8 6.99 8 6.99 8 6.99 9 6.99 9 6.99 9 6.99 9 6.99 9Z" fill="rgb(115,133,153)"/></g></svg>