<svg xmlns="http://www.w3.org/2000/svg" viewBox="0 0 31 34" width="31" height="34">
	<style>
		tspan { white-space:pre }
		.shp0 { fill: #abb9cd } 
	</style>
	<path id="Rounded Rectangle 594" class="shp0" d="M26.92 15L29.89 11.83C30.96 10.68 31.29 8.96 30.7 7.47C30.12 5.97 28.76 5 27.24 5L21.61 5C21.61 2.79 19.94 1 17.86 1L10.36 1C9.48 1 7.5 1 6.61 1L4.74 1C2.67 1 0.99 2.79 0.99 5L0.99 29C0.99 31.21 2.93 33 5 33L7 33C9.07 33 11 31.21 11 29L11 21L14.11 21C14.11 23.21 15.79 25 17.86 25L27.24 25C28.76 25 30.12 24.03 30.7 22.53C31.29 21.04 30.96 19.32 29.89 18.17L26.92 15ZM7 29L5 29L5 5L7 5L7 29ZM17.86 21L17.86 17L11 17L11 5L18 5L18 9L27.24 9L21.61 15L27.24 21L17.86 21Z" />
</svg>