<?xml version="1.0" encoding="utf-8"?>
<svg xmlns="http://www.w3.org/2000/svg"
	xmlns:xlink="http://www.w3.org/1999/xlink"
	width="16px" height="16px" viewBox="0 0 16 16">
<g><path fillRule="evenodd" d="M 15.15 11.15C 14.19 10.31 12 7.6 12 5 12 3.03 11.23 1.86 9.48 1.25 9.36 0.54 8.74-0 8-0 7.26-0 6.64 0.54 6.52 1.25 4.77 1.86 4 3.03 4 5 4 7.6 1.81 10.31 0.85 11.15 0.31 11.61-0 12.29-0 13-0 13.83 0.17 14 1 14 1 14 6 14 6 14 6 14.83 7.17 16 8 16 8.83 16 10 14.83 10 14 10 14 15 14 15 14 15.83 14 16 13.83 16 13 16 12.29 15.69 11.61 15.15 11.15Z" fill="rgb(27,37,47)"/><path fillRule="evenodd" d="M 8 15C 8.31 14.96 8.97 14.3 9 14 9 14 9 13 9 13 9 13 10 13 10 13 10 13 15 13 15 13 15 13 15 13 15 13 15 13 15 13 15 13 15 12.58 14.82 12.18 14.5 11.9 13.36 10.92 11 7.93 11 5 11 3.45 10.48 2.66 9.15 2.2 9.15 2.2 8.59 2 8.59 2 8.59 2 8.49 1.42 8.49 1.42 8.45 1.17 8.24 1 8 1 7.76 1 7.55 1.17 7.51 1.42 7.51 1.42 7.41 2 7.41 2 7.41 2 6.85 2.2 6.85 2.2 5.52 2.66 5 3.45 5 5 5 7.93 2.64 10.92 1.5 11.9 1.18 12.18 1 12.58 1 13 1 13 1 13 1 13 1 13 6 13 6 13 6 13 6.92 13.08 6.92 13.08 6.92 13.08 7 13.99 7 13.99 7.03 14.3 7.69 14.96 8 15M 8 16C 7.17 16 6 14.83 6 14 6 14 1 14 1 14 0.17 14-0 13.83-0 13-0 12.29 0.31 11.61 0.85 11.15 1.81 10.31 4 7.6 4 5 4 3.03 4.77 1.86 6.52 1.25 6.64 0.54 7.26-0 8-0 8.74-0 9.36 0.54 9.48 1.25 11.23 1.86 12 3.03 12 5 12 7.6 14.19 10.31 15.15 11.15 15.69 11.61 16 12.29 16 13 16 13.83 15.83 14 15 14 15 14 10 14 10 14 10 14.83 8.83 16 8 16 8 16 8 16 8 16Z" fill="rgb(84,101,124)"/></g></svg>