<?xml version="1.0" encoding="utf-8"?>
<svg xmlns="http://www.w3.org/2000/svg"
	xmlns:xlink="http://www.w3.org/1999/xlink"
	width="35px" height="35px" viewBox="0 0 35 35">
<clipPath id="clip0"><circle cx="17.50" cy="17.50" r="17.50"/></clipPath><g><circle cx="17.50" cy="17.50" r="17.50" fill="rgb(27,37,47)"/><g><circle cx="17.50" cy="17.50" r="17.50" fill="rgb(27,37,47)"/><g clip-path="url(#clip0)"><path fillRule="evenodd" d="M 4 36C 4 30.48 8.7 26 14.5 26 14.5 26 21.5 26 21.5 26 27.3 26 32 30.48 32 36 32 36 4 36 4 36ZM 18 23C 14.13 23 11 19.87 11 16 11 12.13 14.13 9 18 9 21.87 9 25 12.13 25 16 25 19.87 21.87 23 18 23Z" fill="rgb(51,65,81)"/><path fillRule="evenodd" d="M 30.94 35C 30.41 30.51 26.38 27 21.5 27 21.5 27 14.5 27 14.5 27 9.62 27 5.59 30.51 5.06 35 5.06 35 30.94 35 30.94 35M 18 22C 21.31 22 24 19.31 24 16 24 12.69 21.31 10 18 10 14.69 10 12 12.69 12 16 12 19.31 14.69 22 18 22M 32 36C 32 36 4 36 4 36 4 30.48 8.7 26 14.5 26 14.5 26 21.5 26 21.5 26 27.3 26 32 30.48 32 36 32 36 32 36 32 36ZM 18 23C 14.13 23 11 19.87 11 16 11 12.13 14.13 9 18 9 21.87 9 25 12.13 25 16 25 19.87 21.87 23 18 23 18 23 18 23 18 23Z" fill="rgb(84,101,124)"/></g></g></g></svg>