<?xml version="1.0" encoding="utf-8"?>
<svg xmlns="http://www.w3.org/2000/svg"
	xmlns:xlink="http://www.w3.org/1999/xlink"
	width="32px" height="32px" viewBox="0 0 32 32">
<g><g><g><path fillRule="evenodd" d="M 12 20C 12 20 12 27 12 27 12 27 3 15 3 15 3 15 25 15 25 15 25 15 25 20 25 20 25 20 12 20 12 20Z" fill="rgb(228,248,255)"/><path fillRule="evenodd" d="M 11 24C 11 24 11 20 11 20 11 20 11 19 11 19 11 19 12 19 12 19 12 19 24 19 24 19 24 19 24 16 24 16 24 16 5 16 5 16 5 16 11 24 11 24M 12 27C 12 27 3 15 3 15 3 15 25 15 25 15 25 15 25 20 25 20 25 20 12 20 12 20 12 20 12 27 12 27 12 27 12 27 12 27Z" fill="rgb(0,169,231)"/></g><g><path fillRule="evenodd" d="M 15 7C 15 7 15 0 15 0 15 0 24 12 24 12 24 12 0 12 0 12 0 12 0 7 0 7 0 7 15 7 15 7Z" fill="rgb(228,248,255)"/><path fillRule="evenodd" d="M 22 11C 22 11 16 3 16 3 16 3 16 7 16 7 16 7 16 8 16 8 16 8 15 8 15 8 15 8 1 8 1 8 1 8 1 11 1 11 1 11 22 11 22 11M 24 12C 24 12 0 12 0 12 0 12 0 7 0 7 0 7 15 7 15 7 15 7 15 0 15 0 15 0 24 12 24 12 24 12 24 12 24 12Z" fill="rgb(0,169,231)"/></g></g><g><g><circle cx="23.50" cy="23.50" r="8.50" fill="rgb(255,238,229)"/><path fillRule="evenodd" d="M 23.5 31C 27.64 31 31 27.64 31 23.5 31 19.36 27.64 16 23.5 16 19.36 16 16 19.36 16 23.5 16 27.64 19.36 31 23.5 31M 23.5 32C 18.81 32 15 28.19 15 23.5 15 18.81 18.81 15 23.5 15 28.19 15 32 18.81 32 23.5 32 28.19 28.19 32 23.5 32 23.5 32 23.5 32 23.5 32Z" fill="rgb(248,99,25)"/></g><path fillRule="evenodd" d="M 24.53 25.02C 24.54 24.12 24.78 23.73 25.09 23.46 25.09 23.46 25.95 22.81 25.95 22.81 26.65 22.24 27.01 21.67 27.01 21.08 27.01 20.43 26.75 19.92 26.22 19.55 25.7 19.19 24.97 19 24.03 19 23.13 19 22.4 19.19 21.85 19.56 21.29 19.93 21.01 20.43 21 21.06 21 21.06 22.7 21.06 22.7 21.06 22.7 20.77 22.82 20.53 23.07 20.36 23.31 20.18 23.63 20.1 24.03 20.1 24.45 20.1 24.77 20.19 24.99 20.36 25.2 20.54 25.31 20.8 25.31 21.13 25.31 21.39 25.22 21.62 25.03 21.84 24.91 21.98 24.62 22.22 24.17 22.56 23.72 22.9 23.41 23.21 23.26 23.5 23.11 23.78 23 24.19 23 25.02 23 25.02 24.53 25.02 24.53 25.02ZM 23.26 27.71C 23.43 27.89 23.67 27.99 23.99 27.99 24.31 27.99 24.55 27.89 24.73 27.71 24.9 27.52 24.99 27.28 24.99 27.01 24.99 26.72 24.9 26.48 24.72 26.29 24.54 26.1 24.3 26 23.99 26 23.69 26 23.45 26.09 23.27 26.28 23.09 26.46 23 26.71 23 27.01 23 27.28 23.09 27.52 23.26 27.71Z" fill="rgb(249,99,25)"/></g></g></svg>