<?xml version="1.0" encoding="utf-8"?>
<svg xmlns="http://www.w3.org/2000/svg"
	xmlns:xlink="http://www.w3.org/1999/xlink"
	width="24px" height="24px" viewBox="0 0 24 24">
<g><circle cx="12.00" cy="12.00" r="12.00" fill="rgb(43,55,71)"/><path fillRule="evenodd" d="M 9.59 17C 9.59 17 16.59 10 16.59 10 16.59 10 14 7.41 14 7.41 14 7.41 7 14.41 7 14.41 7 14.41 7 17 7 17 7 17 9.59 17 9.59 17M 10 18C 10 18 6 18 6 18 6 18 6 14 6 14 6 14 14 6 14 6 14 6 18 10 18 10 18 10 10 18 10 18 10 18 10 18 10 18Z" fill="rgb(0,181,233)"/></g></svg>